<?xml version="1.0" encoding="utf-8"?>
<!-- Generator: Adobe Illustrator 16.0.0, SVG Export Plug-In . SVG Version: 6.00 Build 0)  -->
<!DOCTYPE svg PUBLIC "-//W3C//DTD SVG 1.1//EN" "http://www.w3.org/Graphics/SVG/1.1/DTD/svg11.dtd">
<svg width="1920" height="1100" version="1.1" id="svgMap" viewBox="-190 0 1800 1050" xmlns="http://www.w3.org/2000/svg" xmlns:xlink="http://www.w3.org/1999/xlink">
	<g id="perspective" transform="scale(1,1) translate(0, 0)">
		<g class="layer" fill="#52a3f5" stroke="#b1d9fc" stroke-width="1" font-size="11" font-family="SimSun" id="svgMapBj">
			<path autoSize="true" d="M1050.6867496758023 565.2768273400852 L1048.74850794972 560.500849696431 L1051.9385307905577 558.3354326799617 L1051.4452132428087 550.937376233509 L1049.4378875997827 545.5678737755807 L1044.6365553721953 541.4436893640432 L1046.7372902550342 541.0107414686972 L1046.72415458069 538.2396039225878 L1055.0492530788542 536.1270350060167 L1053.9551000562715 530.4485744255871 L1057.3659968287502 525.6929229742036 L1056.2324367831243 519.0950409634352 L1057.9293713063635 517.5333118573762 L1057.7269846201052 514.3339691941183 L1053.5984908230348 512.1685521776453 L1051.0662247125256 513.0161543952909 L1049.8246602333784 510.0078779393698 L1049.5458920333149 511.7755791270956 L1049.1566868674345 505.3355638762896 L1051.1970949495553 503.8971470033339 L1048.7212635881042 500.61785465047797 L1043.6114862665636 502.9289427115509 L1042.8408600381263 501.5643776705092 L1044.9712718148548 507.53689049910645 L1039.0208113350163 513.8021004963921 L1034.6694975804785 512.3982381502901 L1028.5424352566151 513.8095534335589 L1024.8839066973487 500.3719077240148 L1032.4476225897633 496.2260420407256 L1025.2935451344347 495.5498573778823 L1023.1256723604893 490.32738104404234 L1032.6509822889275 489.7812840117258 L1032.2316137226953 487.1456544140783 L1033.9859560079021 486.67273167393796 L1034.741500536169 488.7114487585932 L1032.573141255758 479.83093535593434 L1033.5091796796987 476.3321201265644 L1032.235505774359 476.9547791497607 L1032.5191390389919 473.94650269383783 L1030.5142459282542 473.30622763733845 L1033.5266939121611 462.8138471876864 L1039.44163942062 462.70544082891684 L1041.2076578607994 458.495886409848 L1050.5276620642435 449.94804502066836 L1040.9595395675533 442.96057765806654 L1036.6461733166834 445.9851150678078 L1029.461445954552 447.1559037425468 L1027.4254164305385 446.0406733266791 L1027.3217905551246 440.65287729570446 L1022.5457566633231 437.8092429971657 L1017.7517220325972 440.45571323068907 L1012.8462774231484 438.9800316719029 L1012.2848489713651 440.55869927152344 L1010.5742922673198 436.15265832717705 L1013.6193361838705 433.297505853021 L1010.1369229621669 430.8983376254473 L1009.411541834259 427.8670248182825 L997.9187997922891 425.490215402202 L998.3809809267732 418.69652440590653 L994.7428856387087 415.79326661004234 L991.731410667715 416.36172245385205 L988.733071371069 411.3397978837347 L950.1200268641405 380.66147589098364 L935.7009484812152 369.390602277399 L930.4826802196803 373.0642227602857 L929.8691955769682 375.9674805561499 L924.7959062397313 371.78909296523125 L921.4959329395242 382.5402935964503 L922.820690022887 385.8690463504954 L932.8183977214176 387.75057421492966 L933.6872982542482 394.1208028722758 L937.2927976096653 394.0442408813924 L937.5798364195034 391.4634920028784 L938.708531400549 393.8931495188572 L942.0430466592261 393.99545801994464 L943.3269372001741 399.35750754070796 L947.3464535507956 401.51005130207704 L945.7215219832433 405.6904715122291 L947.4272136227119 408.2976444406959 L945.7244410219901 410.33907168432233 L942.2600285392036 408.6912950309834 L941.5448640469003 411.4786935309112 L936.703638289815 403.902444132229 L929.519883940593 400.9707296671859 L925.4818803445887 402.2194354122912 L925.5485317292405 412.5641121981207 L916.8663374913849 422.0577990675811 L918.2436372721422 426.1697877637562 L917.0701836970147 430.0819022359465 L919.4813096996404 431.66599015349857 L919.4487137669967 439.2767940790436 L923.521259321471 439.9224894534764 L927.2410876943613 446.74937989715363 L927.8273279754721 444.5297597012941 L930.647119402267 447.06443587733156 L935.9262009709673 447.9547230987482 L938.3032715215777 451.9732113104801 L939.2840685395968 459.4728987182789 L949.0930117326789 468.2504260801088 L947.9740468807795 471.48093557151697 L955.3572688775093 476.11462986927836 L956.6285102505681 479.07683362272473 L954.3443624333086 487.72427335402426 L954.7471897799951 509.217189060073 L955.4078655490775 513.2085756821125 L959.8705892823455 516.2405660290187 L958.3089035542544 523.4462011886499 L961.0766387901167 528.6273475982161 L961.0430698445562 540.1509435356857 L963.175427647122 549.2895995801737 L960.6947312210941 559.8246650335932 L962.4359378319496 576.1791193338468 L961.0873419321797 581.4639293239816 L963.7154498147756 583.556849588027 L976.5543552242343 585.0772487698032 L977.7832705355031 588.0184487912411 L981.0414042803677 589.5097137641005 L990.1731304848217 590.0063503952224 L990.8736997834058 599.0216942066036 L979.932656064073 614.5407420045722 L980.0640128075574 623.305396111291 L977.1104321049897 625.4626826508575 L976.8574487471706 628.2758276609911 L991.8720110338909 630.0604673422768 L994.2116205872844 633.395317954004 L1003.5102185066098 636.8107957950651 L1011.145450848253 642.9425304631113 L1015.7190980537889 643.2867206522114 L1020.8546602175811 636.715940231139 L1029.9820078639168 641.582708200267 L1044.801481061244 638.800730018278 L1046.23278305876 636.1691656590865 L1046.1958085680053 625.7370862464995 L1041.3185813330747 596.8827012400816 L1051.0920095547735 596.1204690299692 L1051.2355289596853 586.4065817442461 L1052.7519695872506 586.6159415246257 L1053.1956634763483 590.0124482529009 L1054.844920366766 589.6702906830287 L1055.5070556552164 592.8865718398501 L1057.068254876849 590.6750821208971 L1059.5163553702332 591.0490840586608 L1058.9043302468926 586.3598315020281 L1055.9702098026173 585.2784780732763 L1055.4574319965686 579.8730660090041 L1053.6855754788994 581.3135155011842 L1051.3698047419166 579.5058394686621 L1050.6867496758023 565.2768273400852 L1050.6867496758023 565.2768273400852 Z M989.8734425070979 413.4015513196355 L991.731410667715 416.36172245385205 L994.7428856387087 415.79326661004234 L998.3809809267732 418.69652440590653 L997.9187997922891 425.490215402202 L1007.0125784930678 427.4415298601034 L1008.852059408302 426.648130821839 L1008.8656815891081 423.3268310049589 L1020.9743408060822 419.55225710046216 L1021.2268376574466 417.2757235662466 L1024.6912501402403 416.41050531530163 L1022.0889270998705 404.99396065711335 L1019.7167216138369 403.9383537385729 L1022.2752590730342 404.03117668327286 L1021.1742949600557 397.62097318113047 L1026.999236773896 395.73131483978614 L1025.5557721149416 382.54232621567644 L1023.1397810477465 382.56332994769036 L1024.5341085545078 386.0750184321623 L1016.5695113412439 384.7660116499883 L1013.4052733426397 381.1445617272584 L1011.9530515674523 373.47481184413664 L1010.3086597416077 373.6780737668305 L1007.862991780512 369.23205797769515 L1011.7832608138342 362.14905751142214 L1016.2644717924813 360.25872163033455 L1018.5782965036378 356.9902699133527 L1017.7541545648855 352.96636138368376 L1019.8728901866452 352.3592857745607 L1014.372448179849 346.1408260194985 L1013.1221265844651 339.90610531061975 L1020.7602779648514 335.9438528975006 L1022.0354113895664 333.35429600233147 L1020.3963711347533 326.0646459146519 L1010.5022893116329 329.29109016760594 L1010.242494863407 333.2540201204665 L1007.6139004743491 334.04267638053534 L1008.3241999020793 338.80103799088465 L1004.6282103455997 340.5490905260849 L1002.1402163227067 332.92880104415235 L996.6811273647909 326.3424372090067 L978.1330686783331 325.29157306865636 L968.6145698402906 326.9169909104967 L968.6612744601953 330.06009777514373 L979.5692357404332 340.956291911225 L967.4634955622023 344.29453022165944 L963.1102357818381 338.9663576880139 L939.766196438828 331.8921652383924 L937.9004441748912 339.12964476591515 L933.0280820045409 341.7164915021094 L922.7078205247817 330.94970745681894 L918.4426184131953 328.680626859772 L918.1030369059627 321.737877120162 L906.9382002162492 320.89976045890216 L906.8739813638822 322.9730320704166 L903.2499947630822 323.1132827970814 L901.1497463867017 330.1468228621652 L901.8123681816105 333.9349475615036 L894.8455957123697 337.637024713571 L880.148722142294 338.54696058751324 L881.4462348640482 354.60600756011263 L871.1444606296682 366.71567537469673 L857.4872513589507 370.9076137604625 L857.1447508129713 377.6017064146399 L840.3451963342377 384.67793148348755 L839.0146011733887 391.8198779073373 L836.5810958737238 393.26100493926424 L832.1855100315697 393.26981295591577 L828.7848298946956 388.8251522462597 L823.0119442717842 388.3373236317857 L829.7811951193507 406.46015665950654 L839.5799216768246 413.721350078009 L843.1825019935022 420.48658440512736 L843.99058921916 429.8562815017485 L846.8001640103503 433.41810792715296 L844.5233137899486 440.5742826855949 L847.9979429083432 442.11297544041554 L856.502075782817 432.58066880564 L865.8965154742364 431.76016817768505 L879.0224596935295 420.7244008546877 L887.1077105082222 423.28075830248235 L890.2811921295106 422.2508978941478 L891.9066102035176 418.6565495611103 L900.350416277277 419.3259588265282 L903.8902372609555 425.1832898989287 L907.4475724770928 422.3139090901823 L906.0527584638767 426.7775409126243 L908.4468567404911 430.2844866188989 L917.0701836970147 430.0819022359465 L918.2436372721422 426.1697877637562 L916.6478960920358 422.6025410204111 L925.5485317292405 412.5641121981207 L924.5769783339201 403.43358663054096 L927.9037094892701 400.8636783878992 L936.703638289815 403.902444132229 L940.4915775667396 407.751547408383 L941.2116071236123 411.37435241059575 L942.6360980307327 408.5801785132444 L945.7244410219901 410.33907168432233 L947.4272136227119 408.2976444406959 L945.7215219832433 405.6904715122291 L947.3464535507956 401.51005130207704 L943.3269372001741 399.35750754070796 L942.0430466592261 393.99545801994464 L938.708531400549 393.8931495188572 L937.5798364195034 391.4634920028784 L937.2927976096653 394.0442408813924 L933.6872982542482 394.1208028722758 L932.8183977214176 387.75057421492966 L924.7248762969539 387.3840252143327 L921.4356061388098 383.0274446711792 L924.7959062397313 371.78909296523125 L929.8691955769682 375.9674805561499 L930.4826802196803 373.0642227602857 L935.7009484812152 369.390602277399 L989.8734425070979 413.4015513196355 L989.8734425070979 413.4015513196355 Z M815.1358912337528 573.5177432259898 L816.7948782533094 570.166631660446 L814.7826875457176 541.1936771991259 L817.9435199991167 537.3682878139571 L810.7889560373296 530.9120116093363 L810.6566262809356 522.2618617190656 L813.9395718551314 517.2799119937499 L825.4877756332353 507.75370321665287 L837.6514100798922 490.21423190707173 L849.0035517556826 480.9509085499958 L853.7722880506299 474.7656482423081 L855.4672765480354 468.17386408922175 L847.484192089385 463.37349501484823 L850.3472825908866 447.71216387099776 L849.4165957379737 444.55821637046756 L844.5233137899486 440.5742826855949 L840.1510802577541 444.0697102162503 L838.2678137613548 443.24785450881063 L834.3835462058705 445.2770860370747 L829.0582465237239 439.18261605485895 L816.2529100598222 436.2143144437323 L813.6603171486131 438.16224120291736 L808.3676133991066 436.10658562470235 L802.9999876551665 437.1499968278822 L802.4833177974615 439.65418371551823 L792.847084396737 439.58710728102596 L791.6828744442973 436.46568168813064 L783.5280532062061 429.768201335246 L780.2762440452789 421.86741039999106 L772.937294136158 413.0424552561999 L760.8009040511133 409.8783446595389 L759.329708524092 407.57538707537424 L753.5261729943704 405.780584297956 L748.9072806882905 402.3867877286466 L744.5656970628988 393.4561363850589 L736.1262695472651 396.07279486991865 L726.6393936289423 395.7130212667398 L723.2416325308077 400.33451984914245 L717.7309738884105 401.9775537242858 L713.7863795322191 406.1288397255121 L696.3524206330985 430.56498807222306 L689.5856023178239 450.8213937485252 L689.4391638741617 469.9286920218492 L686.8903565441033 481.23208754306506 L682.2023803210795 488.44517563985755 L681.9508564826356 500.7452321220353 L720.0808000774123 504.4581499099786 L724.2934594916005 512.5256156218493 L725.8892006717069 523.2165152160032 L724.3100007111498 559.9208756770022 L721.8361153755286 565.4529876730867 L715.8963580377458 596.475499854947 L717.236683327741 598.8990595132454 L727.8649033950096 602.4717265745257 L725.1633330373406 623.081130456585 L730.291111097813 642.4194697820385 L745.3606486142126 645.1438570859264 L748.1420060308737 650.7843754407859 L753.186104980683 654.1192260525113 L767.6621046191212 647.36754252024 L772.0027152315924 640.4478291318719 L769.27730605752 620.7869808890719 L771.1260305954456 616.5435494828816 L787.5840575411275 610.1739983652824 L789.0717942877018 606.3215073904175 L801.1614797528382 593.6813259575938 L806.9295003111802 594.469304677923 L808.9820710547319 600.9709760452733 L811.4301715481124 599.6761975976879 L812.5593530356309 597.7553724281988 L808.5700000853649 589.0591498354497 L810.844904279933 580.0194145933456 L815.1358912337528 573.5177432259898 L815.1358912337528 573.5177432259898 Z M989.8612798456597 601.1078390732237 L990.9661360103055 597.7384339346409 L989.8646853908649 589.307129381139 L981.0414042803677 589.5097137641005 L977.7832705355031 588.0184487912411 L976.5543552242343 585.0772487698032 L963.7154498147756 583.556849588027 L961.0873419321797 581.4639293239816 L962.4359378319496 576.1791193338468 L960.6947312210941 559.8246650335932 L963.175427647122 549.2895995801737 L961.0430698445562 540.1509435356857 L961.0766387901167 528.6273475982161 L958.3089035542544 523.4462011886499 L959.8705892823455 516.2405660290187 L955.4078655490775 513.2085756821125 L954.7471897799951 509.217189060073 L954.3443624333086 487.72427335402426 L956.6285102505681 479.07683362272473 L955.3572688775093 476.11462986927836 L947.9740468807795 471.48093557151697 L949.0930117326789 468.2504260801088 L939.2840685395968 459.4728987182789 L938.3032715215777 451.9732113104801 L935.9262009709673 447.9547230987482 L930.647119402267 447.06443587733156 L927.8273279754721 444.5297597012941 L927.2410876943613 446.74937989715363 L923.521259321471 439.9224894534764 L919.4487137669967 439.2767940790436 L918.904313041221 430.5209479889727 L912.6030814056285 429.33864113861455 L908.9698511821407 430.6117383144392 L906.0527584638767 426.7775409126243 L907.4475724770928 422.3139090901823 L903.8902372609555 425.1832898989287 L900.350416277277 419.3259588265282 L891.9066102035176 418.6565495611103 L890.2811921295106 422.2508978941478 L887.1077105082222 423.28075830248235 L878.3131332787161 420.9452788106846 L865.8965154742364 431.76016817768505 L859.4181954881715 431.5657142716391 L855.2770525232081 433.45266245401217 L847.9979429083432 442.11297544041554 L850.4299886886365 446.668075128071 L847.484192089385 463.37349501484823 L855.4672765480354 468.17386408922175 L853.7722880506299 474.7656482423081 L849.0035517556826 480.9509085499958 L837.6514100798922 490.21423190707173 L825.4877756332353 507.75370321665287 L813.9395718551314 517.2799119937499 L810.6566262809356 522.2618617190656 L810.7889560373296 530.9120116093363 L817.9435199991167 537.3682878139571 L814.7826875457176 541.1936771991259 L816.7948782533094 570.166631660446 L810.844904279933 580.0194145933456 L808.5700000853649 589.0591498354497 L812.5593530356309 597.7553724281988 L818.8056094415406 601.4825185507325 L825.6147538186015 599.8571007088922 L828.8441836824932 605.4786479509658 L843.4962986584869 618.1411881952863 L848.9008988931855 618.4765703677385 L852.0651368917825 611.543983724263 L856.572619219136 611.1022278122709 L860.2452564656669 615.9920321326317 L863.4634966810336 625.0236368978276 L868.8374470089111 626.3658431273761 L874.8472612765581 635.5600574307318 L883.937147925677 639.8719203508954 L885.3134746935139 645.7827770629392 L891.2128519953403 649.652206531362 L900.8125974117611 646.6507054728609 L918.1570391227324 656.7955080346983 L916.9699633668024 644.2610228016765 L914.8497682256675 643.0604223782775 L916.1069009114581 635.4889157577891 L943.3522355359564 630.5665895297934 L950.0567810246866 631.801066940312 L956.9598211480225 628.9709834366204 L959.5893885500009 624.9856946722612 L960.2646595127953 618.2163951066868 L963.2372139672043 615.0719331625514 L966.1557662048435 614.3164763498589 L967.7038297521322 618.7204846749755 L969.7675901442053 619.7923525473343 L977.167353360499 616.9873380141071 L989.8612798456597 601.1078390732237 L989.8612798456597 601.1078390732237 Z M1193.443798975266 235.14965313045286 L1201.3772597752686 233.94092223014195 L1202.5161713919224 231.34865517600338 L1205.4819147559247 231.68810258690792 L1206.4476300737624 228.57548501066594 L1211.9451530418191 225.73320579160827 L1199.1840886655336 212.96903458593988 L1198.3803799979905 204.27281199319623 L1194.9865109515267 201.49693166888756 L1188.2153140781302 203.45163382549435 L1187.9764394075755 196.57189528192248 L1189.702564318246 196.90185713643405 L1186.9226664209564 188.1568516822408 L1188.942641231868 186.97996514981787 L1185.7234280035882 184.36330666495815 L1181.5229312508272 182.53869213887447 L1173.1326408873756 187.772686648339 L1167.6409559968124 188.20089176549118 L1164.7039165137976 194.2282853132201 L1151.7574931772651 193.65711931043552 L1143.630889313692 196.3218831170052 L1135.7704044823004 180.89227056502568 L1120.2780928544562 181.6524701559174 L1119.1532899250706 174.30251903116732 L1113.4733270355064 172.0517320071649 L1109.7199297170628 167.3055661121707 L1098.571147740433 169.23181159960404 L1094.6927182624422 166.34616983703745 L1076.9323135304367 164.10690098865416 L1070.7488164575225 168.67013115321606 L1076.695384885712 180.73846904351558 L1076.7114395988028 192.00392233916136 L1081.1629736835494 197.51096536478508 L1079.759889060555 200.06867789206444 L1080.637060203153 204.28975048674874 L1083.0321314926841 203.66641392380916 L1088.3968381978812 212.63297487374803 L1072.6281909022618 214.83159133759364 L1068.0370294642598 225.88294207466606 L1062.6314562166444 228.6960870847979 L1067.3782997210037 235.06089542420523 L1068.6553791715523 247.36908238328942 L1062.6017793227475 251.00679325983765 L1057.8977483866329 251.30355566697108 L1054.5646926473346 257.45493898754466 L1057.4798393397687 266.2832818300467 L1065.63466057786 277.720152680502 L1069.0348542082793 276.10896317325205 L1068.411152929959 272.72126446162656 L1069.849266017889 272.3560705405107 L1070.9088770819944 264.6124688254731 L1078.7041700481022 265.0447391810794 L1080.1534727845537 266.7087767882258 L1081.1230801540514 264.66802708434443 L1087.526964652141 264.364489279782 L1088.5899812614443 269.55308862650963 L1086.4561639395106 267.1247861900174 L1084.0630386758094 272.50580682356485 L1086.967968732646 283.5795163721323 L1085.9570083142753 286.3567517759275 L1090.9471050473076 291.86989265922784 L1089.9400366805894 296.87623381526646 L1092.257266936951 305.0331347731244 L1094.1424794591803 307.0867577321151 L1097.1252505491902 303.91587173803237 L1098.6986124322611 304.56427727143637 L1100.022883009162 311.8396990245292 L1112.8311385118068 306.81303167621627 L1117.6845269303303 300.2192149039056 L1120.1408980334854 299.6846360472082 L1121.82761592112 300.0688010811082 L1121.4534924554173 301.5160259707154 L1122.8599826236095 300.36895118695793 L1147.9919331973797 310.3484340516716 L1173.6605003936056 322.9093433346425 L1178.550376796422 323.4886398143299 L1184.2298531795204 321.0196849932963 L1187.8781651031895 312.38782867606824 L1195.7474070508142 312.0063738011395 L1195.7532451283078 308.185049654423 L1197.7012169835325 307.76565255392416 L1197.6151053405883 305.84618246391983 L1193.794083624558 305.06633422050254 L1192.9650766212326 301.48824684127976 L1190.2012334370302 300.6914601043045 L1188.8526375372603 295.1017572301207 L1189.249140299995 291.30617959361007 L1191.657347263881 291.45523833692096 L1192.3851609240774 287.30937265363355 L1194.4601109646683 287.0288712003112 L1193.1567601654278 277.88343975840326 L1194.8551542080422 276.3379716061572 L1194.725256983922 265.6057420877223 L1193.554722447545 265.6267458197344 L1193.9896592204168 260.5980458521972 L1191.9623868126364 260.98017826686555 L1191.5556674142936 258.18397175028986 L1193.992091752698 257.2164449982465 L1193.797002663301 255.73873082023601 L1192.6230625817188 253.96357669534336 L1191.9726034482446 256.9135847334255 L1188.8978826377934 253.108521540531 L1186.0746856657897 253.42696521942162 L1186.3082087653165 244.28559901596782 L1189.6252097915312 244.270693141636 L1189.6967262407597 242.54364433844603 L1192.0611476234772 243.81132119633912 L1190.3583750227517 236.25268783095635 L1193.443798975266 235.14965313045286 L1193.443798975266 235.14965313045286 Z M989.8690639489796 989.7866427351419 L998.4301180789662 988.0792425844847 L999.7845520562223 983.158271435972 L1005.0597415732664 977.2365740880505 L1000.1353232119691 970.232168231887 L1000.5605298556984 964.4913739951626 L996.5264183113504 955.8784887907241 L995.7557920829131 947.6328301266203 L993.448778462156 944.7004381218339 L996.2851111085074 936.5469248626905 L994.882026485513 923.8545728697081 L996.8261062890815 918.5216575578652 L994.5910956240223 910.1669149952504 L987.5659423798897 909.9670407712638 L990.3837877808546 892.9309814902281 L985.2701184076577 892.2209198402743 L985.7230559194468 889.9572595611662 L983.5576156777825 889.6936966014018 L984.5953339513107 882.8512227436531 L985.8169516657108 880.8213136756513 L987.9566070651417 881.3003342734737 L988.1857516065502 879.4133860910952 L985.558130230409 879.0807140776142 L986.4241117244892 874.6014988411025 L984.4114345104317 873.7423784478306 L987.5698344315497 868.5849459292476 L989.7727356704272 859.188824782681 L986.7009338987154 857.764636244312 L985.9497679285705 854.8667987663848 L987.7444902497336 843.7029764320869 L977.2768173134027 843.083705107605 L968.697762444499 845.7701501859228 L963.5252257899556 845.0614436154538 L960.538076141831 832.852177458748 L948.607478288246 829.0755709350233 L941.7886037820317 830.1013661049037 L938.4088434228252 843.2070173407064 L933.1458165672157 848.8319522814927 L934.6233366781853 854.2488825213859 L933.2732812590402 869.8241661179618 L926.466082907802 873.3046877742909 L926.1230958553751 876.9999895289347 L918.2455832979686 885.2226118417948 L916.1750118154887 890.9830547310466 L912.245499159475 891.0975589474983 L897.2066115498856 897.6730821467645 L896.0428881039006 903.0466498431488 L898.0939993280881 907.6342714384336 L893.2177451060816 913.9699455689224 L885.7464654405558 919.5074778829458 L877.1975739720074 921.4913142484784 L871.3230084995157 920.306297239149 L866.0249531789741 916.7702173239559 L857.1875633812233 908.8714590079217 L855.6224721079343 904.4383164738847 L847.6705240625488 909.3633528608498 L834.7309118164194 911.640563934805 L835.0860615302845 926.3479191214683 L832.1996187188306 934.5556355599965 L813.7868088275245 948.2988516933256 L806.7397627928076 948.0346111938197 L802.069787308712 954.5891306610738 L801.3444061808004 964.4351381965516 L805.0311521145995 972.657082969672 L805.1488866772743 983.7246946605555 L812.6615193916732 1005.0041853477742 L817.176785822332 1010.1995600919272 L830.526036505551 1017.4072278707845 L836.0824267549397 1024.5830512817538 L844.9261411366388 1029.3786775779336 L834.9284334381009 1051.9177146461316 L835.0602766880475 1058.7507029474855 L835.9291772208744 1061.3355170644536 L842.8351363829534 1063.1669069879626 L843.2929389593155 1073.4207934483147 L848.1755177652776 1081.6061510753498 L856.0608144260004 1087.9282744109896 L881.8193853168304 1089.6688740090212 L884.8308602878278 1088.7406445620381 L887.4794014416366 1081.7646953750536 L896.1411624082903 1080.3405068366847 L900.6700510197588 1084.543285858328 L898.3674159571201 1091.8383562639483 L901.7282025644963 1096.125827753387 L901.3151585822052 1099.8428107797808 L911.6169328165815 1100 L911.5235235767759 1093.9848021676353 L915.0545874442141 1091.7868632435311 L916.26890756176 1094.1684154378054 L923.9094914744346 1093.0870620090536 L928.9613745275565 1081.8642937171717 L924.5025428459412 1080.4272319237061 L926.7185797591774 1072.1727652429527 L938.8092382372233 1075.8206392156335 L940.9717594401445 1074.3896752798391 L943.0705482971462 1068.8182659786999 L942.2415412938208 1060.7074377233203 L945.7740646806378 1057.3495507603566 L946.8798938581931 1053.4658929573452 L944.5874754311662 1038.5092031455079 L947.0292513406057 1029.6788276837797 L970.2779354179693 998.0580479094515 L982.0922582282437 991.4222236731148 L989.8690639489796 989.7866427351419 L989.8690639489796 989.7866427351419 Z M964.7998727082086 722.9349050612836 L960.6348909268418 723.9607002311659 L953.1480430546872 730.7537136877181 L943.5035390441881 728.8173051041558 L940.43173727248 721.2627369772235 L922.275802790653 718.0457782806661 L916.2012831641878 732.3588053372896 L891.0265200221802 736.9748836017516 L888.7574539050947 734.5933314074791 L888.2320269311567 728.1126637721336 L872.8112317525483 729.0944188587655 L866.5576777497772 720.9009307548222 L865.7802404309296 717.1670092348686 L851.3635945802889 708.1435349465773 L842.1622979524327 713.8761987063917 L832.018638316702 708.4836598972252 L830.8446982351124 712.2616215004291 L826.6189031465728 713.6885201977693 L815.1091333785989 713.3565257240298 L808.6123261471475 716.8295944431902 L804.7188149689791 734.0377488187733 L791.7757971776518 749.3921544593522 L790.606722160639 753.6078067361013 L787.7178468168968 754.3043175912098 L787.8842320253134 757.2976881728046 L776.5043594814488 771.9318690672935 L772.3330531161337 771.7225092869157 L769.0287012578119 777.0723630923185 L756.348883459912 782.2596073595614 L750.3463667891265 787.5030874254171 L733.244691800377 796.7176279210416 L727.0898986084467 797.4988312439455 L717.4906396984807 795.442498125989 L723.6799748488811 805.6150798172639 L726.1027770064829 822.0711650788635 L730.7946452811702 826.477206023208 L738.2644654273099 828.5565754924046 L744.8692770922862 839.1309382508771 L745.8427765134475 847.561565264632 L757.6186653135919 854.1418312420992 L769.4947744439523 869.6378426888259 L778.5141176567595 873.0289290991641 L788.0759155695123 873.533696207196 L793.7096603456157 878.8740644562022 L823.4157446313802 891.2174834818907 L828.2161038460545 895.6167490288099 L834.7309118164194 911.640563934805 L847.6705240625488 909.3633528608498 L855.6224721079343 904.4383164738847 L857.1875633812233 908.8714590079217 L868.1412562684454 918.3888597683708 L873.3371452329447 920.976384044312 L882.0801527779658 920.966898487919 L890.7224534863235 916.0425396406954 L896.9541146985175 909.9792364866244 L898.0939993280881 907.6342714384336 L895.9407217478656 901.6041677317389 L897.2066115498856 897.6730821467645 L912.245499159475 891.0975589474983 L916.1750118154887 890.9830547310466 L918.2455832979686 885.2226118417948 L926.1230958553751 876.9999895289347 L926.466082907802 873.3046877742909 L933.2732812590402 869.8241661179618 L934.6233366781853 854.2488825213859 L933.1458165672157 848.8319522814927 L938.4088434228252 843.2070173407064 L941.7886037820317 830.1013661049037 L947.0623337797042 828.8126855150003 L960.538076141831 832.852177458748 L963.5252257899556 845.0614436154538 L968.697762444499 845.7701501859228 L976.821447269318 843.253767582928 L972.2842880480785 835.6897138996064 L976.680360396691 820.1212057004504 L976.0065489532644 814.0531597681857 L969.3457890456812 813.8797095941482 L969.4464958823555 789.5899098317786 L970.8641756990801 789.5770365766784 L970.9532063807674 784.6520001897134 L973.6791020613018 784.013757752442 L976.9873459712762 766.1815892741761 L979.6606989544089 760.137257232891 L991.9167696279656 742.3430309801952 L993.0177337409477 733.7640227628708 L991.5659984722151 732.0430718173684 L992.9773537049805 728.1248594874996 L985.2842270949222 722.6760848797148 L973.5054192560237 720.7972671742482 L964.7998727082086 722.9349050612836 L964.7998727082086 722.9349050612836 Z M1137.1768946505 178.72007815113102 L1141.3238756929459 163.88670057239506 L1141.999633162206 154.93640057628 L1139.3525515277652 144.38236401007634 L1129.6910197912584 135.8175841273369 L1116.5047487712545 134.16032191761224 L1114.521261944643 131.81942210787565 L1107.173554919289 129.6756863631581 L1107.82693309151 120.15625298348823 L1096.397923395456 118.9251632716805 L1088.0100655642927 90.8289452369263 L1084.9426423506957 88.36947597228391 L1074.6384355840382 88.05509753184378 L1064.9618221473502 92.86901740106805 L1061.579629255859 102.60594103802578 L1056.3024937129885 108.67195435106987 L1055.8899362371521 122.99175680511871 L1048.1325907747123 126.71619276868114 L1045.5691882509382 135.23151225022957 L1024.0213307484628 140.29341166513768 L1039.6824601170083 153.4552986995568 L1043.1283853544192 161.15147263263134 L1056.7486201343709 170.93379143232414 L1060.771542030201 178.190242072631 L1066.1245725804147 180.58873276046506 L1066.7244350423243 177.60620281474803 L1063.9683759614418 171.66621189377656 L1064.8027345357987 166.6856172479438 L1066.6461075026964 165.54057508341612 L1070.7488164575225 168.67013115321606 L1076.9323135304367 164.10690098865416 L1094.6927182624422 166.34616983703745 L1098.571147740433 169.23181159960404 L1109.7199297170628 167.3055661121707 L1113.4733270355064 172.0517320071649 L1119.1532899250706 174.30251903116732 L1120.2780928544562 181.6524701559174 L1135.7704044823004 180.89227056502568 L1137.1768946505 178.72007815113102 L1137.1768946505 178.72007815113102 Z M929.075703545026 719.5898913534256 L940.43173727248 721.2627369772235 L942.905622608112 728.2542695782831 L950.0451048697141 730.3519326205223 L954.8746544718233 730.5518068445108 L960.6348909268418 723.9607002311659 L973.5054192560237 720.7972671742482 L985.2842270949222 722.6760848797148 L992.9773537049805 728.1248594874996 L996.173701129781 724.6721169606062 L995.7319532664987 721.9287585439288 L990.5491999763581 718.3174717173333 L992.9846513018492 708.7248640454945 L1003.8366643394875 709.7032314334119 L1005.6347922058594 703.3824631772568 L1007.947157397637 703.007783699748 L1008.0989474123235 701.0815382123183 L1012.802978348438 702.5003064327466 L1012.2108999898483 704.940804584603 L1006.9819285862504 705.5350069386259 L1006.9405755373773 710.5867432574014 L1008.2322501816416 707.6055683911709 L1012.3164718910957 705.7342036228656 L1016.1126817777913 705.4631877259362 L1015.0165827293858 708.7431576185336 L1019.8354291894284 709.5196181632382 L1034.5050583978882 706.9937500038504 L1034.9409681836805 709.6984886552127 L1043.6795971705906 708.6245881636278 L1043.868848182501 706.5743529033516 L1048.7699142338388 705.8344795047342 L1048.3918987164798 702.4339075379976 L1049.9633145737243 701.8092158955769 L1048.2279460403552 695.5507812957185 L1054.0679695543804 694.4301305619101 L1054.4484176040241 690.0728724790151 L1056.3555229168342 690.5390198217337 L1058.3390097434494 685.2894418981941 L1059.9970237500966 685.7528790819451 L1064.9331182663664 672.5408541065972 L1072.2963934983563 668.7053016252976 L1074.1183601811317 664.2660612335803 L1076.4934847059085 663.1305046254402 L1073.0577761041022 663.4679194171204 L1072.0842766829483 659.8972849750662 L1073.6260156462886 659.431137632344 L1068.8344135478546 641.7981658383251 L1059.8393956579166 637.8386235841735 L1037.1555455775306 639.0270282922102 L1029.9820078639168 641.582708200267 L1020.8546602175811 636.715940231139 L1015.7190980537889 643.2867206522114 L1011.145450848253 642.9425304631113 L1003.5102185066098 636.8107957950651 L994.2116205872844 633.395317954004 L991.8720110338909 630.0604673422768 L976.8574487471706 628.2758276609911 L977.1104321049897 625.4626826508575 L980.0640128075574 623.305396111291 L979.932656064073 614.5407420045722 L969.7675901442053 619.7923525473343 L965.5505521719024 613.9526375082296 L960.2646595127953 618.2163951066868 L958.4543689849997 627.8584631797185 L951.3528342270693 631.5009168344604 L943.3522355359564 630.5665895297934 L916.1069009114581 635.4889157577891 L914.8497682256675 643.0604223782775 L916.9699633668024 644.2610228016765 L918.1570391227324 656.7955080346983 L900.8125974117611 646.6507054728609 L891.2128519953403 649.652206531362 L885.3134746935139 645.7827770629392 L883.937147925677 639.8719203508954 L874.8472612765581 635.5600574307318 L868.8374470089111 626.3658431273761 L863.4634966810336 625.0236368978276 L860.2452564656669 615.9920321326317 L856.572619219136 611.1022278122709 L852.0651368917825 611.543983724263 L848.9008988931855 618.4765703677385 L843.4962986584869 618.1411881952863 L828.8441836824932 605.4786479509658 L825.6147538186015 599.8571007088922 L818.8056094415406 601.4825185507325 L812.5593530356309 597.7553724281988 L808.9820710547319 600.9709760452733 L805.3717066347454 593.4353790311307 L798.7892742668009 595.0187894089468 L786.0262638646927 611.3054897349648 L771.1260305954456 616.5435494828816 L769.27730605752 620.7869808890719 L771.9331448081939 637.1448228880308 L771.2520357679059 642.9045882375431 L767.6621046191212 647.36754252024 L753.186104980683 654.1192260525113 L753.2756221688323 661.1087260343429 L760.6783044238691 662.875072142584 L762.3504271177771 669.5434182865501 L780.6858824823685 677.4645354140812 L779.0770056279107 699.9270104913976 L776.4537628098806 708.0961071646143 L777.1188171370814 715.729947441394 L773.1576815613407 719.4401550703678 L765.6615900664983 742.067272305072 L787.5650837892936 754.7670772352194 L790.606722160639 753.6078067361013 L791.7757971776518 749.3921544593522 L804.7188149689791 734.0377488187733 L808.6123261471475 716.8295944431902 L815.3626032428729 713.3057102433559 L830.4545200563189 712.5529635896291 L831.6454878639124 708.5744502226971 L841.9404510078821 713.8612928320599 L850.4183125336567 708.040548905743 L858.0228949684897 711.2263407741593 L865.7802404309296 717.1670092348686 L866.5576777497772 720.9009307548222 L872.8112317525483 729.0944188587655 L888.6144210066377 728.4006181626228 L888.7574539050947 734.5933314074791 L891.0265200221802 736.9748836017516 L915.5532565629946 732.7253543378847 L922.275802790653 718.0457782806661 L929.075703545026 719.5898913534256 L929.075703545026 719.5898913534256 Z M1214.0128054855522 9.105456597109878 L1216.304737406128 7.6521338498241676 L1214.3591980831807 4.231913230563805 L1215.1487980634665 0 L1201.5864575519263 7.872334266083271 L1197.5518595011235 16.507578282018585 L1190.1092837165997 14.090116481398582 L1187.3590627131962 18.77801395855022 L1177.7481276482504 21.98345447949214 L1166.649942343196 16.367327555359225 L1155.0657370872432 18.00087587410235 L1151.4286148120955 21.650782466007513 L1138.616953764249 25.669270677743043 L1137.89497818155 28.067083825832015 L1130.6504105251515 31.801005345791054 L1123.7678036730285 43.418101767700136 L1114.412284498194 43.328666521712876 L1100.6976674655089 38.848096205712864 L1098.4558457100393 37.43881354167752 L1096.893186969035 32.79021336958249 L1093.2336853968518 30.690517708115294 L1085.8149484287278 37.49233918132086 L1083.6071821252772 32.513099614972816 L1081.6645618410766 33.158794989411035 L1077.815809256983 28.745978647641095 L1073.9179195206925 33.99623411092216 L1071.7179373205654 33.75706258187893 L1070.0005695261207 29.949289230014983 L1067.7368549800703 29.830719775105536 L1058.4907997581467 34.38785208198533 L1053.4106993304995 34.40750073451636 L1049.5780014594966 37.94425818945092 L1041.452857115306 29.04545121375304 L1038.6462013628516 28.5068071186015 L1038.392731498574 30.19862385518718 L1025.728968413765 33.64120328594436 L1025.6195044608612 46.50023005553885 L1017.2243490328365 42.89436354688223 L1015.0311779231015 45.70547593779338 L1007.0403093611385 42.11180514449734 L1000.2550038004811 56.05286288258685 L1002.4053623419641 70.13891412553676 L998.6670467236909 75.19132798405371 L993.1223326292784 91.47599569084923 L994.8586741755571 94.19631775628477 L995.94698912065 93.05872852892207 L1000.4306326315818 95.0134306855307 L1001.896963094041 92.34256902128254 L1004.044889103232 95.14826109424939 L1003.4854066772823 98.2696866871429 L1006.4248786925855 105.31135722913314 L1005.1706650455417 121.05467068180951 L1006.6515907017165 134.49570409006265 L1010.199682295166 143.4568447220572 L1016.3904769649344 140.80359909111212 L1044.5869317135512 135.9998423180259 L1048.1325907747123 126.71619276868114 L1055.8899362371521 122.99175680511871 L1056.3024937129885 108.67195435106987 L1061.579629255859 102.60594103802578 L1064.9618221473502 92.86901740106805 L1074.6384355840382 88.05509753184378 L1084.9426423506957 88.36947597228391 L1088.0100655642927 90.8289452369263 L1096.397923395456 118.9251632716805 L1107.82693309151 120.15625298348823 L1107.173554919289 129.6756863631581 L1114.521261944643 131.81942210787565 L1116.5047487712545 134.16032191761224 L1129.6910197912584 135.8175841273369 L1139.3525515277652 144.38236401007634 L1141.9276302065118 153.14566303731226 L1141.3238756929459 163.88670057239506 L1135.7704044823004 180.89227056502568 L1143.630889313692 196.3218831170052 L1151.7574931772651 193.65711931043552 L1164.7039165137976 194.2282853132201 L1166.9330891013742 188.58370171990646 L1173.1326408873756 187.772686648339 L1181.5229312508272 182.53869213887447 L1193.033674031718 188.31268582297162 L1192.9675091535173 185.24139817101423 L1204.6777195819268 183.35648260786184 L1208.985734261758 177.6136557519094 L1209.4425638252105 179.01413039930048 L1212.4559848220306 177.35483557034604 L1212.9746007055692 179.7993989606548 L1218.9513325341068 180.09683890753695 L1218.8467336457798 182.43773871726808 L1226.1973597098695 177.7227396504295 L1236.6178415198483 180.474906083753 L1234.036438257146 177.66311615310042 L1235.710506976884 176.30668158896697 L1235.8759191723875 172.07680097763114 L1238.0350348301 171.03948763212975 L1232.0534379369929 159.49759812161574 L1228.1793870171132 159.98136149763195 L1226.9850136643217 163.10956248795083 L1224.1900340668471 162.06818390399712 L1222.3792570325932 165.00464114723763 L1217.5881414406103 162.31480837020172 L1215.0437126686738 162.8703909589076 L1213.9845881110232 160.36755915076174 L1205.938257812919 159.36615541160245 L1202.5550919085108 156.07331226390124 L1199.7732479853876 157.9067348066328 L1198.482059847578 153.6538178440569 L1196.356513135419 156.38362546588723 L1192.7359320798241 155.49808102266434 L1196.452841413975 150.911814506866 L1194.3311867534685 148.6901616917803 L1191.785298462164 152.00333103174853 L1190.5150301020221 149.0479026757257 L1186.8078508970211 147.0268016243681 L1188.579707414683 140.44043778922241 L1183.5628528265006 134.776205543385 L1188.7947432688343 127.34427210981448 L1182.4998362171864 126.08675834806127 L1180.923555295376 120.84192320271723 L1177.4713054740205 119.32897695810789 L1184.3651019746649 116.77532966927902 L1182.6204898186115 111.06570226070471 L1184.7426309855728 108.76884253422213 L1187.9506545653312 109.41182774968911 L1185.0768609217703 103.20759632921363 L1192.2309383770917 95.52429565124476 L1191.3284688987114 90.90008690986724 L1198.029122335789 89.88648745535284 L1198.4650321215704 81.17197128956286 L1205.6035413702666 78.3689893755618 L1207.2995028805817 60.93995704398003 L1203.0649506758164 46.606603795084084 L1202.9282423612967 34.6066974187579 L1200.950107105713 28.789341191151834 L1204.347868203844 27.351601857937567 L1207.6935731110352 21.29575164102971 L1210.7327789500996 22.51464563747686 L1219.9000201259405 21.041674237660118 L1214.0128054855522 9.105456597109878 L1214.0128054855522 9.105456597109878 Z"></path>
		</g>
		<g class="layer" fill="#52a3f5" stroke="#b1d9fc" stroke-width="1" font-size="11" font-family="SimSun">
			<g>
				<path autoSize="true" d="M1050.6867496758023 565.2768273400852 L1048.74850794972 560.500849696431 L1051.9385307905577 558.3354326799617 L1051.4452132428087 550.937376233509 L1049.4378875997827 545.5678737755807 L1044.6365553721953 541.4436893640432 L1046.7372902550342 541.0107414686972 L1046.72415458069 538.2396039225878 L1055.0492530788542 536.1270350060167 L1053.9551000562715 530.4485744255871 L1057.3659968287502 525.6929229742036 L1056.2324367831243 519.0950409634352 L1057.9293713063635 517.5333118573762 L1057.7269846201052 514.3339691941183 L1053.5984908230348 512.1685521776453 L1051.0662247125256 513.0161543952909 L1049.8246602333784 510.0078779393698 L1049.5458920333149 511.7755791270956 L1049.1566868674345 505.3355638762896 L1051.1970949495553 503.8971470033339 L1048.7212635881042 500.61785465047797 L1043.6114862665636 502.9289427115509 L1042.8408600381263 501.5643776705092 L1044.9712718148548 507.53689049910645 L1039.0208113350163 513.8021004963921 L1034.6694975804785 512.3982381502901 L1028.5424352566151 513.8095534335589 L1024.8839066973487 500.3719077240148 L1032.4476225897633 496.2260420407256 L1025.2935451344347 495.5498573778823 L1023.1256723604893 490.32738104404234 L1032.6509822889275 489.7812840117258 L1032.2316137226953 487.1456544140783 L1033.9859560079021 486.67273167393796 L1034.741500536169 488.7114487585932 L1032.573141255758 479.83093535593434 L1033.5091796796987 476.3321201265644 L1032.235505774359 476.9547791497607 L1032.5191390389919 473.94650269383783 L1030.5142459282542 473.30622763733845 L1033.5266939121611 462.8138471876864 L1039.44163942062 462.70544082891684 L1041.2076578607994 458.495886409848 L1050.5276620642435 449.94804502066836 L1040.9595395675533 442.96057765806654 L1036.6461733166834 445.9851150678078 L1029.461445954552 447.1559037425468 L1027.4254164305385 446.0406733266791 L1027.3217905551246 440.65287729570446 L1022.5457566633231 437.8092429971657 L1017.7517220325972 440.45571323068907 L1012.8462774231484 438.9800316719029 L1012.2848489713651 440.55869927152344 L1010.5742922673198 436.15265832717705 L1013.6193361838705 433.297505853021 L1010.1369229621669 430.8983376254473 L1009.411541834259 427.8670248182825 L997.9187997922891 425.490215402202 L998.3809809267732 418.69652440590653 L994.7428856387087 415.79326661004234 L991.731410667715 416.36172245385205 L988.733071371069 411.3397978837347 L950.1200268641405 380.66147589098364 L935.7009484812152 369.390602277399 L930.4826802196803 373.0642227602857 L929.8691955769682 375.9674805561499 L924.7959062397313 371.78909296523125 L921.4959329395242 382.5402935964503 L922.820690022887 385.8690463504954 L932.8183977214176 387.75057421492966 L933.6872982542482 394.1208028722758 L937.2927976096653 394.0442408813924 L937.5798364195034 391.4634920028784 L938.708531400549 393.8931495188572 L942.0430466592261 393.99545801994464 L943.3269372001741 399.35750754070796 L947.3464535507956 401.51005130207704 L945.7215219832433 405.6904715122291 L947.4272136227119 408.2976444406959 L945.7244410219901 410.33907168432233 L942.2600285392036 408.6912950309834 L941.5448640469003 411.4786935309112 L936.703638289815 403.902444132229 L929.519883940593 400.9707296671859 L925.4818803445887 402.2194354122912 L925.5485317292405 412.5641121981207 L916.8663374913849 422.0577990675811 L918.2436372721422 426.1697877637562 L917.0701836970147 430.0819022359465 L919.4813096996404 431.66599015349857 L919.4487137669967 439.2767940790436 L923.521259321471 439.9224894534764 L927.2410876943613 446.74937989715363 L927.8273279754721 444.5297597012941 L930.647119402267 447.06443587733156 L935.9262009709673 447.9547230987482 L938.3032715215777 451.9732113104801 L939.2840685395968 459.4728987182789 L949.0930117326789 468.2504260801088 L947.9740468807795 471.48093557151697 L955.3572688775093 476.11462986927836 L956.6285102505681 479.07683362272473 L954.3443624333086 487.72427335402426 L954.7471897799951 509.217189060073 L955.4078655490775 513.2085756821125 L959.8705892823455 516.2405660290187 L958.3089035542544 523.4462011886499 L961.0766387901167 528.6273475982161 L961.0430698445562 540.1509435356857 L963.175427647122 549.2895995801737 L960.6947312210941 559.8246650335932 L962.4359378319496 576.1791193338468 L961.0873419321797 581.4639293239816 L963.7154498147756 583.556849588027 L976.5543552242343 585.0772487698032 L977.7832705355031 588.0184487912411 L981.0414042803677 589.5097137641005 L990.1731304848217 590.0063503952224 L990.8736997834058 599.0216942066036 L979.932656064073 614.5407420045722 L980.0640128075574 623.305396111291 L977.1104321049897 625.4626826508575 L976.8574487471706 628.2758276609911 L991.8720110338909 630.0604673422768 L994.2116205872844 633.395317954004 L1003.5102185066098 636.8107957950651 L1011.145450848253 642.9425304631113 L1015.7190980537889 643.2867206522114 L1020.8546602175811 636.715940231139 L1029.9820078639168 641.582708200267 L1044.801481061244 638.800730018278 L1046.23278305876 636.1691656590865 L1046.1958085680053 625.7370862464995 L1041.3185813330747 596.8827012400816 L1051.0920095547735 596.1204690299692 L1051.2355289596853 586.4065817442461 L1052.7519695872506 586.6159415246257 L1053.1956634763483 590.0124482529009 L1054.844920366766 589.6702906830287 L1055.5070556552164 592.8865718398501 L1057.068254876849 590.6750821208971 L1059.5163553702332 591.0490840586608 L1058.9043302468926 586.3598315020281 L1055.9702098026173 585.2784780732763 L1055.4574319965686 579.8730660090041 L1053.6855754788994 581.3135155011842 L1051.3698047419166 579.5058394686621 L1050.6867496758023 565.2768273400852 L1050.6867496758023 565.2768273400852 Z" key="131002" id="mapid-131002-outline"></path>
				<text x="1001.9451272333099" y="506.33866146480796" ox="1001.9451272333099" oy="506.33866146480796" fill="#1a6bbc" stroke="none" stroke-width="0" text-anchor="middle" alignment-baseline="middle" font-family="Microsoft YaHei" key="131002">安次区</text>
			</g>
			<g>
				<path autoSize="true" d="M989.8734425070979 413.4015513196355 L991.731410667715 416.36172245385205 L994.7428856387087 415.79326661004234 L998.3809809267732 418.69652440590653 L997.9187997922891 425.490215402202 L1007.0125784930678 427.4415298601034 L1008.852059408302 426.648130821839 L1008.8656815891081 423.3268310049589 L1020.9743408060822 419.55225710046216 L1021.2268376574466 417.2757235662466 L1024.6912501402403 416.41050531530163 L1022.0889270998705 404.99396065711335 L1019.7167216138369 403.9383537385729 L1022.2752590730342 404.03117668327286 L1021.1742949600557 397.62097318113047 L1026.999236773896 395.73131483978614 L1025.5557721149416 382.54232621567644 L1023.1397810477465 382.56332994769036 L1024.5341085545078 386.0750184321623 L1016.5695113412439 384.7660116499883 L1013.4052733426397 381.1445617272584 L1011.9530515674523 373.47481184413664 L1010.3086597416077 373.6780737668305 L1007.862991780512 369.23205797769515 L1011.7832608138342 362.14905751142214 L1016.2644717924813 360.25872163033455 L1018.5782965036378 356.9902699133527 L1017.7541545648855 352.96636138368376 L1019.8728901866452 352.3592857745607 L1014.372448179849 346.1408260194985 L1013.1221265844651 339.90610531061975 L1020.7602779648514 335.9438528975006 L1022.0354113895664 333.35429600233147 L1020.3963711347533 326.0646459146519 L1010.5022893116329 329.29109016760594 L1010.242494863407 333.2540201204665 L1007.6139004743491 334.04267638053534 L1008.3241999020793 338.80103799088465 L1004.6282103455997 340.5490905260849 L1002.1402163227067 332.92880104415235 L996.6811273647909 326.3424372090067 L978.1330686783331 325.29157306865636 L968.6145698402906 326.9169909104967 L968.6612744601953 330.06009777514373 L979.5692357404332 340.956291911225 L967.4634955622023 344.29453022165944 L963.1102357818381 338.9663576880139 L939.766196438828 331.8921652383924 L937.9004441748912 339.12964476591515 L933.0280820045409 341.7164915021094 L922.7078205247817 330.94970745681894 L918.4426184131953 328.680626859772 L918.1030369059627 321.737877120162 L906.9382002162492 320.89976045890216 L906.8739813638822 322.9730320704166 L903.2499947630822 323.1132827970814 L901.1497463867017 330.1468228621652 L901.8123681816105 333.9349475615036 L894.8455957123697 337.637024713571 L880.148722142294 338.54696058751324 L881.4462348640482 354.60600756011263 L871.1444606296682 366.71567537469673 L857.4872513589507 370.9076137604625 L857.1447508129713 377.6017064146399 L840.3451963342377 384.67793148348755 L839.0146011733887 391.8198779073373 L836.5810958737238 393.26100493926424 L832.1855100315697 393.26981295591577 L828.7848298946956 388.8251522462597 L823.0119442717842 388.3373236317857 L829.7811951193507 406.46015665950654 L839.5799216768246 413.721350078009 L843.1825019935022 420.48658440512736 L843.99058921916 429.8562815017485 L846.8001640103503 433.41810792715296 L844.5233137899486 440.5742826855949 L847.9979429083432 442.11297544041554 L856.502075782817 432.58066880564 L865.8965154742364 431.76016817768505 L879.0224596935295 420.7244008546877 L887.1077105082222 423.28075830248235 L890.2811921295106 422.2508978941478 L891.9066102035176 418.6565495611103 L900.350416277277 419.3259588265282 L903.8902372609555 425.1832898989287 L907.4475724770928 422.3139090901823 L906.0527584638767 426.7775409126243 L908.4468567404911 430.2844866188989 L917.0701836970147 430.0819022359465 L918.2436372721422 426.1697877637562 L916.6478960920358 422.6025410204111 L925.5485317292405 412.5641121981207 L924.5769783339201 403.43358663054096 L927.9037094892701 400.8636783878992 L936.703638289815 403.902444132229 L940.4915775667396 407.751547408383 L941.2116071236123 411.37435241059575 L942.6360980307327 408.5801785132444 L945.7244410219901 410.33907168432233 L947.4272136227119 408.2976444406959 L945.7215219832433 405.6904715122291 L947.3464535507956 401.51005130207704 L943.3269372001741 399.35750754070796 L942.0430466592261 393.99545801994464 L938.708531400549 393.8931495188572 L937.5798364195034 391.4634920028784 L937.2927976096653 394.0442408813924 L933.6872982542482 394.1208028722758 L932.8183977214176 387.75057421492966 L924.7248762969539 387.3840252143327 L921.4356061388098 383.0274446711792 L924.7959062397313 371.78909296523125 L929.8691955769682 375.9674805561499 L930.4826802196803 373.0642227602857 L935.7009484812152 369.390602277399 L989.8734425070979 413.4015513196355 L989.8734425070979 413.4015513196355 Z" key="131003" id="mapid-131003-outline"></path>
				<text x="936.8571310771113" y="381.5063679496561" ox="936.8571310771113" oy="381.5063679496561" fill="#1a6bbc" stroke="none" stroke-width="0" text-anchor="middle" alignment-baseline="middle" font-family="Microsoft YaHei" key="131003">广阳区</text>
			</g>
			<g>
				<path autoSize="true" d="M815.1358912337528 573.5177432259898 L816.7948782533094 570.166631660446 L814.7826875457176 541.1936771991259 L817.9435199991167 537.3682878139571 L810.7889560373296 530.9120116093363 L810.6566262809356 522.2618617190656 L813.9395718551314 517.2799119937499 L825.4877756332353 507.75370321665287 L837.6514100798922 490.21423190707173 L849.0035517556826 480.9509085499958 L853.7722880506299 474.7656482423081 L855.4672765480354 468.17386408922175 L847.484192089385 463.37349501484823 L850.3472825908866 447.71216387099776 L849.4165957379737 444.55821637046756 L844.5233137899486 440.5742826855949 L840.1510802577541 444.0697102162503 L838.2678137613548 443.24785450881063 L834.3835462058705 445.2770860370747 L829.0582465237239 439.18261605485895 L816.2529100598222 436.2143144437323 L813.6603171486131 438.16224120291736 L808.3676133991066 436.10658562470235 L802.9999876551665 437.1499968278822 L802.4833177974615 439.65418371551823 L792.847084396737 439.58710728102596 L791.6828744442973 436.46568168813064 L783.5280532062061 429.768201335246 L780.2762440452789 421.86741039999106 L772.937294136158 413.0424552561999 L760.8009040511133 409.8783446595389 L759.329708524092 407.57538707537424 L753.5261729943704 405.780584297956 L748.9072806882905 402.3867877286466 L744.5656970628988 393.4561363850589 L736.1262695472651 396.07279486991865 L726.6393936289423 395.7130212667398 L723.2416325308077 400.33451984914245 L717.7309738884105 401.9775537242858 L713.7863795322191 406.1288397255121 L696.3524206330985 430.56498807222306 L689.5856023178239 450.8213937485252 L689.4391638741617 469.9286920218492 L686.8903565441033 481.23208754306506 L682.2023803210795 488.44517563985755 L681.9508564826356 500.7452321220353 L720.0808000774123 504.4581499099786 L724.2934594916005 512.5256156218493 L725.8892006717069 523.2165152160032 L724.3100007111498 559.9208756770022 L721.8361153755286 565.4529876730867 L715.8963580377458 596.475499854947 L717.236683327741 598.8990595132454 L727.8649033950096 602.4717265745257 L725.1633330373406 623.081130456585 L730.291111097813 642.4194697820385 L745.3606486142126 645.1438570859264 L748.1420060308737 650.7843754407859 L753.186104980683 654.1192260525113 L767.6621046191212 647.36754252024 L772.0027152315924 640.4478291318719 L769.27730605752 620.7869808890719 L771.1260305954456 616.5435494828816 L787.5840575411275 610.1739983652824 L789.0717942877018 606.3215073904175 L801.1614797528382 593.6813259575938 L806.9295003111802 594.469304677923 L808.9820710547319 600.9709760452733 L811.4301715481124 599.6761975976879 L812.5593530356309 597.7553724281988 L808.5700000853649 589.0591498354497 L810.844904279933 580.0194145933456 L815.1358912337528 573.5177432259898 L815.1358912337528 573.5177432259898 Z" key="131022" id="mapid-131022-outline"></path>
				<text x="768.3390783545219" y="523.7876812187824" ox="768.3390783545219" oy="523.7876812187824" fill="#1a6bbc" stroke="none" stroke-width="0" text-anchor="middle" alignment-baseline="middle" font-family="Microsoft YaHei" key="131022">固安县</text>
			</g>
			<g>
				<path autoSize="true" d="M989.8612798456597 601.1078390732237 L990.9661360103055 597.7384339346409 L989.8646853908649 589.307129381139 L981.0414042803677 589.5097137641005 L977.7832705355031 588.0184487912411 L976.5543552242343 585.0772487698032 L963.7154498147756 583.556849588027 L961.0873419321797 581.4639293239816 L962.4359378319496 576.1791193338468 L960.6947312210941 559.8246650335932 L963.175427647122 549.2895995801737 L961.0430698445562 540.1509435356857 L961.0766387901167 528.6273475982161 L958.3089035542544 523.4462011886499 L959.8705892823455 516.2405660290187 L955.4078655490775 513.2085756821125 L954.7471897799951 509.217189060073 L954.3443624333086 487.72427335402426 L956.6285102505681 479.07683362272473 L955.3572688775093 476.11462986927836 L947.9740468807795 471.48093557151697 L949.0930117326789 468.2504260801088 L939.2840685395968 459.4728987182789 L938.3032715215777 451.9732113104801 L935.9262009709673 447.9547230987482 L930.647119402267 447.06443587733156 L927.8273279754721 444.5297597012941 L927.2410876943613 446.74937989715363 L923.521259321471 439.9224894534764 L919.4487137669967 439.2767940790436 L918.904313041221 430.5209479889727 L912.6030814056285 429.33864113861455 L908.9698511821407 430.6117383144392 L906.0527584638767 426.7775409126243 L907.4475724770928 422.3139090901823 L903.8902372609555 425.1832898989287 L900.350416277277 419.3259588265282 L891.9066102035176 418.6565495611103 L890.2811921295106 422.2508978941478 L887.1077105082222 423.28075830248235 L878.3131332787161 420.9452788106846 L865.8965154742364 431.76016817768505 L859.4181954881715 431.5657142716391 L855.2770525232081 433.45266245401217 L847.9979429083432 442.11297544041554 L850.4299886886365 446.668075128071 L847.484192089385 463.37349501484823 L855.4672765480354 468.17386408922175 L853.7722880506299 474.7656482423081 L849.0035517556826 480.9509085499958 L837.6514100798922 490.21423190707173 L825.4877756332353 507.75370321665287 L813.9395718551314 517.2799119937499 L810.6566262809356 522.2618617190656 L810.7889560373296 530.9120116093363 L817.9435199991167 537.3682878139571 L814.7826875457176 541.1936771991259 L816.7948782533094 570.166631660446 L810.844904279933 580.0194145933456 L808.5700000853649 589.0591498354497 L812.5593530356309 597.7553724281988 L818.8056094415406 601.4825185507325 L825.6147538186015 599.8571007088922 L828.8441836824932 605.4786479509658 L843.4962986584869 618.1411881952863 L848.9008988931855 618.4765703677385 L852.0651368917825 611.543983724263 L856.572619219136 611.1022278122709 L860.2452564656669 615.9920321326317 L863.4634966810336 625.0236368978276 L868.8374470089111 626.3658431273761 L874.8472612765581 635.5600574307318 L883.937147925677 639.8719203508954 L885.3134746935139 645.7827770629392 L891.2128519953403 649.652206531362 L900.8125974117611 646.6507054728609 L918.1570391227324 656.7955080346983 L916.9699633668024 644.2610228016765 L914.8497682256675 643.0604223782775 L916.1069009114581 635.4889157577891 L943.3522355359564 630.5665895297934 L950.0567810246866 631.801066940312 L956.9598211480225 628.9709834366204 L959.5893885500009 624.9856946722612 L960.2646595127953 618.2163951066868 L963.2372139672043 615.0719331625514 L966.1557662048435 614.3164763498589 L967.7038297521322 618.7204846749755 L969.7675901442053 619.7923525473343 L977.167353360499 616.9873380141071 L989.8612798456597 601.1078390732237 L989.8612798456597 601.1078390732237 Z" key="131023" id="mapid-131023-outline"></path>
				<text x="889.493294921831" y="537.7260287979025" ox="889.493294921831" oy="537.7260287979025" fill="#1a6bbc" stroke="none" stroke-width="0" text-anchor="middle" alignment-baseline="middle" font-family="Microsoft YaHei" key="131023">永清县</text>
			</g>
			<g>
				<path autoSize="true" d="M1193.443798975266 235.14965313045286 L1201.3772597752686 233.94092223014195 L1202.5161713919224 231.34865517600338 L1205.4819147559247 231.68810258690792 L1206.4476300737624 228.57548501066594 L1211.9451530418191 225.73320579160827 L1199.1840886655336 212.96903458593988 L1198.3803799979905 204.27281199319623 L1194.9865109515267 201.49693166888756 L1188.2153140781302 203.45163382549435 L1187.9764394075755 196.57189528192248 L1189.702564318246 196.90185713643405 L1186.9226664209564 188.1568516822408 L1188.942641231868 186.97996514981787 L1185.7234280035882 184.36330666495815 L1181.5229312508272 182.53869213887447 L1173.1326408873756 187.772686648339 L1167.6409559968124 188.20089176549118 L1164.7039165137976 194.2282853132201 L1151.7574931772651 193.65711931043552 L1143.630889313692 196.3218831170052 L1135.7704044823004 180.89227056502568 L1120.2780928544562 181.6524701559174 L1119.1532899250706 174.30251903116732 L1113.4733270355064 172.0517320071649 L1109.7199297170628 167.3055661121707 L1098.571147740433 169.23181159960404 L1094.6927182624422 166.34616983703745 L1076.9323135304367 164.10690098865416 L1070.7488164575225 168.67013115321606 L1076.695384885712 180.73846904351558 L1076.7114395988028 192.00392233916136 L1081.1629736835494 197.51096536478508 L1079.759889060555 200.06867789206444 L1080.637060203153 204.28975048674874 L1083.0321314926841 203.66641392380916 L1088.3968381978812 212.63297487374803 L1072.6281909022618 214.83159133759364 L1068.0370294642598 225.88294207466606 L1062.6314562166444 228.6960870847979 L1067.3782997210037 235.06089542420523 L1068.6553791715523 247.36908238328942 L1062.6017793227475 251.00679325983765 L1057.8977483866329 251.30355566697108 L1054.5646926473346 257.45493898754466 L1057.4798393397687 266.2832818300467 L1065.63466057786 277.720152680502 L1069.0348542082793 276.10896317325205 L1068.411152929959 272.72126446162656 L1069.849266017889 272.3560705405107 L1070.9088770819944 264.6124688254731 L1078.7041700481022 265.0447391810794 L1080.1534727845537 266.7087767882258 L1081.1230801540514 264.66802708434443 L1087.526964652141 264.364489279782 L1088.5899812614443 269.55308862650963 L1086.4561639395106 267.1247861900174 L1084.0630386758094 272.50580682356485 L1086.967968732646 283.5795163721323 L1085.9570083142753 286.3567517759275 L1090.9471050473076 291.86989265922784 L1089.9400366805894 296.87623381526646 L1092.257266936951 305.0331347731244 L1094.1424794591803 307.0867577321151 L1097.1252505491902 303.91587173803237 L1098.6986124322611 304.56427727143637 L1100.022883009162 311.8396990245292 L1112.8311385118068 306.81303167621627 L1117.6845269303303 300.2192149039056 L1120.1408980334854 299.6846360472082 L1121.82761592112 300.0688010811082 L1121.4534924554173 301.5160259707154 L1122.8599826236095 300.36895118695793 L1147.9919331973797 310.3484340516716 L1173.6605003936056 322.9093433346425 L1178.550376796422 323.4886398143299 L1184.2298531795204 321.0196849932963 L1187.8781651031895 312.38782867606824 L1195.7474070508142 312.0063738011395 L1195.7532451283078 308.185049654423 L1197.7012169835325 307.76565255392416 L1197.6151053405883 305.84618246391983 L1193.794083624558 305.06633422050254 L1192.9650766212326 301.48824684127976 L1190.2012334370302 300.6914601043045 L1188.8526375372603 295.1017572301207 L1189.249140299995 291.30617959361007 L1191.657347263881 291.45523833692096 L1192.3851609240774 287.30937265363355 L1194.4601109646683 287.0288712003112 L1193.1567601654278 277.88343975840326 L1194.8551542080422 276.3379716061572 L1194.725256983922 265.6057420877223 L1193.554722447545 265.6267458197344 L1193.9896592204168 260.5980458521972 L1191.9623868126364 260.98017826686555 L1191.5556674142936 258.18397175028986 L1193.992091752698 257.2164449982465 L1193.797002663301 255.73873082023601 L1192.6230625817188 253.96357669534336 L1191.9726034482446 256.9135847334255 L1188.8978826377934 253.108521540531 L1186.0746856657897 253.42696521942162 L1186.3082087653165 244.28559901596782 L1189.6252097915312 244.270693141636 L1189.6967262407597 242.54364433844603 L1192.0611476234772 243.81132119633912 L1190.3583750227517 236.25268783095635 L1193.443798975266 235.14965313045286 L1193.443798975266 235.14965313045286 Z" key="131024" id="mapid-131024-outline"></path>
				<text x="1129.7197236722423" y="243.79777040149202" ox="1129.7197236722423" oy="243.79777040149202" fill="#1a6bbc" stroke="none" stroke-width="0" text-anchor="middle" alignment-baseline="middle" font-family="Microsoft YaHei" key="131024">香河县</text>
			</g>
			<g>
				<path autoSize="true" d="M989.8690639489796 989.7866427351419 L998.4301180789662 988.0792425844847 L999.7845520562223 983.158271435972 L1005.0597415732664 977.2365740880505 L1000.1353232119691 970.232168231887 L1000.5605298556984 964.4913739951626 L996.5264183113504 955.8784887907241 L995.7557920829131 947.6328301266203 L993.448778462156 944.7004381218339 L996.2851111085074 936.5469248626905 L994.882026485513 923.8545728697081 L996.8261062890815 918.5216575578652 L994.5910956240223 910.1669149952504 L987.5659423798897 909.9670407712638 L990.3837877808546 892.9309814902281 L985.2701184076577 892.2209198402743 L985.7230559194468 889.9572595611662 L983.5576156777825 889.6936966014018 L984.5953339513107 882.8512227436531 L985.8169516657108 880.8213136756513 L987.9566070651417 881.3003342734737 L988.1857516065502 879.4133860910952 L985.558130230409 879.0807140776142 L986.4241117244892 874.6014988411025 L984.4114345104317 873.7423784478306 L987.5698344315497 868.5849459292476 L989.7727356704272 859.188824782681 L986.7009338987154 857.764636244312 L985.9497679285705 854.8667987663848 L987.7444902497336 843.7029764320869 L977.2768173134027 843.083705107605 L968.697762444499 845.7701501859228 L963.5252257899556 845.0614436154538 L960.538076141831 832.852177458748 L948.607478288246 829.0755709350233 L941.7886037820317 830.1013661049037 L938.4088434228252 843.2070173407064 L933.1458165672157 848.8319522814927 L934.6233366781853 854.2488825213859 L933.2732812590402 869.8241661179618 L926.466082907802 873.3046877742909 L926.1230958553751 876.9999895289347 L918.2455832979686 885.2226118417948 L916.1750118154887 890.9830547310466 L912.245499159475 891.0975589474983 L897.2066115498856 897.6730821467645 L896.0428881039006 903.0466498431488 L898.0939993280881 907.6342714384336 L893.2177451060816 913.9699455689224 L885.7464654405558 919.5074778829458 L877.1975739720074 921.4913142484784 L871.3230084995157 920.306297239149 L866.0249531789741 916.7702173239559 L857.1875633812233 908.8714590079217 L855.6224721079343 904.4383164738847 L847.6705240625488 909.3633528608498 L834.7309118164194 911.640563934805 L835.0860615302845 926.3479191214683 L832.1996187188306 934.5556355599965 L813.7868088275245 948.2988516933256 L806.7397627928076 948.0346111938197 L802.069787308712 954.5891306610738 L801.3444061808004 964.4351381965516 L805.0311521145995 972.657082969672 L805.1488866772743 983.7246946605555 L812.6615193916732 1005.0041853477742 L817.176785822332 1010.1995600919272 L830.526036505551 1017.4072278707845 L836.0824267549397 1024.5830512817538 L844.9261411366388 1029.3786775779336 L834.9284334381009 1051.9177146461316 L835.0602766880475 1058.7507029474855 L835.9291772208744 1061.3355170644536 L842.8351363829534 1063.1669069879626 L843.2929389593155 1073.4207934483147 L848.1755177652776 1081.6061510753498 L856.0608144260004 1087.9282744109896 L881.8193853168304 1089.6688740090212 L884.8308602878278 1088.7406445620381 L887.4794014416366 1081.7646953750536 L896.1411624082903 1080.3405068366847 L900.6700510197588 1084.543285858328 L898.3674159571201 1091.8383562639483 L901.7282025644963 1096.125827753387 L901.3151585822052 1099.8428107797808 L911.6169328165815 1100 L911.5235235767759 1093.9848021676353 L915.0545874442141 1091.7868632435311 L916.26890756176 1094.1684154378054 L923.9094914744346 1093.0870620090536 L928.9613745275565 1081.8642937171717 L924.5025428459412 1080.4272319237061 L926.7185797591774 1072.1727652429527 L938.8092382372233 1075.8206392156335 L940.9717594401445 1074.3896752798391 L943.0705482971462 1068.8182659786999 L942.2415412938208 1060.7074377233203 L945.7740646806378 1057.3495507603566 L946.8798938581931 1053.4658929573452 L944.5874754311662 1038.5092031455079 L947.0292513406057 1029.6788276837797 L970.2779354179693 998.0580479094515 L982.0922582282437 991.4222236731148 L989.8690639489796 989.7866427351419 L989.8690639489796 989.7866427351419 Z" key="131025" id="mapid-131025-outline"></path>
				<text x="900.7398646963884" y="964.5377854675098" ox="900.7398646963884" oy="964.5377854675098" fill="#1a6bbc" stroke="none" stroke-width="0" text-anchor="middle" alignment-baseline="middle" font-family="Microsoft YaHei" key="131025">大城县</text>
			</g>
			<g>
				<path autoSize="true" d="M964.7998727082086 722.9349050612836 L960.6348909268418 723.9607002311659 L953.1480430546872 730.7537136877181 L943.5035390441881 728.8173051041558 L940.43173727248 721.2627369772235 L922.275802790653 718.0457782806661 L916.2012831641878 732.3588053372896 L891.0265200221802 736.9748836017516 L888.7574539050947 734.5933314074791 L888.2320269311567 728.1126637721336 L872.8112317525483 729.0944188587655 L866.5576777497772 720.9009307548222 L865.7802404309296 717.1670092348686 L851.3635945802889 708.1435349465773 L842.1622979524327 713.8761987063917 L832.018638316702 708.4836598972252 L830.8446982351124 712.2616215004291 L826.6189031465728 713.6885201977693 L815.1091333785989 713.3565257240298 L808.6123261471475 716.8295944431902 L804.7188149689791 734.0377488187733 L791.7757971776518 749.3921544593522 L790.606722160639 753.6078067361013 L787.7178468168968 754.3043175912098 L787.8842320253134 757.2976881728046 L776.5043594814488 771.9318690672935 L772.3330531161337 771.7225092869157 L769.0287012578119 777.0723630923185 L756.348883459912 782.2596073595614 L750.3463667891265 787.5030874254171 L733.244691800377 796.7176279210416 L727.0898986084467 797.4988312439455 L717.4906396984807 795.442498125989 L723.6799748488811 805.6150798172639 L726.1027770064829 822.0711650788635 L730.7946452811702 826.477206023208 L738.2644654273099 828.5565754924046 L744.8692770922862 839.1309382508771 L745.8427765134475 847.561565264632 L757.6186653135919 854.1418312420992 L769.4947744439523 869.6378426888259 L778.5141176567595 873.0289290991641 L788.0759155695123 873.533696207196 L793.7096603456157 878.8740644562022 L823.4157446313802 891.2174834818907 L828.2161038460545 895.6167490288099 L834.7309118164194 911.640563934805 L847.6705240625488 909.3633528608498 L855.6224721079343 904.4383164738847 L857.1875633812233 908.8714590079217 L868.1412562684454 918.3888597683708 L873.3371452329447 920.976384044312 L882.0801527779658 920.966898487919 L890.7224534863235 916.0425396406954 L896.9541146985175 909.9792364866244 L898.0939993280881 907.6342714384336 L895.9407217478656 901.6041677317389 L897.2066115498856 897.6730821467645 L912.245499159475 891.0975589474983 L916.1750118154887 890.9830547310466 L918.2455832979686 885.2226118417948 L926.1230958553751 876.9999895289347 L926.466082907802 873.3046877742909 L933.2732812590402 869.8241661179618 L934.6233366781853 854.2488825213859 L933.1458165672157 848.8319522814927 L938.4088434228252 843.2070173407064 L941.7886037820317 830.1013661049037 L947.0623337797042 828.8126855150003 L960.538076141831 832.852177458748 L963.5252257899556 845.0614436154538 L968.697762444499 845.7701501859228 L976.821447269318 843.253767582928 L972.2842880480785 835.6897138996064 L976.680360396691 820.1212057004504 L976.0065489532644 814.0531597681857 L969.3457890456812 813.8797095941482 L969.4464958823555 789.5899098317786 L970.8641756990801 789.5770365766784 L970.9532063807674 784.6520001897134 L973.6791020613018 784.013757752442 L976.9873459712762 766.1815892741761 L979.6606989544089 760.137257232891 L991.9167696279656 742.3430309801952 L993.0177337409477 733.7640227628708 L991.5659984722151 732.0430718173684 L992.9773537049805 728.1248594874996 L985.2842270949222 722.6760848797148 L973.5054192560237 720.7972671742482 L964.7998727082086 722.9349050612836 L964.7998727082086 722.9349050612836 Z" key="131026" id="mapid-131026-outline"></path>
				<text x="850.1801676227842" y="814.5599594954438" ox="850.1801676227842" oy="814.5599594954438" fill="#1a6bbc" stroke="none" stroke-width="0" text-anchor="middle" alignment-baseline="middle" font-family="Microsoft YaHei" key="131026">文安县</text>
			</g>
			<g>
				<path autoSize="true" d="M1137.1768946505 178.72007815113102 L1141.3238756929459 163.88670057239506 L1141.999633162206 154.93640057628 L1139.3525515277652 144.38236401007634 L1129.6910197912584 135.8175841273369 L1116.5047487712545 134.16032191761224 L1114.521261944643 131.81942210787565 L1107.173554919289 129.6756863631581 L1107.82693309151 120.15625298348823 L1096.397923395456 118.9251632716805 L1088.0100655642927 90.8289452369263 L1084.9426423506957 88.36947597228391 L1074.6384355840382 88.05509753184378 L1064.9618221473502 92.86901740106805 L1061.579629255859 102.60594103802578 L1056.3024937129885 108.67195435106987 L1055.8899362371521 122.99175680511871 L1048.1325907747123 126.71619276868114 L1045.5691882509382 135.23151225022957 L1024.0213307484628 140.29341166513768 L1039.6824601170083 153.4552986995568 L1043.1283853544192 161.15147263263134 L1056.7486201343709 170.93379143232414 L1060.771542030201 178.190242072631 L1066.1245725804147 180.58873276046506 L1066.7244350423243 177.60620281474803 L1063.9683759614418 171.66621189377656 L1064.8027345357987 166.6856172479438 L1066.6461075026964 165.54057508341612 L1070.7488164575225 168.67013115321606 L1076.9323135304367 164.10690098865416 L1094.6927182624422 166.34616983703745 L1098.571147740433 169.23181159960404 L1109.7199297170628 167.3055661121707 L1113.4733270355064 172.0517320071649 L1119.1532899250706 174.30251903116732 L1120.2780928544562 181.6524701559174 L1135.7704044823004 180.89227056502568 L1137.1768946505 178.72007815113102 L1137.1768946505 178.72007815113102 Z" key="131028" id="mapid-131028-outline"></path>
				<text x="1088.9118052829836" y="134.85378384387695" ox="1088.9118052829836" oy="134.85378384387695" fill="#1a6bbc" stroke="none" stroke-width="0" text-anchor="middle" alignment-baseline="middle" font-family="Microsoft YaHei" key="131028">大厂回族自治县</text>
			</g>
			<g>
				<path autoSize="true" d="M929.075703545026 719.5898913534256 L940.43173727248 721.2627369772235 L942.905622608112 728.2542695782831 L950.0451048697141 730.3519326205223 L954.8746544718233 730.5518068445108 L960.6348909268418 723.9607002311659 L973.5054192560237 720.7972671742482 L985.2842270949222 722.6760848797148 L992.9773537049805 728.1248594874996 L996.173701129781 724.6721169606062 L995.7319532664987 721.9287585439288 L990.5491999763581 718.3174717173333 L992.9846513018492 708.7248640454945 L1003.8366643394875 709.7032314334119 L1005.6347922058594 703.3824631772568 L1007.947157397637 703.007783699748 L1008.0989474123235 701.0815382123183 L1012.802978348438 702.5003064327466 L1012.2108999898483 704.940804584603 L1006.9819285862504 705.5350069386259 L1006.9405755373773 710.5867432574014 L1008.2322501816416 707.6055683911709 L1012.3164718910957 705.7342036228656 L1016.1126817777913 705.4631877259362 L1015.0165827293858 708.7431576185336 L1019.8354291894284 709.5196181632382 L1034.5050583978882 706.9937500038504 L1034.9409681836805 709.6984886552127 L1043.6795971705906 708.6245881636278 L1043.868848182501 706.5743529033516 L1048.7699142338388 705.8344795047342 L1048.3918987164798 702.4339075379976 L1049.9633145737243 701.8092158955769 L1048.2279460403552 695.5507812957185 L1054.0679695543804 694.4301305619101 L1054.4484176040241 690.0728724790151 L1056.3555229168342 690.5390198217337 L1058.3390097434494 685.2894418981941 L1059.9970237500966 685.7528790819451 L1064.9331182663664 672.5408541065972 L1072.2963934983563 668.7053016252976 L1074.1183601811317 664.2660612335803 L1076.4934847059085 663.1305046254402 L1073.0577761041022 663.4679194171204 L1072.0842766829483 659.8972849750662 L1073.6260156462886 659.431137632344 L1068.8344135478546 641.7981658383251 L1059.8393956579166 637.8386235841735 L1037.1555455775306 639.0270282922102 L1029.9820078639168 641.582708200267 L1020.8546602175811 636.715940231139 L1015.7190980537889 643.2867206522114 L1011.145450848253 642.9425304631113 L1003.5102185066098 636.8107957950651 L994.2116205872844 633.395317954004 L991.8720110338909 630.0604673422768 L976.8574487471706 628.2758276609911 L977.1104321049897 625.4626826508575 L980.0640128075574 623.305396111291 L979.932656064073 614.5407420045722 L969.7675901442053 619.7923525473343 L965.5505521719024 613.9526375082296 L960.2646595127953 618.2163951066868 L958.4543689849997 627.8584631797185 L951.3528342270693 631.5009168344604 L943.3522355359564 630.5665895297934 L916.1069009114581 635.4889157577891 L914.8497682256675 643.0604223782775 L916.9699633668024 644.2610228016765 L918.1570391227324 656.7955080346983 L900.8125974117611 646.6507054728609 L891.2128519953403 649.652206531362 L885.3134746935139 645.7827770629392 L883.937147925677 639.8719203508954 L874.8472612765581 635.5600574307318 L868.8374470089111 626.3658431273761 L863.4634966810336 625.0236368978276 L860.2452564656669 615.9920321326317 L856.572619219136 611.1022278122709 L852.0651368917825 611.543983724263 L848.9008988931855 618.4765703677385 L843.4962986584869 618.1411881952863 L828.8441836824932 605.4786479509658 L825.6147538186015 599.8571007088922 L818.8056094415406 601.4825185507325 L812.5593530356309 597.7553724281988 L808.9820710547319 600.9709760452733 L805.3717066347454 593.4353790311307 L798.7892742668009 595.0187894089468 L786.0262638646927 611.3054897349648 L771.1260305954456 616.5435494828816 L769.27730605752 620.7869808890719 L771.9331448081939 637.1448228880308 L771.2520357679059 642.9045882375431 L767.6621046191212 647.36754252024 L753.186104980683 654.1192260525113 L753.2756221688323 661.1087260343429 L760.6783044238691 662.875072142584 L762.3504271177771 669.5434182865501 L780.6858824823685 677.4645354140812 L779.0770056279107 699.9270104913976 L776.4537628098806 708.0961071646143 L777.1188171370814 715.729947441394 L773.1576815613407 719.4401550703678 L765.6615900664983 742.067272305072 L787.5650837892936 754.7670772352194 L790.606722160639 753.6078067361013 L791.7757971776518 749.3921544593522 L804.7188149689791 734.0377488187733 L808.6123261471475 716.8295944431902 L815.3626032428729 713.3057102433559 L830.4545200563189 712.5529635896291 L831.6454878639124 708.5744502226971 L841.9404510078821 713.8612928320599 L850.4183125336567 708.040548905743 L858.0228949684897 711.2263407741593 L865.7802404309296 717.1670092348686 L866.5576777497772 720.9009307548222 L872.8112317525483 729.0944188587655 L888.6144210066377 728.4006181626228 L888.7574539050947 734.5933314074791 L891.0265200221802 736.9748836017516 L915.5532565629946 732.7253543378847 L922.275802790653 718.0457782806661 L929.075703545026 719.5898913534256 L929.075703545026 719.5898913534256 Z" key="131081" id="mapid-131081-outline"></path>
				<text x="911.1737254339387" y="674.1012281331714" ox="911.1737254339387" oy="674.1012281331714" fill="#1a6bbc" stroke="none" stroke-width="0" text-anchor="middle" alignment-baseline="middle" font-family="Microsoft YaHei" key="131081">霸州市</text>
			</g>
			<g>
				<path autoSize="true" d="M1214.0128054855522 9.105456597109878 L1216.304737406128 7.6521338498241676 L1214.3591980831807 4.231913230563805 L1215.1487980634665 0 L1201.5864575519263 7.872334266083271 L1197.5518595011235 16.507578282018585 L1190.1092837165997 14.090116481398582 L1187.3590627131962 18.77801395855022 L1177.7481276482504 21.98345447949214 L1166.649942343196 16.367327555359225 L1155.0657370872432 18.00087587410235 L1151.4286148120955 21.650782466007513 L1138.616953764249 25.669270677743043 L1137.89497818155 28.067083825832015 L1130.6504105251515 31.801005345791054 L1123.7678036730285 43.418101767700136 L1114.412284498194 43.328666521712876 L1100.6976674655089 38.848096205712864 L1098.4558457100393 37.43881354167752 L1096.893186969035 32.79021336958249 L1093.2336853968518 30.690517708115294 L1085.8149484287278 37.49233918132086 L1083.6071821252772 32.513099614972816 L1081.6645618410766 33.158794989411035 L1077.815809256983 28.745978647641095 L1073.9179195206925 33.99623411092216 L1071.7179373205654 33.75706258187893 L1070.0005695261207 29.949289230014983 L1067.7368549800703 29.830719775105536 L1058.4907997581467 34.38785208198533 L1053.4106993304995 34.40750073451636 L1049.5780014594966 37.94425818945092 L1041.452857115306 29.04545121375304 L1038.6462013628516 28.5068071186015 L1038.392731498574 30.19862385518718 L1025.728968413765 33.64120328594436 L1025.6195044608612 46.50023005553885 L1017.2243490328365 42.89436354688223 L1015.0311779231015 45.70547593779338 L1007.0403093611385 42.11180514449734 L1000.2550038004811 56.05286288258685 L1002.4053623419641 70.13891412553676 L998.6670467236909 75.19132798405371 L993.1223326292784 91.47599569084923 L994.8586741755571 94.19631775628477 L995.94698912065 93.05872852892207 L1000.4306326315818 95.0134306855307 L1001.896963094041 92.34256902128254 L1004.044889103232 95.14826109424939 L1003.4854066772823 98.2696866871429 L1006.4248786925855 105.31135722913314 L1005.1706650455417 121.05467068180951 L1006.6515907017165 134.49570409006265 L1010.199682295166 143.4568447220572 L1016.3904769649344 140.80359909111212 L1044.5869317135512 135.9998423180259 L1048.1325907747123 126.71619276868114 L1055.8899362371521 122.99175680511871 L1056.3024937129885 108.67195435106987 L1061.579629255859 102.60594103802578 L1064.9618221473502 92.86901740106805 L1074.6384355840382 88.05509753184378 L1084.9426423506957 88.36947597228391 L1088.0100655642927 90.8289452369263 L1096.397923395456 118.9251632716805 L1107.82693309151 120.15625298348823 L1107.173554919289 129.6756863631581 L1114.521261944643 131.81942210787565 L1116.5047487712545 134.16032191761224 L1129.6910197912584 135.8175841273369 L1139.3525515277652 144.38236401007634 L1141.9276302065118 153.14566303731226 L1141.3238756929459 163.88670057239506 L1135.7704044823004 180.89227056502568 L1143.630889313692 196.3218831170052 L1151.7574931772651 193.65711931043552 L1164.7039165137976 194.2282853132201 L1166.9330891013742 188.58370171990646 L1173.1326408873756 187.772686648339 L1181.5229312508272 182.53869213887447 L1193.033674031718 188.31268582297162 L1192.9675091535173 185.24139817101423 L1204.6777195819268 183.35648260786184 L1208.985734261758 177.6136557519094 L1209.4425638252105 179.01413039930048 L1212.4559848220306 177.35483557034604 L1212.9746007055692 179.7993989606548 L1218.9513325341068 180.09683890753695 L1218.8467336457798 182.43773871726808 L1226.1973597098695 177.7227396504295 L1236.6178415198483 180.474906083753 L1234.036438257146 177.66311615310042 L1235.710506976884 176.30668158896697 L1235.8759191723875 172.07680097763114 L1238.0350348301 171.03948763212975 L1232.0534379369929 159.49759812161574 L1228.1793870171132 159.98136149763195 L1226.9850136643217 163.10956248795083 L1224.1900340668471 162.06818390399712 L1222.3792570325932 165.00464114723763 L1217.5881414406103 162.31480837020172 L1215.0437126686738 162.8703909589076 L1213.9845881110232 160.36755915076174 L1205.938257812919 159.36615541160245 L1202.5550919085108 156.07331226390124 L1199.7732479853876 157.9067348066328 L1198.482059847578 153.6538178440569 L1196.356513135419 156.38362546588723 L1192.7359320798241 155.49808102266434 L1196.452841413975 150.911814506866 L1194.3311867534685 148.6901616917803 L1191.785298462164 152.00333103174853 L1190.5150301020221 149.0479026757257 L1186.8078508970211 147.0268016243681 L1188.579707414683 140.44043778922241 L1183.5628528265006 134.776205543385 L1188.7947432688343 127.34427210981448 L1182.4998362171864 126.08675834806127 L1180.923555295376 120.84192320271723 L1177.4713054740205 119.32897695810789 L1184.3651019746649 116.77532966927902 L1182.6204898186115 111.06570226070471 L1184.7426309855728 108.76884253422213 L1187.9506545653312 109.41182774968911 L1185.0768609217703 103.20759632921363 L1192.2309383770917 95.52429565124476 L1191.3284688987114 90.90008690986724 L1198.029122335789 89.88648745535284 L1198.4650321215704 81.17197128956286 L1205.6035413702666 78.3689893755618 L1207.2995028805817 60.93995704398003 L1203.0649506758164 46.606603795084084 L1202.9282423612967 34.6066974187579 L1200.950107105713 28.789341191151834 L1204.347868203844 27.351601857937567 L1207.6935731110352 21.29575164102971 L1210.7327789500996 22.51464563747686 L1219.9000201259405 21.041674237660118 L1214.0128054855522 9.105456597109878 L1214.0128054855522 9.105456597109878 Z" key="131082" id="mapid-131082-outline"></path>
				<text x="1094.560875012503" y="98.16094155850442" ox="1094.560875012503" oy="98.16094155850442" fill="#1a6bbc" stroke="none" stroke-width="0" text-anchor="middle" alignment-baseline="middle" font-family="Microsoft YaHei" key="131082">三河市</text>
			</g>
		</g>
		<g class="layer" fill="#52a3f5" stroke="#b1d9fc" stroke-width="1" font-size="11" font-family="SimSun">
			<circle id="mapid-131000-circle" r="4" cx="957.6271180170079" cy="379.02931639658345" fill="#ffcd7a" data-courtname="河北省廊坊市中级人民法院"></circle>
			<circle id="mapid-131082-circle" r="4" cx="1135.1127058700295" cy="73.02933130134988" fill="#ffcd7a" data-courtname="三河市人民法院"></circle>
			<circle id="mapid-131026-circle" r="4" cx="840.7835745370248" cy="835.4478514659204" fill="#ffcd7a" data-courtname="廊坊市文安县人民法院"></circle>
			<circle id="mapid-131081-circle" r="4" cx="820.8000064187145" cy="657.5222808392373" fill="#ffcd7a" data-courtname="河北省霸州市人民法院"></circle>
			<circle id="mapid-131023-circle" r="4" cx="868.6973401938121" cy="525.0646562296388" fill="#ffcd7a" data-courtname="河北省永清县人民法院"></circle>
			<circle id="mapid-131024-circle" r="4" cx="1115.406652711139" cy="225.0216054942921" fill="#ffcd7a" data-courtname="香河县人民法院"></circle>
			<circle id="mapid-131022-circle" r="4" cx="771.465276267274" cy="443.7404330210702" fill="#ffcd7a" data-courtname="河北省廊坊市固安县人民法院"></circle>
			<circle id="mapid-131028-circle" r="4" cx="1100.1826628026429" cy="143.3926602534866" fill="#ffcd7a" data-courtname="大厂回族自治县人民法院"></circle>
			<circle id="mapid-131025-circle" r="4" cx="935.4348367466446" cy="951.447500792412" fill="#ffcd7a" data-courtname="大城县人民法院"></circle>
			<circle id="mapid-131003-circle" r="4" cx="965.9713154305246" cy="390.9291090981278" fill="#ffcd7a" data-courtname="廊坊市安次区人民法院"></circle>
			<circle id="mapid-131003-circle" r="4" cx="965.9713154305246" cy="390.9291090981278" fill="#ffcd7a" data-courtname="廊坊市广阳区人民法院"></circle>
			<circle id="mapid-131003-circle" r="4" cx="999.069387563919" cy="355.5172985135396" fill="#ffcd7a" data-courtname="廊坊经济技术开发区人民法院"></circle>
		</g>
	</g>
</svg>