<?xml version="1.0" encoding="utf-8"?>
<!-- Generator: Adobe Illustrator 16.0.0, SVG Export Plug-In . SVG Version: 6.00 Build 0)  -->
<!DOCTYPE svg PUBLIC "-//W3C//DTD SVG 1.1//EN" "http://www.w3.org/Graphics/SVG/1.1/DTD/svg11.dtd">
<svg width="1920" height="1100" version="1.1" id="svgMap" viewBox="-190 0 1800 1050" xmlns="http://www.w3.org/2000/svg" xmlns:xlink="http://www.w3.org/1999/xlink">
	<g id="perspective" transform="scale(1,1) translate(0, 0)">
		<g class="layer" fill="#52a3f5" stroke="#b1d9fc" stroke-width="1" font-size="11" font-family="SimSun" id="svgMapBj">
			<path autoSize="true" d="M1215.951603410802 510.22236975919805 L1208.1517035172183 510.4091279213135 L1206.7966785677781 515.6485770565359 L1203.5655678685544 515.9756361265136 L1204.3174699453702 519.2025570072728 L1201.2177919960413 519.3781654283684 L1201.520687774988 525.6433907376031 L1197.5997219316414 525.1983302418121 L1193.2437603881262 530.7759881880302 L1202.5347881802809 531.1355673359903 L1205.852631151014 527.0027299971935 L1207.1976485306586 537.7826712752285 L1202.0023854675092 542.1134165171607 L1199.1202053682537 556.7056400796009 L1192.7347086715272 561.1896942605872 L1192.760061181656 565.9209010342202 L1189.2293905600782 569.2398072784181 L1190.3335590934657 573.0381523865508 L1186.666118351448 573.0604518685959 L1187.6922278404854 575.110145926461 L1179.9697198199246 580.5326366434529 L1175.3722422588398 577.2518253477556 L1168.3709464344247 579.6350824911897 L1164.562065372702 574.4485946258264 L1164.1063873616476 578.8490257491412 L1162.0441608137808 577.1254616161696 L1159.5042396013268 581.7265880778868 L1154.7986802865198 579.7856039949893 L1148.878869170625 582.1539948170557 L1148.1022817549965 578.511746083228 L1136.4981709989333 585.0585023532713 L1138.2348179429973 587.8580164948617 L1136.1312267733374 590.275652006445 L1130.4455927905146 592.1144301299737 L1132.0087751915635 601.4802125883944 L1138.9667048802366 601.5954265789551 L1136.8804601648771 606.9696017515216 L1139.7392892679454 607.520584787022 L1138.2701780229181 610.2169638241558 L1140.6473094334724 611.4750262694633 L1136.628269406192 613.2599139780596 L1135.8203249385551 629.1863898827942 L1132.321678540302 633.4260789063774 L1126.554649656533 635.0028381158954 L1118.639996296035 649.4928557189705 L1123.197443577963 649.4473276097979 L1131.26020897134 659.4430704359565 L1132.3603744768188 663.8063357558658 L1129.4748585209782 670.7814279101713 L1131.4109896895025 678.2731247318188 L1128.5568307856702 682.4514901797847 L1134.940993139764 690.6623452973454 L1137.6090112455167 689.2165955448363 L1138.6711479857986 694.8379233100513 L1143.4981324807086 693.0790516638481 L1140.861471426957 698.2562480783618 L1147.816732430343 698.8025853884355 L1151.1265693452515 688.313466522055 L1169.6339017417995 672.3786283115551 L1173.8657694199283 673.0420379023599 L1251.971515766876 786.2007595338728 L1322.2393334550325 712.7769274692455 L1296.2703570237718 624.9541340198866 L1292.455471420184 617.900993678435 L1292.2960174748732 609.0007129076821 L1289.2250278922766 605.144760804269 L1290.8555945965745 594.6314841656767 L1281.3897679187685 598.140865152327 L1273.9374642825278 584.3114697047986 L1269.2145585134094 582.9326183984249 L1270.7984232253584 579.2281169438866 L1265.1027816727474 581.301039628881 L1265.1648286054333 577.8381158964894 L1261.1791471441175 577.2508962026659 L1260.2317638707573 574.3789087444384 L1253.8522717158994 578.632534944305 L1244.1475977057962 576.4100199006007 L1239.3206132108717 578.7858438833518 L1226.3307876246836 571.6555844998293 L1227.8686175156072 567.7141510485799 L1234.4395878390897 566.742265289502 L1234.0072608242044 559.8322132911671 L1238.0016155126832 554.0863800845382 L1236.0081076106944 551.5526014373045 L1238.914305877439 548.5598251179999 L1235.4003145388378 549.7732885992209 L1236.0274555789547 543.1763584945802 L1233.368777871663 537.3589811163947 L1237.6533520840167 537.9907997743012 L1240.6089210283862 543.4792597923424 L1244.8774831290793 544.2913325967766 L1243.0320872599768 531.7980477817073 L1248.680359648919 533.3032628196706 L1251.130879904591 530.2519503600015 L1247.336676611907 526.3430369867328 L1254.9337564244343 523.0380679188183 L1261.9250446790647 527.3325765024256 L1266.2910137923645 524.8461842545348 L1268.941685443824 517.8961790175399 L1265.2515608769536 512.7041162816604 L1267.5986695781394 504.3436688053898 L1266.4057672592826 500.3074625554509 L1263.0245430132236 497.1901807947397 L1260.0683068975304 502.6284669781853 L1261.6007994178908 509.2337593885877 L1258.5985284811832 511.73873453818123 L1246.8463056922446 512.6595173175756 L1243.4664157888146 516.1856229157547 L1236.5204951839041 508.72272959174734 L1233.6883529335937 513.3517304060224 L1230.423883668409 512.1540623912497 L1229.9195021510386 514.8290710914262 L1223.3431944570002 518.7166141277339 L1221.8020287094769 513.2132877883323 L1219.0879757826879 513.2086420629057 L1218.4574988859895 509.5180777846508 L1215.951603410802 510.22236975919805 L1215.951603410802 510.22236975919805 Z M1276.1938376842882 492.6085663798149 L1262.5088195834287 491.802068445897 L1263.0245430132236 497.1901807947397 L1267.466569656921 502.52719016390074 L1265.2515608769536 512.7041162816604 L1268.941685443824 517.8961790175399 L1266.2910137923645 524.8461842545348 L1261.9250446790647 527.3325765024256 L1254.9337564244343 523.0380679188183 L1247.336676611907 526.3430369867328 L1251.130879904591 530.2519503600015 L1248.680359648919 533.3032628196706 L1243.0320872599768 531.7980477817073 L1244.8774831290793 544.2913325967766 L1240.6089210283862 543.4792597923424 L1237.6533520840167 537.9907997743012 L1233.368777871663 537.3589811163947 L1236.0274555789547 543.1763584945802 L1235.4003145388378 549.7732885992209 L1238.914305877439 548.5598251179999 L1236.0081076106944 551.5526014373045 L1238.0016155126832 554.0863800845382 L1234.0072608242044 559.8322132911671 L1234.4395878390897 566.742265289502 L1227.8686175156072 567.7141510485799 L1226.0705908101736 570.4198215365705 L1229.654635137289 574.911308878236 L1239.3206132108717 578.7858438833518 L1244.1475977057962 576.4100199006007 L1253.8522717158994 578.632534944305 L1260.2317638707573 574.3789087444384 L1261.1791471441175 577.2508962026659 L1265.1648286054333 577.8381158964894 L1265.1027816727474 581.301039628881 L1270.7984232253584 579.2281169438866 L1269.2145585134094 582.9326183984249 L1273.9374642825278 584.3114697047986 L1281.3897679187685 598.140865152327 L1290.8555945965745 594.6314841656767 L1289.2250278922766 605.144760804269 L1292.2960174748732 609.0007129076821 L1292.455471420184 617.900993678435 L1296.2703570237718 624.9541340198866 L1322.2393334550325 712.7769274692455 L1388.933114385858 657.5652682188429 L1391.7499116958206 621.8582225961309 L1382.003205892608 580.5186994671767 L1382.37548748876 568.6665247608689 L1378.3184186962826 559.0266445023317 L1378.4605261872784 544.9891205557342 L1384.2575777804195 536.9148497656879 L1371.7014135517638 523.7665176655773 L1357.8562743342663 525.0208635305462 L1351.2072449664192 528.2905250852309 L1339.6805260833935 527.0566204121351 L1326.0508832020241 509.48369941649435 L1326.5499273488385 498.070081190388 L1330.6490279344398 493.04154798950185 L1309.3615926504826 475.2586402046145 L1309.1727831671342 468.27704403471944 L1305.3825829023517 466.61573262245474 L1295.7573022792458 469.1076997408545 L1288.1502148969266 466.39459609218466 L1290.7555188986844 472.8010514543639 L1289.6960508436823 477.8026394477856 L1282.1003053737877 482.24023637451137 L1280.1488292649265 491.51867919491997 L1276.1938376842882 492.6085663798149 L1276.1938376842882 492.6085663798149 Z M1121.0678327268542 680.2633535042296 L1112.3992757755805 688.9973173047365 L1092.5969638483293 688.3952312895544 L1087.1248246876676 691.8572258768618 L1094.6331707147438 705.622510313513 L1092.8218005829149 711.2744998665385 L1096.8315002117306 714.0907386196595 L1091.2239252732688 719.9071868527699 L1089.07229776862 733.9205530271574 L1094.1227846554975 738.5514121315973 L1090.7115377000737 745.8517050656956 L1097.1684217279653 747.0791057231963 L1107.5849675357276 758.8755317243922 L1207.1215910002684 834.3314040902642 L1251.971515766876 786.2007595338728 L1173.8657694199283 673.0420379023599 L1169.6339017417995 672.3786283115551 L1151.1265693452515 688.313466522055 L1147.1008576047752 699.1101324116207 L1140.861471426957 698.2562480783618 L1143.4981324807086 693.0790516638481 L1138.6711479857986 694.8379233100513 L1137.6090112455167 689.2165955448363 L1134.940993139764 690.6623452973454 L1128.5568307856702 682.4514901797847 L1131.4109896895025 678.2731247318188 L1129.4748585209782 670.7814279101713 L1121.0678327268542 680.2633535042296 L1121.0678327268542 680.2633535042296 Z M1185.7934582658345 395.81859371357314 L1190.084704191384 386.36918819748826 L1188.6222646595488 377.80990367299455 L1172.4153389718413 342.76812593125396 L1181.7610748121697 322.8862793989938 L1210.436098114391 306.2425034885164 L1211.3407824233254 301.94985319507396 L1204.9906458065125 290.405225511955 L1204.274103809621 284.40666484216126 L1224.791623391131 271.9616955715246 L1224.7088941475413 268.16799618881305 L1221.281635080457 260.3585317480447 L1209.2251821699247 250.5105229904293 L1218.3600918733682 233.15130536437573 L1210.8490771610232 228.37085390122593 L1202.796319337438 217.2313334752398 L1205.670493380847 209.44231022633903 L1211.5782954129972 204.03096925036698 L1213.6525310445977 196.1759767004205 L1213.880036464474 177.58842927178375 L1209.5554319729672 168.02380976514905 L1215.481914802036 155.80741018545814 L1214.3657371848967 136.95877298789492 L1198.9527453671253 124.96258079338804 L1197.0212843978334 118.86274330930792 L1192.3117220551103 116.17100999760078 L1190.5350448318932 105.69211172716496 L1181.472856802251 97.31215220410195 L1183.3195870139934 87.78748593611999 L1191.5064462727496 80.9025208550811 L1193.8408787188782 74.76923414793964 L1181.683015767816 67.1325906930033 L1175.7325147712436 57.952637251624765 L1171.800207015469 56.678779339870744 L1157.3265924152256 66.50077203509863 L1154.2529341473419 64.47802318470167 L1145.3161743257187 66.55930817545959 L1139.908083611721 68.89239148429806 L1137.7851444738044 74.04635927168238 L1125.2943630344307 70.67913748306455 L1117.8640760517228 76.20290501434101 L1104.389884087741 65.85966192633896 L1090.4273227180602 70.78691831294236 L1082.671456131542 69.59110858834174 L1073.7954088999832 63.7282031009745 L1060.3285558205134 70.60016015082874 L1046.8977299922844 73.36622506934509 L1041.691792188023 78.271181973907 L1031.0343975340038 72.37947298890685 L1013.0381183680147 78.44679039500261 L1011.8265352522212 73.01965395258412 L1009.5201240015049 71.0210628743971 L1003.4128377448978 72.3144328329472 L1000.9870028280311 67.48845326062474 L990.5644524784038 70.15417050994984 L970.5353023025891 42.3086214527757 L960.5791047051243 42.408039976888176 L975.598465444542 14.280030813828489 L971.8889929093966 9.711424430093757 L957.8183497859864 4.915177500497521 L946.4744358444404 5.108439678211653 L937.2908226346808 -1.8189894035458565e-12 L926.2624807271568 10.474252545014679 L921.6409849985721 7.709116771571644 L917.5458874408869 9.96879761868695 L910.3624538463155 5.85733061684914 L900.9333215910701 8.908643076518274 L890.6015065408465 8.839886340216253 L871.9347201989876 22.285544867572753 L863.5917428515277 8.549993073644146 L856.5664288596054 6.308895128238873 L842.2769535434818 19.113443546835697 L831.9297935529212 22.76684202168508 L824.5355338214504 32.99487111912822 L814.1129834718195 32.70033212713497 L807.2698072500643 37.734440198531956 L804.8759965565223 46.0382098246082 L793.3245923346803 49.01426153238208 L791.1742991726678 57.356126106951706 L793.7288981541606 71.74672518591433 L790.4397435501596 75.04240280297199 L778.351933587619 72.64613762834779 L767.4690350276942 76.10720307057272 L741.7135534185836 66.44502332998309 L723.2956219788211 79.45119623205937 L710.9869783096037 80.22981981342491 L698.2720273069572 74.70140655672367 L680.3097738782526 91.1649283206807 L676.822469392424 111.84955620651817 L664.7026352065695 122.90638271992975 L645.4740906138795 128.41063820442105 L632.2400803248456 128.93839261278663 L626.4410272177483 125.49405178209781 L621.2244146723788 114.84604910615963 L615.0323976582295 111.91831294282201 L598.0682325231464 132.51188461031597 L591.5546389331212 150.63300120619897 L587.4508681482876 151.89013450642233 L583.9362096383738 149.38608850191122 L578.4614017924432 152.98095083639964 L574.2101861460542 151.21185859424986 L565.8191724635981 161.1927350990445 L558.0906599011723 161.0069060820133 L554.0909678421413 168.26352919711462 L557.6823510537797 173.370110585156 L562.1917620007225 174.9031999756753 L561.5012396852799 182.00465586155224 L571.4861256494769 184.87478502961494 L569.7848387853373 201.08650847549325 L583.1649595932977 224.0410378043798 L577.2684994735828 231.5494592375544 L573.7204823977117 244.00000337871097 L562.814900012927 259.7527291525166 L553.2183077565387 266.83095641126783 L548.6161599962215 282.2891431930839 L536.6370989587231 282.6171314081439 L528.2540913320881 302.4478749607242 L528.2500883041757 313.6013325629865 L531.5826090439368 321.1143997215913 L564.2726693455261 335.14820708785373 L591.6447070612194 339.6081034966264 L599.4145842454418 351.6711941372614 L619.2595951371222 366.25598453902785 L626.9694269026186 376.65404718705577 L646.6830050443969 392.78865159086126 L665.8788582424386 389.55151011416456 L670.7839017817132 381.4540106969962 L676.155298073154 378.0802848927724 L704.1524753150043 398.40626277574665 L715.6491714886579 403.72654753337156 L725.6994402421551 401.50774907001323 L742.5988897592579 413.30417507120546 L753.717966966211 412.0888532998142 L757.434778385872 415.3705937406012 L756.7696085805583 423.7124583151708 L776.2857040118433 437.89957462048733 L794.180573137306 437.51305026505725 L815.9010026074611 445.35131820347306 L830.9323724306159 438.7924830473221 L837.6047527946394 453.2444057019093 L865.453818003607 479.45280111902866 L880.7113589039909 481.9271144808099 L889.6134258170096 475.505792797263 L899.2066822167944 475.83099357707397 L916.5738188287214 454.7440458693618 L944.5282971061279 439.926040051223 L961.6532505291507 422.39864716475495 L979.8983845972325 424.66669031763195 L1001.8876841090496 419.64466113234084 L1012.552417647581 423.0397572735146 L1015.4786310538948 415.61588804308485 L1025.057209684659 415.14574062999236 L1046.3226283150725 424.1807474380894 L1046.042416360975 435.7764781008955 L1041.604392745201 448.2790543668125 L1052.3938873204352 461.2935895746523 L1051.91552548451 470.8693588223159 L1059.6834011547799 475.31810549006696 L1060.2825209994771 487.0309084335968 L1063.0686284287476 492.3511931912217 L1069.188590940419 494.6554730024236 L1093.547015806973 485.96982474634206 L1098.8523621378008 488.0501805920194 L1108.4756412469542 477.4588557662719 L1118.8441507197276 481.69111162918125 L1127.4459905390795 473.3994208892109 L1142.5794375740843 470.1901537650665 L1155.487868259319 439.7058326660408 L1167.1413496930036 427.6241591236976 L1166.837786742748 414.52135513276335 L1174.337459542654 404.13537137084495 L1185.7934582658345 395.81859371357314 L1185.7934582658345 395.81859371357314 Z M899.342785165929 767.4441076997409 L889.0856933034738 780.063756246389 L870.6344032977322 790.6643725229842 L866.7441273350669 789.7854012724238 L846.841072538602 797.8829006895921 L841.8739820666415 798.4719786735895 L839.2419912121259 795.9335543009274 L831.3640322741849 799.8582631406462 L824.2980208317931 799.1065847667487 L823.4660581966673 802.488672876736 L826.7325289758046 809.7304296704751 L822.2998427305756 818.6465059076745 L816.0751343217853 827.5068334397602 L806.0735690746114 826.2478418493702 L805.3790437312528 831.7939088626954 L802.0698739876716 835.370188295472 L763.6127848023061 830.589736832324 L733.6961556749193 831.7428058830083 L698.4328155949042 819.6286122626843 L694.627937561112 812.2967283956896 L679.0388125150348 799.2450273844388 L676.5008928165407 788.1854134357764 L672.6873415555892 784.0572218224061 L666.4886528282477 786.9608002135319 L658.7788210627659 822.0639015308952 L666.9690161781255 859.9042642691347 L673.7608202082993 875.3884671133292 L690.6862894068581 890.4880038922747 L694.0495000273004 901.3562139533933 L706.6583707901809 914.6978082312107 L712.131177122159 929.4935145673098 L720.2286354241332 932.86445293627 L728.2066700599571 932.1294991739105 L734.0597640439228 937.8576786239173 L735.8798074028928 953.0473424761203 L739.1816382619581 959.4445063874518 L731.0388123102712 974.6072250321831 L744.8806156711689 989.5794689344584 L776.9328601915367 994.6460970838343 L785.0990371394 989.4837669906847 L792.9569809377608 989.2895756678845 L813.3537425104878 1000.2507002375241 L815.734876948969 1004.700376050354 L815.4706771065285 1012.5897469684551 L800.3739244940843 1024.5116075561473 L801.0757887219588 1032.78006966899 L812.5771550948593 1040.5839592392476 L824.2286350145914 1043.5497903510804 L829.5499934570871 1050.2675093167873 L833.9780095030837 1066.9976957201852 L837.9623566217597 1071.1491159606867 L842.1762106742681 1071.9769842315673 L852.1964567183823 1068.318010886198 L858.5192393111101 1057.5120535457863 L864.1768520985206 1056.3208895466087 L870.2934787535851 1057.4581631308465 L877.5429623087766 1063.5589297600072 L888.7707884407719 1065.9217457115737 L908.9774061875032 1065.5129218741058 L919.8442926357748 1069.913352997426 L936.5515968129403 1072.3913829395442 L956.3679193378957 1067.9807312202865 L965.4661346187786 1079.8877254866202 L987.1732206625493 1093.250690101393 L1008.500019054336 1080.4312753614395 L1025.6870194100557 1074.824813917583 L1069.103193011546 1076.4684715732274 L1104.6987844085634 1091.5317716938498 L1115.2340867111598 1099.9999999999982 L1120.604148659968 1087.7111271036702 L1139.5624888683378 965.0862753445454 L1141.4419104747285 902.442384557944 L1131.6264860256233 900.5608657604989 L1117.3263359683951 892.7374641434453 L1062.6209564735218 857.5191488355285 L1045.5000060784187 839.437056333225 L1041.0499733788856 838.5144152636585 L1037.1136625951913 822.9159275739876 L1032.7810520478488 814.7951995296826 L1027.923377672243 815.1492038071283 L1028.1015124144906 809.8976757858036 L1015.7608445219521 810.8546952235174 L1015.0663191785934 802.7051636815795 L1010.815103532208 800.1100614587231 L1002.5335059461031 786.8595233992528 L996.7017614443612 786.5315351841891 L993.4419623784088 790.3633295153941 L986.7809239268172 786.5807798737023 L976.7453329423624 786.3577850532656 L967.7658741563027 757.319213706749 L968.0961239593453 750.7613076956859 L942.4840841838814 755.5371134334109 L938.0507307673397 768.2914880174085 L934.9610603877918 770.7267772856103 L931.8126789321614 769.5086680789664 L930.016653740684 760.9428795388758 L922.2974815767338 766.5632781590102 L916.1901953201268 775.3966604836278 L905.1291620179545 766.7054373570354 L899.342785165929 767.4441076997409 L899.342785165929 767.4441076997409 Z M1240.7570330612652 337.13286098975914 L1245.8048512628593 322.29348483465947 L1250.6665286663847 315.6770426832354 L1246.4947064069893 302.1124535849831 L1227.6197626135145 287.66424751073464 L1224.257886335712 280.42992387768027 L1224.791623391131 271.9616955715246 L1222.2677142903303 272.4931665602344 L1204.274103809621 284.40666484216126 L1204.9906458065125 290.405225511955 L1211.3407824233254 301.94985319507396 L1210.436098114391 306.2425034885164 L1181.7610748121697 322.8862793989938 L1172.4153389718413 342.76812593125396 L1188.6222646595488 377.80990367299455 L1190.084704191384 386.36918819748826 L1185.078250611583 397.09338077041684 L1174.337459542654 404.13537137084495 L1166.837786742748 414.52135513276335 L1167.1413496930036 427.6241591236976 L1155.487868259319 439.7058326660408 L1142.5794375740843 470.1901537650665 L1127.4459905390795 473.3994208892109 L1118.8441507197276 481.69111162918125 L1108.4756412469542 477.4588557662719 L1099.900488280371 487.7333421179792 L1093.547015806973 485.96982474634206 L1069.188590940419 494.6554730024236 L1061.8603811695612 491.1302965493269 L1059.6834011547799 475.31810549006696 L1051.91552548451 470.8693588223159 L1052.3938873204352 461.2935895746523 L1041.604392745201 448.2790543668125 L1046.3746676779774 434.07614259505135 L1045.395260181289 423.3194299441493 L1039.2165865935312 422.6699575296261 L1025.057209684659 415.14574062999236 L1015.4786310538948 415.61588804308485 L1012.552417647581 423.0397572735146 L1001.8876841090496 419.64466113234084 L979.8983845972325 424.66669031763195 L961.6532505291507 422.39864716475495 L944.5282971061279 439.926040051223 L916.5738188287214 454.7440458693618 L901.3596440640795 474.34250315064855 L896.9603163848187 476.7266894391669 L898.9558258007455 483.51316514118116 L904.8562889483655 488.162607147322 L902.3690742701365 499.5316264093399 L903.3137888582241 511.77218376124983 L898.6669406195033 523.4180882586443 L898.6155684279183 533.0542519368428 L901.6878923531622 544.9157180939983 L912.2171901138718 564.5308999868248 L909.3370115285834 579.6295076206807 L901.2442234258451 584.3123988498883 L897.3105813274306 575.5812224846359 L888.9375812705875 581.8222900216551 L868.4954520481588 581.6959262900746 L870.3908857661991 591.8133871223836 L869.1559516542256 599.4704717691984 L876.6516214262374 597.4997550435692 L878.481672354992 600.4683735906547 L875.438703967804 616.4013535109825 L878.9233397683383 623.2937517527043 L887.2849979127568 628.7357545164868 L881.9042612228404 640.2385706707719 L880.1722844780234 637.4966635244691 L875.6908947264856 640.5052353102146 L873.9695927227622 672.0506400964969 L883.7703394028395 675.7867324839281 L884.420164267809 686.1392670227833 L888.6140031807445 695.6211926168453 L892.7404577904308 693.7879893638219 L895.3237451386412 695.2950626919519 L908.3849580559945 718.8321659892335 L906.9478710342846 722.3424761209717 L913.1138683669742 752.2330735105807 L905.6628990733698 761.8144176287551 L905.1291620179545 766.7054373570354 L916.1901953201268 775.3966604836278 L922.2974815767338 766.5632781590102 L931.3269782117277 760.852752465611 L929.8645386798889 763.3363572782473 L931.8126789321614 769.5086680789664 L934.9610603877918 770.7267772856103 L938.0507307673397 768.2914880174085 L942.4840841838814 755.5371134334109 L968.0961239593453 750.7613076956859 L967.7658741563027 757.319213706749 L976.7453329423624 786.3577850532656 L986.7809239268172 786.5807798737023 L993.4419623784088 790.3633295153941 L996.7017614443612 786.5315351841891 L1002.5335059461031 786.8595233992528 L1010.815103532208 800.1100614587231 L1015.0663191785934 802.7051636815795 L1015.7608445219521 810.8546952235174 L1028.1015124144906 809.8976757858036 L1027.923377672243 815.1492038071283 L1032.7810520478488 814.7951995296826 L1037.1136625951913 822.9159275739876 L1041.0499733788856 838.5144152636585 L1045.5000060784187 839.437056333225 L1062.6209564735218 857.5191488355285 L1131.6264860256233 900.5608657604989 L1141.4419104747285 902.442384557944 L1151.9291764423251 871.813116825635 L1207.1215910002684 834.3314040902642 L1107.5849675357276 758.8755317243922 L1097.1684217279653 747.0791057231963 L1090.7115377000737 745.8517050656956 L1094.1227846554975 738.5514121315973 L1089.07229776862 733.9205530271574 L1091.2239252732688 719.9071868527699 L1096.8315002117306 714.0907386196595 L1092.8218005829149 711.2744998665385 L1094.6331707147438 705.622510313513 L1087.1248246876676 691.8572258768618 L1092.5969638483293 688.3952312895544 L1112.3992757755805 688.9973173047365 L1131.4616947097602 668.6620479709145 L1131.26020897134 659.4430704359565 L1123.197443577963 649.4473276097979 L1118.639996296035 649.4928557189705 L1126.554649656533 635.0028381158954 L1132.321678540302 633.4260789063774 L1135.8203249385551 629.1863898827942 L1136.628269406192 613.2599139780596 L1140.6473094334724 611.4750262694633 L1138.2701780229181 610.2169638241558 L1139.7392892679454 607.520584787022 L1136.8804601648771 606.9696017515216 L1139.3529970740856 603.0606883782566 L1132.0087751915635 601.4802125883944 L1129.92653350412 595.7464582678676 L1130.4455927905146 592.1144301299737 L1138.0953791372704 588.4331573025756 L1136.4981709989333 585.0585023532713 L1148.1022817549965 578.511746083228 L1148.878869170625 582.1539948170557 L1154.7986802865198 579.7856039949893 L1159.5042396013268 581.7265880778868 L1162.0441608137808 577.1254616161696 L1164.1063873616476 578.8490257491412 L1164.562065372702 574.4485946258264 L1168.3709464344247 579.6350824911897 L1175.3722422588398 577.2518253477556 L1179.9697198199246 580.5326366434529 L1187.4547148508245 575.3554402289392 L1186.666118351448 573.0604518685959 L1190.3335590934657 573.0381523865508 L1189.2293905600782 569.2398072784181 L1192.760061181656 565.9209010342202 L1192.7347086715272 561.1896942605872 L1200.866859882106 553.6729105216364 L1202.0023854675092 542.1134165171607 L1207.1976485306586 537.7826712752285 L1205.852631151014 527.0027299971935 L1202.5347881802809 531.1355673359903 L1193.2437603881262 530.7759881880302 L1197.5997219316414 525.1983302418121 L1201.520687774988 525.6433907376031 L1201.2177919960413 519.3781654283684 L1204.3174699453702 519.2025570072728 L1203.5655678685544 515.9756361265136 L1206.7966785677781 515.6485770565359 L1208.1517035172183 510.4091279213135 L1218.4574988859895 509.5180777846508 L1223.3431944570002 518.7166141277339 L1229.9195021510386 514.8290710914262 L1230.423883668409 512.1540623912497 L1233.6883529335937 513.3517304060224 L1236.5204951839041 508.72272959174734 L1242.7458707639998 516.3203489531079 L1246.8463056922446 512.6595173175756 L1258.5985284811832 511.73873453818123 L1261.6007994178908 509.2337593885877 L1260.0683068975304 502.6284669781853 L1263.0245430132236 497.1901807947397 L1262.5088195834287 491.802068445897 L1269.4200472797456 490.6266999131676 L1274.1082601402559 493.87870771123016 L1279.7705431268987 491.91356585611356 L1282.1003053737877 482.24023637451137 L1289.6960508436823 477.8026394477856 L1290.7555188986844 472.8010514543639 L1288.1502148969266 466.39459609218466 L1295.7573022792458 469.1076997408545 L1305.3825829023517 466.61573262245474 L1309.1727831671342 468.27704403471944 L1324.6691713998152 439.3499700984248 L1319.8975621243917 427.1196333424541 L1321.0664462757595 420.76892668538676 L1313.561436105283 376.2786725726528 L1286.5103077941676 379.395954333364 L1266.8107402500827 361.3120035408883 L1266.7900579391753 352.2881464738093 L1262.4380994235762 348.1450885390823 L1258.579180512923 348.6189525325117 L1251.9288168024432 354.9780214953498 L1235.5063947786148 360.0334999037059 L1234.0693077569013 355.0439907963955 L1240.7570330612652 337.13286098975914 L1240.7570330612652 337.13286098975914 Z M875.6942305830853 643.6773366309517 L878.5890869373907 637.719658344904 L881.9042612228404 640.2385706707719 L887.2849979127568 628.7357545164868 L878.9233397683383 623.2937517527043 L875.438703967804 616.4013535109825 L878.481672354992 600.4683735906547 L876.6516214262374 597.4997550435692 L869.1559516542256 599.4704717691984 L870.3908857661991 591.8133871223836 L868.4954520481588 581.6959262900746 L888.9375812705875 581.8222900216551 L897.3105813274306 575.5812224846359 L901.2442234258451 584.3123988498883 L909.8534021297091 578.227427687174 L912.2171901138718 564.5308999868248 L901.6878923531622 544.9157180939983 L898.6155684279183 533.0542519368428 L898.6669406195033 523.4180882586443 L903.3137888582241 511.77218376124983 L902.3690742701365 499.5316264093399 L904.8562889483655 488.162607147322 L898.9558258007455 483.51316514118116 L896.9603163848187 476.7266894391669 L889.6134258170096 475.505792797263 L880.7113589039909 481.9271144808099 L865.453818003607 479.45280111902866 L837.6047527946394 453.2444057019093 L830.9323724306159 438.7924830473221 L815.9010026074611 445.35131820347306 L797.0821012048145 438.09562423345596 L774.3629162697107 436.6619533670564 L764.7523134156181 452.0300130756059 L760.7059193642526 486.06738498028244 L750.007827259753 490.39255535170196 L724.4251430223376 512.6288555297633 L729.1073513409756 524.426210676047 L726.025019845958 548.6257944190456 L735.7597165654224 556.6694034212778 L739.2690377047802 563.9120893601048 L737.072042550426 576.7881819502581 L738.8547243155153 605.1521939649465 L734.1965341643736 614.4743066043611 L732.0449066597321 626.0133594169693 L724.3604274043719 628.0760615060262 L722.3882689846141 631.2221467643776 L720.2820091296708 663.6911217653069 L716.8387379509222 678.2006514151726 L710.3278130461658 689.1376182125914 L703.8996173850028 712.4796010419941 L693.1728369137782 733.282230353645 L692.2935051149761 747.3281166060187 L699.488280621983 756.8657909051872 L693.3970064770547 761.9166235881221 L681.6888169951817 763.324278392136 L682.6762305476987 778.2026786408114 L672.6873415555892 784.0572218224061 L676.5008928165407 788.1854134357764 L679.0388125150348 799.2450273844388 L694.627937561112 812.2967283956896 L697.8437033199916 819.3061989181351 L729.6691095918068 830.7021633876284 L771.2045272442847 830.9985606697974 L802.0698739876716 835.370188295472 L805.3790437312528 831.7939088626954 L806.0735690746114 826.2478418493702 L816.0751343217853 827.5068334397602 L822.2998427305756 818.6465059076745 L826.7325289758046 809.7304296704751 L823.4660581966673 802.488672876736 L824.2980208317931 799.1065847667487 L831.3640322741849 799.8582631406462 L839.2419912121259 795.9335543009274 L841.8739820666415 798.4719786735895 L853.3273121045459 796.4046308591023 L866.7441273350669 789.7854012724238 L870.6344032977322 790.6643725229842 L889.0856933034738 780.063756246389 L897.744242684952 768.7309736426887 L905.1291620179545 766.7054373570354 L905.6628990733698 761.8144176287551 L913.0858471715728 750.371995905005 L906.9478710342846 722.3424761209717 L908.3849580559945 718.8321659892335 L895.3237451386412 695.2950626919519 L892.7404577904308 693.7879893638219 L888.6140031807445 695.6211926168453 L884.420164267809 686.1392670227833 L883.7703394028395 675.7867324839281 L873.9695927227622 672.0506400964969 L875.6942305830853 643.6773366309517 L875.6942305830853 643.6773366309517 Z"></path>
		</g>
		<g class="layer" fill="#52a3f5" stroke="#b1d9fc" stroke-width="1" font-size="11" font-family="SimSun">
			<g>
				<path autoSize="true" d="M1215.951603410802 510.22236975919805 L1208.1517035172183 510.4091279213135 L1206.7966785677781 515.6485770565359 L1203.5655678685544 515.9756361265136 L1204.3174699453702 519.2025570072728 L1201.2177919960413 519.3781654283684 L1201.520687774988 525.6433907376031 L1197.5997219316414 525.1983302418121 L1193.2437603881262 530.7759881880302 L1202.5347881802809 531.1355673359903 L1205.852631151014 527.0027299971935 L1207.1976485306586 537.7826712752285 L1202.0023854675092 542.1134165171607 L1199.1202053682537 556.7056400796009 L1192.7347086715272 561.1896942605872 L1192.760061181656 565.9209010342202 L1189.2293905600782 569.2398072784181 L1190.3335590934657 573.0381523865508 L1186.666118351448 573.0604518685959 L1187.6922278404854 575.110145926461 L1179.9697198199246 580.5326366434529 L1175.3722422588398 577.2518253477556 L1168.3709464344247 579.6350824911897 L1164.562065372702 574.4485946258264 L1164.1063873616476 578.8490257491412 L1162.0441608137808 577.1254616161696 L1159.5042396013268 581.7265880778868 L1154.7986802865198 579.7856039949893 L1148.878869170625 582.1539948170557 L1148.1022817549965 578.511746083228 L1136.4981709989333 585.0585023532713 L1138.2348179429973 587.8580164948617 L1136.1312267733374 590.275652006445 L1130.4455927905146 592.1144301299737 L1132.0087751915635 601.4802125883944 L1138.9667048802366 601.5954265789551 L1136.8804601648771 606.9696017515216 L1139.7392892679454 607.520584787022 L1138.2701780229181 610.2169638241558 L1140.6473094334724 611.4750262694633 L1136.628269406192 613.2599139780596 L1135.8203249385551 629.1863898827942 L1132.321678540302 633.4260789063774 L1126.554649656533 635.0028381158954 L1118.639996296035 649.4928557189705 L1123.197443577963 649.4473276097979 L1131.26020897134 659.4430704359565 L1132.3603744768188 663.8063357558658 L1129.4748585209782 670.7814279101713 L1131.4109896895025 678.2731247318188 L1128.5568307856702 682.4514901797847 L1134.940993139764 690.6623452973454 L1137.6090112455167 689.2165955448363 L1138.6711479857986 694.8379233100513 L1143.4981324807086 693.0790516638481 L1140.861471426957 698.2562480783618 L1147.816732430343 698.8025853884355 L1151.1265693452515 688.313466522055 L1169.6339017417995 672.3786283115551 L1173.8657694199283 673.0420379023599 L1251.971515766876 786.2007595338728 L1322.2393334550325 712.7769274692455 L1296.2703570237718 624.9541340198866 L1292.455471420184 617.900993678435 L1292.2960174748732 609.0007129076821 L1289.2250278922766 605.144760804269 L1290.8555945965745 594.6314841656767 L1281.3897679187685 598.140865152327 L1273.9374642825278 584.3114697047986 L1269.2145585134094 582.9326183984249 L1270.7984232253584 579.2281169438866 L1265.1027816727474 581.301039628881 L1265.1648286054333 577.8381158964894 L1261.1791471441175 577.2508962026659 L1260.2317638707573 574.3789087444384 L1253.8522717158994 578.632534944305 L1244.1475977057962 576.4100199006007 L1239.3206132108717 578.7858438833518 L1226.3307876246836 571.6555844998293 L1227.8686175156072 567.7141510485799 L1234.4395878390897 566.742265289502 L1234.0072608242044 559.8322132911671 L1238.0016155126832 554.0863800845382 L1236.0081076106944 551.5526014373045 L1238.914305877439 548.5598251179999 L1235.4003145388378 549.7732885992209 L1236.0274555789547 543.1763584945802 L1233.368777871663 537.3589811163947 L1237.6533520840167 537.9907997743012 L1240.6089210283862 543.4792597923424 L1244.8774831290793 544.2913325967766 L1243.0320872599768 531.7980477817073 L1248.680359648919 533.3032628196706 L1251.130879904591 530.2519503600015 L1247.336676611907 526.3430369867328 L1254.9337564244343 523.0380679188183 L1261.9250446790647 527.3325765024256 L1266.2910137923645 524.8461842545348 L1268.941685443824 517.8961790175399 L1265.2515608769536 512.7041162816604 L1267.5986695781394 504.3436688053898 L1266.4057672592826 500.3074625554509 L1263.0245430132236 497.1901807947397 L1260.0683068975304 502.6284669781853 L1261.6007994178908 509.2337593885877 L1258.5985284811832 511.73873453818123 L1246.8463056922446 512.6595173175756 L1243.4664157888146 516.1856229157547 L1236.5204951839041 508.72272959174734 L1233.6883529335937 513.3517304060224 L1230.423883668409 512.1540623912497 L1229.9195021510386 514.8290710914262 L1223.3431944570002 518.7166141277339 L1221.8020287094769 513.2132877883323 L1219.0879757826879 513.2086420629057 L1218.4574988859895 509.5180777846508 L1215.951603410802 510.22236975919805 L1215.951603410802 510.22236975919805 Z" key="130302" id="mapid-130302-outline"></path>
				<text x="1224.3969915557827" y="641.6954701643099" ox="1224.3969915557827" oy="641.6954701643099" fill="#1a6bbc" stroke="none" stroke-width="0" text-anchor="middle" alignment-baseline="middle" font-family="Microsoft YaHei" key="130302">海港区</text>
			</g>
			<g>
				<path autoSize="true" d="M1276.1938376842882 492.6085663798149 L1262.5088195834287 491.802068445897 L1263.0245430132236 497.1901807947397 L1267.466569656921 502.52719016390074 L1265.2515608769536 512.7041162816604 L1268.941685443824 517.8961790175399 L1266.2910137923645 524.8461842545348 L1261.9250446790647 527.3325765024256 L1254.9337564244343 523.0380679188183 L1247.336676611907 526.3430369867328 L1251.130879904591 530.2519503600015 L1248.680359648919 533.3032628196706 L1243.0320872599768 531.7980477817073 L1244.8774831290793 544.2913325967766 L1240.6089210283862 543.4792597923424 L1237.6533520840167 537.9907997743012 L1233.368777871663 537.3589811163947 L1236.0274555789547 543.1763584945802 L1235.4003145388378 549.7732885992209 L1238.914305877439 548.5598251179999 L1236.0081076106944 551.5526014373045 L1238.0016155126832 554.0863800845382 L1234.0072608242044 559.8322132911671 L1234.4395878390897 566.742265289502 L1227.8686175156072 567.7141510485799 L1226.0705908101736 570.4198215365705 L1229.654635137289 574.911308878236 L1239.3206132108717 578.7858438833518 L1244.1475977057962 576.4100199006007 L1253.8522717158994 578.632534944305 L1260.2317638707573 574.3789087444384 L1261.1791471441175 577.2508962026659 L1265.1648286054333 577.8381158964894 L1265.1027816727474 581.301039628881 L1270.7984232253584 579.2281169438866 L1269.2145585134094 582.9326183984249 L1273.9374642825278 584.3114697047986 L1281.3897679187685 598.140865152327 L1290.8555945965745 594.6314841656767 L1289.2250278922766 605.144760804269 L1292.2960174748732 609.0007129076821 L1292.455471420184 617.900993678435 L1296.2703570237718 624.9541340198866 L1322.2393334550325 712.7769274692455 L1388.933114385858 657.5652682188429 L1391.7499116958206 621.8582225961309 L1382.003205892608 580.5186994671767 L1382.37548748876 568.6665247608689 L1378.3184186962826 559.0266445023317 L1378.4605261872784 544.9891205557342 L1384.2575777804195 536.9148497656879 L1371.7014135517638 523.7665176655773 L1357.8562743342663 525.0208635305462 L1351.2072449664192 528.2905250852309 L1339.6805260833935 527.0566204121351 L1326.0508832020241 509.48369941649435 L1326.5499273488385 498.070081190388 L1330.6490279344398 493.04154798950185 L1309.3615926504826 475.2586402046145 L1309.1727831671342 468.27704403471944 L1305.3825829023517 466.61573262245474 L1295.7573022792458 469.1076997408545 L1288.1502148969266 466.39459609218466 L1290.7555188986844 472.8010514543639 L1289.6960508436823 477.8026394477856 L1282.1003053737877 482.24023637451137 L1280.1488292649265 491.51867919491997 L1276.1938376842882 492.6085663798149 L1276.1938376842882 492.6085663798149 Z" key="130303" id="mapid-130303-outline"></path>
				<text x="1332.8436879891706" y="589.5857617807178" ox="1332.8436879891706" oy="589.5857617807178" fill="#1a6bbc" stroke="none" stroke-width="0" text-anchor="middle" alignment-baseline="middle" font-family="Microsoft YaHei" key="130303">山海关区</text>
			</g>
			<g>
				<path autoSize="true" d="M1121.0678327268542 680.2633535042296 L1112.3992757755805 688.9973173047365 L1092.5969638483293 688.3952312895544 L1087.1248246876676 691.8572258768618 L1094.6331707147438 705.622510313513 L1092.8218005829149 711.2744998665385 L1096.8315002117306 714.0907386196595 L1091.2239252732688 719.9071868527699 L1089.07229776862 733.9205530271574 L1094.1227846554975 738.5514121315973 L1090.7115377000737 745.8517050656956 L1097.1684217279653 747.0791057231963 L1107.5849675357276 758.8755317243922 L1207.1215910002684 834.3314040902642 L1251.971515766876 786.2007595338728 L1173.8657694199283 673.0420379023599 L1169.6339017417995 672.3786283115551 L1151.1265693452515 688.313466522055 L1147.1008576047752 699.1101324116207 L1140.861471426957 698.2562480783618 L1143.4981324807086 693.0790516638481 L1138.6711479857986 694.8379233100513 L1137.6090112455167 689.2165955448363 L1134.940993139764 690.6623452973454 L1128.5568307856702 682.4514901797847 L1131.4109896895025 678.2731247318188 L1129.4748585209782 670.7814279101713 L1121.0678327268542 680.2633535042296 L1121.0678327268542 680.2633535042296 Z" key="130304" id="mapid-130304-outline"></path>
				<text x="1174.5699687474116" y="752.5564160002195" ox="1174.5699687474116" oy="752.5564160002195" fill="#1a6bbc" stroke="none" stroke-width="0" text-anchor="middle" alignment-baseline="middle" font-family="Microsoft YaHei" key="130304">北戴河区</text>
			</g>
			<g>
				<path autoSize="true" d="M1185.7934582658345 395.81859371357314 L1190.084704191384 386.36918819748826 L1188.6222646595488 377.80990367299455 L1172.4153389718413 342.76812593125396 L1181.7610748121697 322.8862793989938 L1210.436098114391 306.2425034885164 L1211.3407824233254 301.94985319507396 L1204.9906458065125 290.405225511955 L1204.274103809621 284.40666484216126 L1224.791623391131 271.9616955715246 L1224.7088941475413 268.16799618881305 L1221.281635080457 260.3585317480447 L1209.2251821699247 250.5105229904293 L1218.3600918733682 233.15130536437573 L1210.8490771610232 228.37085390122593 L1202.796319337438 217.2313334752398 L1205.670493380847 209.44231022633903 L1211.5782954129972 204.03096925036698 L1213.6525310445977 196.1759767004205 L1213.880036464474 177.58842927178375 L1209.5554319729672 168.02380976514905 L1215.481914802036 155.80741018545814 L1214.3657371848967 136.95877298789492 L1198.9527453671253 124.96258079338804 L1197.0212843978334 118.86274330930792 L1192.3117220551103 116.17100999760078 L1190.5350448318932 105.69211172716496 L1181.472856802251 97.31215220410195 L1183.3195870139934 87.78748593611999 L1191.5064462727496 80.9025208550811 L1193.8408787188782 74.76923414793964 L1181.683015767816 67.1325906930033 L1175.7325147712436 57.952637251624765 L1171.800207015469 56.678779339870744 L1157.3265924152256 66.50077203509863 L1154.2529341473419 64.47802318470167 L1145.3161743257187 66.55930817545959 L1139.908083611721 68.89239148429806 L1137.7851444738044 74.04635927168238 L1125.2943630344307 70.67913748306455 L1117.8640760517228 76.20290501434101 L1104.389884087741 65.85966192633896 L1090.4273227180602 70.78691831294236 L1082.671456131542 69.59110858834174 L1073.7954088999832 63.7282031009745 L1060.3285558205134 70.60016015082874 L1046.8977299922844 73.36622506934509 L1041.691792188023 78.271181973907 L1031.0343975340038 72.37947298890685 L1013.0381183680147 78.44679039500261 L1011.8265352522212 73.01965395258412 L1009.5201240015049 71.0210628743971 L1003.4128377448978 72.3144328329472 L1000.9870028280311 67.48845326062474 L990.5644524784038 70.15417050994984 L970.5353023025891 42.3086214527757 L960.5791047051243 42.408039976888176 L975.598465444542 14.280030813828489 L971.8889929093966 9.711424430093757 L957.8183497859864 4.915177500497521 L946.4744358444404 5.108439678211653 L937.2908226346808 -1.8189894035458565e-12 L926.2624807271568 10.474252545014679 L921.6409849985721 7.709116771571644 L917.5458874408869 9.96879761868695 L910.3624538463155 5.85733061684914 L900.9333215910701 8.908643076518274 L890.6015065408465 8.839886340216253 L871.9347201989876 22.285544867572753 L863.5917428515277 8.549993073644146 L856.5664288596054 6.308895128238873 L842.2769535434818 19.113443546835697 L831.9297935529212 22.76684202168508 L824.5355338214504 32.99487111912822 L814.1129834718195 32.70033212713497 L807.2698072500643 37.734440198531956 L804.8759965565223 46.0382098246082 L793.3245923346803 49.01426153238208 L791.1742991726678 57.356126106951706 L793.7288981541606 71.74672518591433 L790.4397435501596 75.04240280297199 L778.351933587619 72.64613762834779 L767.4690350276942 76.10720307057272 L741.7135534185836 66.44502332998309 L723.2956219788211 79.45119623205937 L710.9869783096037 80.22981981342491 L698.2720273069572 74.70140655672367 L680.3097738782526 91.1649283206807 L676.822469392424 111.84955620651817 L664.7026352065695 122.90638271992975 L645.4740906138795 128.41063820442105 L632.2400803248456 128.93839261278663 L626.4410272177483 125.49405178209781 L621.2244146723788 114.84604910615963 L615.0323976582295 111.91831294282201 L598.0682325231464 132.51188461031597 L591.5546389331212 150.63300120619897 L587.4508681482876 151.89013450642233 L583.9362096383738 149.38608850191122 L578.4614017924432 152.98095083639964 L574.2101861460542 151.21185859424986 L565.8191724635981 161.1927350990445 L558.0906599011723 161.0069060820133 L554.0909678421413 168.26352919711462 L557.6823510537797 173.370110585156 L562.1917620007225 174.9031999756753 L561.5012396852799 182.00465586155224 L571.4861256494769 184.87478502961494 L569.7848387853373 201.08650847549325 L583.1649595932977 224.0410378043798 L577.2684994735828 231.5494592375544 L573.7204823977117 244.00000337871097 L562.814900012927 259.7527291525166 L553.2183077565387 266.83095641126783 L548.6161599962215 282.2891431930839 L536.6370989587231 282.6171314081439 L528.2540913320881 302.4478749607242 L528.2500883041757 313.6013325629865 L531.5826090439368 321.1143997215913 L564.2726693455261 335.14820708785373 L591.6447070612194 339.6081034966264 L599.4145842454418 351.6711941372614 L619.2595951371222 366.25598453902785 L626.9694269026186 376.65404718705577 L646.6830050443969 392.78865159086126 L665.8788582424386 389.55151011416456 L670.7839017817132 381.4540106969962 L676.155298073154 378.0802848927724 L704.1524753150043 398.40626277574665 L715.6491714886579 403.72654753337156 L725.6994402421551 401.50774907001323 L742.5988897592579 413.30417507120546 L753.717966966211 412.0888532998142 L757.434778385872 415.3705937406012 L756.7696085805583 423.7124583151708 L776.2857040118433 437.89957462048733 L794.180573137306 437.51305026505725 L815.9010026074611 445.35131820347306 L830.9323724306159 438.7924830473221 L837.6047527946394 453.2444057019093 L865.453818003607 479.45280111902866 L880.7113589039909 481.9271144808099 L889.6134258170096 475.505792797263 L899.2066822167944 475.83099357707397 L916.5738188287214 454.7440458693618 L944.5282971061279 439.926040051223 L961.6532505291507 422.39864716475495 L979.8983845972325 424.66669031763195 L1001.8876841090496 419.64466113234084 L1012.552417647581 423.0397572735146 L1015.4786310538948 415.61588804308485 L1025.057209684659 415.14574062999236 L1046.3226283150725 424.1807474380894 L1046.042416360975 435.7764781008955 L1041.604392745201 448.2790543668125 L1052.3938873204352 461.2935895746523 L1051.91552548451 470.8693588223159 L1059.6834011547799 475.31810549006696 L1060.2825209994771 487.0309084335968 L1063.0686284287476 492.3511931912217 L1069.188590940419 494.6554730024236 L1093.547015806973 485.96982474634206 L1098.8523621378008 488.0501805920194 L1108.4756412469542 477.4588557662719 L1118.8441507197276 481.69111162918125 L1127.4459905390795 473.3994208892109 L1142.5794375740843 470.1901537650665 L1155.487868259319 439.7058326660408 L1167.1413496930036 427.6241591236976 L1166.837786742748 414.52135513276335 L1174.337459542654 404.13537137084495 L1185.7934582658345 395.81859371357314 L1185.7934582658345 395.81859371357314 Z" key="130321" id="mapid-130321-outline"></path>
				<text x="891.4728322838237" y="247.32773650121453" ox="891.4728322838237" oy="247.32773650121453" fill="#1a6bbc" stroke="none" stroke-width="0" text-anchor="middle" alignment-baseline="middle" font-family="Microsoft YaHei" key="130321">青龙满族自治县</text>
			</g>
			<g>
				<path autoSize="true" d="M899.342785165929 767.4441076997409 L889.0856933034738 780.063756246389 L870.6344032977322 790.6643725229842 L866.7441273350669 789.7854012724238 L846.841072538602 797.8829006895921 L841.8739820666415 798.4719786735895 L839.2419912121259 795.9335543009274 L831.3640322741849 799.8582631406462 L824.2980208317931 799.1065847667487 L823.4660581966673 802.488672876736 L826.7325289758046 809.7304296704751 L822.2998427305756 818.6465059076745 L816.0751343217853 827.5068334397602 L806.0735690746114 826.2478418493702 L805.3790437312528 831.7939088626954 L802.0698739876716 835.370188295472 L763.6127848023061 830.589736832324 L733.6961556749193 831.7428058830083 L698.4328155949042 819.6286122626843 L694.627937561112 812.2967283956896 L679.0388125150348 799.2450273844388 L676.5008928165407 788.1854134357764 L672.6873415555892 784.0572218224061 L666.4886528282477 786.9608002135319 L658.7788210627659 822.0639015308952 L666.9690161781255 859.9042642691347 L673.7608202082993 875.3884671133292 L690.6862894068581 890.4880038922747 L694.0495000273004 901.3562139533933 L706.6583707901809 914.6978082312107 L712.131177122159 929.4935145673098 L720.2286354241332 932.86445293627 L728.2066700599571 932.1294991739105 L734.0597640439228 937.8576786239173 L735.8798074028928 953.0473424761203 L739.1816382619581 959.4445063874518 L731.0388123102712 974.6072250321831 L744.8806156711689 989.5794689344584 L776.9328601915367 994.6460970838343 L785.0990371394 989.4837669906847 L792.9569809377608 989.2895756678845 L813.3537425104878 1000.2507002375241 L815.734876948969 1004.700376050354 L815.4706771065285 1012.5897469684551 L800.3739244940843 1024.5116075561473 L801.0757887219588 1032.78006966899 L812.5771550948593 1040.5839592392476 L824.2286350145914 1043.5497903510804 L829.5499934570871 1050.2675093167873 L833.9780095030837 1066.9976957201852 L837.9623566217597 1071.1491159606867 L842.1762106742681 1071.9769842315673 L852.1964567183823 1068.318010886198 L858.5192393111101 1057.5120535457863 L864.1768520985206 1056.3208895466087 L870.2934787535851 1057.4581631308465 L877.5429623087766 1063.5589297600072 L888.7707884407719 1065.9217457115737 L908.9774061875032 1065.5129218741058 L919.8442926357748 1069.913352997426 L936.5515968129403 1072.3913829395442 L956.3679193378957 1067.9807312202865 L965.4661346187786 1079.8877254866202 L987.1732206625493 1093.250690101393 L1008.500019054336 1080.4312753614395 L1025.6870194100557 1074.824813917583 L1069.103193011546 1076.4684715732274 L1104.6987844085634 1091.5317716938498 L1115.2340867111598 1099.9999999999982 L1120.604148659968 1087.7111271036702 L1139.5624888683378 965.0862753445454 L1141.4419104747285 902.442384557944 L1131.6264860256233 900.5608657604989 L1117.3263359683951 892.7374641434453 L1062.6209564735218 857.5191488355285 L1045.5000060784187 839.437056333225 L1041.0499733788856 838.5144152636585 L1037.1136625951913 822.9159275739876 L1032.7810520478488 814.7951995296826 L1027.923377672243 815.1492038071283 L1028.1015124144906 809.8976757858036 L1015.7608445219521 810.8546952235174 L1015.0663191785934 802.7051636815795 L1010.815103532208 800.1100614587231 L1002.5335059461031 786.8595233992528 L996.7017614443612 786.5315351841891 L993.4419623784088 790.3633295153941 L986.7809239268172 786.5807798737023 L976.7453329423624 786.3577850532656 L967.7658741563027 757.319213706749 L968.0961239593453 750.7613076956859 L942.4840841838814 755.5371134334109 L938.0507307673397 768.2914880174085 L934.9610603877918 770.7267772856103 L931.8126789321614 769.5086680789664 L930.016653740684 760.9428795388758 L922.2974815767338 766.5632781590102 L916.1901953201268 775.3966604836278 L905.1291620179545 766.7054373570354 L899.342785165929 767.4441076997409 L899.342785165929 767.4441076997409 Z" key="130322" id="mapid-130322-outline"></path>
				<text x="923.1104298292557" y="925.3806538478457" ox="923.1104298292557" oy="925.3806538478457" fill="#1a6bbc" stroke="none" stroke-width="0" text-anchor="middle" alignment-baseline="middle" font-family="Microsoft YaHei" key="130322">昌黎县</text>
			</g>
			<g>
				<path autoSize="true" d="M1240.7570330612652 337.13286098975914 L1245.8048512628593 322.29348483465947 L1250.6665286663847 315.6770426832354 L1246.4947064069893 302.1124535849831 L1227.6197626135145 287.66424751073464 L1224.257886335712 280.42992387768027 L1224.791623391131 271.9616955715246 L1222.2677142903303 272.4931665602344 L1204.274103809621 284.40666484216126 L1204.9906458065125 290.405225511955 L1211.3407824233254 301.94985319507396 L1210.436098114391 306.2425034885164 L1181.7610748121697 322.8862793989938 L1172.4153389718413 342.76812593125396 L1188.6222646595488 377.80990367299455 L1190.084704191384 386.36918819748826 L1185.078250611583 397.09338077041684 L1174.337459542654 404.13537137084495 L1166.837786742748 414.52135513276335 L1167.1413496930036 427.6241591236976 L1155.487868259319 439.7058326660408 L1142.5794375740843 470.1901537650665 L1127.4459905390795 473.3994208892109 L1118.8441507197276 481.69111162918125 L1108.4756412469542 477.4588557662719 L1099.900488280371 487.7333421179792 L1093.547015806973 485.96982474634206 L1069.188590940419 494.6554730024236 L1061.8603811695612 491.1302965493269 L1059.6834011547799 475.31810549006696 L1051.91552548451 470.8693588223159 L1052.3938873204352 461.2935895746523 L1041.604392745201 448.2790543668125 L1046.3746676779774 434.07614259505135 L1045.395260181289 423.3194299441493 L1039.2165865935312 422.6699575296261 L1025.057209684659 415.14574062999236 L1015.4786310538948 415.61588804308485 L1012.552417647581 423.0397572735146 L1001.8876841090496 419.64466113234084 L979.8983845972325 424.66669031763195 L961.6532505291507 422.39864716475495 L944.5282971061279 439.926040051223 L916.5738188287214 454.7440458693618 L901.3596440640795 474.34250315064855 L896.9603163848187 476.7266894391669 L898.9558258007455 483.51316514118116 L904.8562889483655 488.162607147322 L902.3690742701365 499.5316264093399 L903.3137888582241 511.77218376124983 L898.6669406195033 523.4180882586443 L898.6155684279183 533.0542519368428 L901.6878923531622 544.9157180939983 L912.2171901138718 564.5308999868248 L909.3370115285834 579.6295076206807 L901.2442234258451 584.3123988498883 L897.3105813274306 575.5812224846359 L888.9375812705875 581.8222900216551 L868.4954520481588 581.6959262900746 L870.3908857661991 591.8133871223836 L869.1559516542256 599.4704717691984 L876.6516214262374 597.4997550435692 L878.481672354992 600.4683735906547 L875.438703967804 616.4013535109825 L878.9233397683383 623.2937517527043 L887.2849979127568 628.7357545164868 L881.9042612228404 640.2385706707719 L880.1722844780234 637.4966635244691 L875.6908947264856 640.5052353102146 L873.9695927227622 672.0506400964969 L883.7703394028395 675.7867324839281 L884.420164267809 686.1392670227833 L888.6140031807445 695.6211926168453 L892.7404577904308 693.7879893638219 L895.3237451386412 695.2950626919519 L908.3849580559945 718.8321659892335 L906.9478710342846 722.3424761209717 L913.1138683669742 752.2330735105807 L905.6628990733698 761.8144176287551 L905.1291620179545 766.7054373570354 L916.1901953201268 775.3966604836278 L922.2974815767338 766.5632781590102 L931.3269782117277 760.852752465611 L929.8645386798889 763.3363572782473 L931.8126789321614 769.5086680789664 L934.9610603877918 770.7267772856103 L938.0507307673397 768.2914880174085 L942.4840841838814 755.5371134334109 L968.0961239593453 750.7613076956859 L967.7658741563027 757.319213706749 L976.7453329423624 786.3577850532656 L986.7809239268172 786.5807798737023 L993.4419623784088 790.3633295153941 L996.7017614443612 786.5315351841891 L1002.5335059461031 786.8595233992528 L1010.815103532208 800.1100614587231 L1015.0663191785934 802.7051636815795 L1015.7608445219521 810.8546952235174 L1028.1015124144906 809.8976757858036 L1027.923377672243 815.1492038071283 L1032.7810520478488 814.7951995296826 L1037.1136625951913 822.9159275739876 L1041.0499733788856 838.5144152636585 L1045.5000060784187 839.437056333225 L1062.6209564735218 857.5191488355285 L1131.6264860256233 900.5608657604989 L1141.4419104747285 902.442384557944 L1151.9291764423251 871.813116825635 L1207.1215910002684 834.3314040902642 L1107.5849675357276 758.8755317243922 L1097.1684217279653 747.0791057231963 L1090.7115377000737 745.8517050656956 L1094.1227846554975 738.5514121315973 L1089.07229776862 733.9205530271574 L1091.2239252732688 719.9071868527699 L1096.8315002117306 714.0907386196595 L1092.8218005829149 711.2744998665385 L1094.6331707147438 705.622510313513 L1087.1248246876676 691.8572258768618 L1092.5969638483293 688.3952312895544 L1112.3992757755805 688.9973173047365 L1131.4616947097602 668.6620479709145 L1131.26020897134 659.4430704359565 L1123.197443577963 649.4473276097979 L1118.639996296035 649.4928557189705 L1126.554649656533 635.0028381158954 L1132.321678540302 633.4260789063774 L1135.8203249385551 629.1863898827942 L1136.628269406192 613.2599139780596 L1140.6473094334724 611.4750262694633 L1138.2701780229181 610.2169638241558 L1139.7392892679454 607.520584787022 L1136.8804601648771 606.9696017515216 L1139.3529970740856 603.0606883782566 L1132.0087751915635 601.4802125883944 L1129.92653350412 595.7464582678676 L1130.4455927905146 592.1144301299737 L1138.0953791372704 588.4331573025756 L1136.4981709989333 585.0585023532713 L1148.1022817549965 578.511746083228 L1148.878869170625 582.1539948170557 L1154.7986802865198 579.7856039949893 L1159.5042396013268 581.7265880778868 L1162.0441608137808 577.1254616161696 L1164.1063873616476 578.8490257491412 L1164.562065372702 574.4485946258264 L1168.3709464344247 579.6350824911897 L1175.3722422588398 577.2518253477556 L1179.9697198199246 580.5326366434529 L1187.4547148508245 575.3554402289392 L1186.666118351448 573.0604518685959 L1190.3335590934657 573.0381523865508 L1189.2293905600782 569.2398072784181 L1192.760061181656 565.9209010342202 L1192.7347086715272 561.1896942605872 L1200.866859882106 553.6729105216364 L1202.0023854675092 542.1134165171607 L1207.1976485306586 537.7826712752285 L1205.852631151014 527.0027299971935 L1202.5347881802809 531.1355673359903 L1193.2437603881262 530.7759881880302 L1197.5997219316414 525.1983302418121 L1201.520687774988 525.6433907376031 L1201.2177919960413 519.3781654283684 L1204.3174699453702 519.2025570072728 L1203.5655678685544 515.9756361265136 L1206.7966785677781 515.6485770565359 L1208.1517035172183 510.4091279213135 L1218.4574988859895 509.5180777846508 L1223.3431944570002 518.7166141277339 L1229.9195021510386 514.8290710914262 L1230.423883668409 512.1540623912497 L1233.6883529335937 513.3517304060224 L1236.5204951839041 508.72272959174734 L1242.7458707639998 516.3203489531079 L1246.8463056922446 512.6595173175756 L1258.5985284811832 511.73873453818123 L1261.6007994178908 509.2337593885877 L1260.0683068975304 502.6284669781853 L1263.0245430132236 497.1901807947397 L1262.5088195834287 491.802068445897 L1269.4200472797456 490.6266999131676 L1274.1082601402559 493.87870771123016 L1279.7705431268987 491.91356585611356 L1282.1003053737877 482.24023637451137 L1289.6960508436823 477.8026394477856 L1290.7555188986844 472.8010514543639 L1288.1502148969266 466.39459609218466 L1295.7573022792458 469.1076997408545 L1305.3825829023517 466.61573262245474 L1309.1727831671342 468.27704403471944 L1324.6691713998152 439.3499700984248 L1319.8975621243917 427.1196333424541 L1321.0664462757595 420.76892668538676 L1313.561436105283 376.2786725726528 L1286.5103077941676 379.395954333364 L1266.8107402500827 361.3120035408883 L1266.7900579391753 352.2881464738093 L1262.4380994235762 348.1450885390823 L1258.579180512923 348.6189525325117 L1251.9288168024432 354.9780214953498 L1235.5063947786148 360.0334999037059 L1234.0693077569013 355.0439907963955 L1240.7570330612652 337.13286098975914 L1240.7570330612652 337.13286098975914 Z" key="130323" id="mapid-130323-outline"></path>
				<text x="1003.2954155927182" y="587.2020400647361" ox="1003.2954155927182" oy="587.2020400647361" fill="#1a6bbc" stroke="none" stroke-width="0" text-anchor="middle" alignment-baseline="middle" font-family="Microsoft YaHei" key="130323">抚宁县</text>
			</g>
			<g>
				<path autoSize="true" d="M875.6942305830853 643.6773366309517 L878.5890869373907 637.719658344904 L881.9042612228404 640.2385706707719 L887.2849979127568 628.7357545164868 L878.9233397683383 623.2937517527043 L875.438703967804 616.4013535109825 L878.481672354992 600.4683735906547 L876.6516214262374 597.4997550435692 L869.1559516542256 599.4704717691984 L870.3908857661991 591.8133871223836 L868.4954520481588 581.6959262900746 L888.9375812705875 581.8222900216551 L897.3105813274306 575.5812224846359 L901.2442234258451 584.3123988498883 L909.8534021297091 578.227427687174 L912.2171901138718 564.5308999868248 L901.6878923531622 544.9157180939983 L898.6155684279183 533.0542519368428 L898.6669406195033 523.4180882586443 L903.3137888582241 511.77218376124983 L902.3690742701365 499.5316264093399 L904.8562889483655 488.162607147322 L898.9558258007455 483.51316514118116 L896.9603163848187 476.7266894391669 L889.6134258170096 475.505792797263 L880.7113589039909 481.9271144808099 L865.453818003607 479.45280111902866 L837.6047527946394 453.2444057019093 L830.9323724306159 438.7924830473221 L815.9010026074611 445.35131820347306 L797.0821012048145 438.09562423345596 L774.3629162697107 436.6619533670564 L764.7523134156181 452.0300130756059 L760.7059193642526 486.06738498028244 L750.007827259753 490.39255535170196 L724.4251430223376 512.6288555297633 L729.1073513409756 524.426210676047 L726.025019845958 548.6257944190456 L735.7597165654224 556.6694034212778 L739.2690377047802 563.9120893601048 L737.072042550426 576.7881819502581 L738.8547243155153 605.1521939649465 L734.1965341643736 614.4743066043611 L732.0449066597321 626.0133594169693 L724.3604274043719 628.0760615060262 L722.3882689846141 631.2221467643776 L720.2820091296708 663.6911217653069 L716.8387379509222 678.2006514151726 L710.3278130461658 689.1376182125914 L703.8996173850028 712.4796010419941 L693.1728369137782 733.282230353645 L692.2935051149761 747.3281166060187 L699.488280621983 756.8657909051872 L693.3970064770547 761.9166235881221 L681.6888169951817 763.324278392136 L682.6762305476987 778.2026786408114 L672.6873415555892 784.0572218224061 L676.5008928165407 788.1854134357764 L679.0388125150348 799.2450273844388 L694.627937561112 812.2967283956896 L697.8437033199916 819.3061989181351 L729.6691095918068 830.7021633876284 L771.2045272442847 830.9985606697974 L802.0698739876716 835.370188295472 L805.3790437312528 831.7939088626954 L806.0735690746114 826.2478418493702 L816.0751343217853 827.5068334397602 L822.2998427305756 818.6465059076745 L826.7325289758046 809.7304296704751 L823.4660581966673 802.488672876736 L824.2980208317931 799.1065847667487 L831.3640322741849 799.8582631406462 L839.2419912121259 795.9335543009274 L841.8739820666415 798.4719786735895 L853.3273121045459 796.4046308591023 L866.7441273350669 789.7854012724238 L870.6344032977322 790.6643725229842 L889.0856933034738 780.063756246389 L897.744242684952 768.7309736426887 L905.1291620179545 766.7054373570354 L905.6628990733698 761.8144176287551 L913.0858471715728 750.371995905005 L906.9478710342846 722.3424761209717 L908.3849580559945 718.8321659892335 L895.3237451386412 695.2950626919519 L892.7404577904308 693.7879893638219 L888.6140031807445 695.6211926168453 L884.420164267809 686.1392670227833 L883.7703394028395 675.7867324839281 L873.9695927227622 672.0506400964969 L875.6942305830853 643.6773366309517 L875.6942305830853 643.6773366309517 Z" key="130324" id="mapid-130324-outline"></path>
				<text x="802.1462651037255" y="636.0160708312669" ox="802.1462651037255" oy="636.0160708312669" fill="#1a6bbc" stroke="none" stroke-width="0" text-anchor="middle" alignment-baseline="middle" font-family="Microsoft YaHei" key="130324">卢龙县</text>
			</g>
		</g>
		<g class="layer" fill="#52a3f5" stroke="#b1d9fc" stroke-width="1" font-size="11" font-family="SimSun">
			<circle id="mapid-130300-circle" r="4" cx="1217.6225110092055" cy="613.8392840274882" fill="#ffcd7a" data-courtname="秦皇岛市中级人民法院"></circle>
			<circle id="mapid-130304-circle" r="4" cx="1154.5053377937293" cy="729.8121995988604" fill="#ffcd7a" data-courtname="秦皇岛北戴河新区人民法院"></circle>
			<circle id="mapid-130324-circle" r="4" cx="744.1351743879895" cy="671.0354370648674" fill="#ffcd7a" data-courtname="卢龙县人民法院"></circle>
			<circle id="mapid-130302-circle" r="4" cx="1231.8936062892244" cy="617.6655867460813" fill="#ffcd7a" data-courtname="秦皇岛市山海关区人民法院"></circle>
			<circle id="mapid-130321-circle" r="4" cx="769.1833079412281" cy="191.3452811165589" fill="#ffcd7a" data-courtname="青龙满族自治县人民法院"></circle>
			<circle id="mapid-130304-circle" r="4" cx="1154.5053377937293" cy="729.8121995988604" fill="#ffcd7a" data-courtname="秦皇岛市北戴河区人民法院"></circle>
			<circle id="mapid-130302-circle" r="4" cx="1172.502608142786" cy="627.5347386934882" fill="#ffcd7a" data-courtname="秦皇岛经济技术开发区人民法院"></circle>
			<circle id="mapid-130323-circle" r="4" cx="973.1746867229813" cy="672.8650088806844" fill="#ffcd7a" data-courtname="河北省抚宁县人民法院"></circle>
			<circle id="mapid-130302-circle" r="4" cx="1231.8936062892244" cy="617.6655867460813" fill="#ffcd7a" data-courtname="河北省秦皇岛市海港区人民法院"></circle>
			<circle id="mapid-130322-circle" r="4" cx="924.4624525077597" cy="850.1333745535867" fill="#ffcd7a" data-courtname="秦皇岛市昌黎县人民法院"></circle>
		</g>
	</g>
</svg>