<?xml version="1.0" encoding="utf-8"?>
<!-- Generator: Adobe Illustrator 16.0.0, SVG Export Plug-In . SVG Version: 6.00 Build 0)  -->
<!DOCTYPE svg PUBLIC "-//W3C//DTD SVG 1.1//EN" "http://www.w3.org/Graphics/SVG/1.1/DTD/svg11.dtd">
<svg width="1920" height="1100" version="1.1" id="svgMap" viewBox="-190 0 1800 1050" xmlns="http://www.w3.org/2000/svg" xmlns:xlink="http://www.w3.org/1999/xlink">
	<g id="perspective" transform="scale(1,1) translate(0, 0)">
		<g class="layer" fill="#52a3f5" stroke="#b1d9fc" stroke-width="1" font-size="11" font-family="SimSun" id="svgMapBj">
			<path autoSize="true" d="M807.4638641084894 457.66420906925305 L789.6699303639834 452.6203859002817 L780.2428762808158 454.6877742286524 L773.473792180801 476.3898957187175 L777.9139882955533 494.7420591013815 L777.2353320141301 504.4108557536347 L774.9902213140558 505.9989591711219 L741.8915638093131 500.635332935517 L730.236275025949 493.93205920820947 L718.7702385271041 497.2744629124627 L703.7759126220226 494.6245461635099 L698.4828757983923 497.48011055373354 L691.211127987277 505.3979644317369 L691.9850131252315 509.6955804452373 L699.0156752235889 520.7317240674147 L717.603986391623 524.2890085723429 L718.7147888131694 545.2675861163789 L717.4346236784113 548.0795028439697 L713.5248161317431 548.8668395276909 L706.0445291790966 544.6498038144418 L703.0267387696222 550.4180103075669 L700.2717317870665 550.9778755187017 L692.3454362658158 540.8675659713081 L688.4585318618483 540.5754623828889 L691.1725542732383 544.6363737643969 L691.5775782706733 553.1149322316633 L697.728880231738 555.4492428046196 L706.1686883211587 564.9098736812211 L717.4388426783917 562.2230242946571 L719.9895295193783 554.3807144481398 L728.6499310359904 557.5921751644837 L751.1721583219805 591.1337251448676 L753.282261022905 601.6645631342071 L752.756694169093 615.1147582514695 L760.193585693447 617.3810791960932 L778.0532152946726 628.766404119362 L813.8315404967507 629.3061242554359 L824.7786399988727 634.4112220277257 L836.540609210133 626.1164873704165 L847.7125211394086 636.7035636943001 L855.7503188028095 638.4058225371537 L868.4778362936668 631.1896887738512 L898.0946133918951 625.460093674601 L911.0788871668374 619.2008509768093 L927.2430814930776 616.4829445995183 L930.8792567557757 603.7646872095538 L936.3573268639557 603.2845629205476 L934.2713327343045 590.7853832219007 L928.3520757717779 581.658824840104 L937.3343267149139 564.2795007073655 L939.208165417338 554.8599993590196 L928.2508197724164 540.7139597739515 L926.9350944950274 515.4344087038917 L921.1182989604313 510.76159066733453 L908.7542181815552 510.764108801719 L904.8377807777797 507.91274130213424 L900.6422866614776 492.7393028888364 L906.6778674804154 470.27334730262373 L905.7394413435031 458.6773384693133 L860.9619891983821 452.2636501960369 L850.6911351205563 458.0024784546913 L842.544246172125 469.54560646595746 L827.4106932679206 472.28030040580234 L812.5658405047543 468.226104049314 L807.4638641084894 457.66420906925305 L807.4638641084894 457.66420906925305 Z M893.4470835641696 962.2169197264593 L907.3607427618044 923.677712374114 L901.260068800424 905.2676319006441 L903.3665552156599 893.8302655334555 L901.7850329399589 883.6167124763633 L905.3639503458726 862.0161557397441 L910.3990254568562 853.5610998600532 L942.4242488255477 829.9645019359123 L962.8086485536514 801.9636869760616 L966.3140348171692 788.0442794854443 L966.1253852469381 769.0575462382913 L970.6963703608599 757.031775803629 L970.7144517893139 748.7168960712534 L982.4872698576473 735.8055817119348 L982.8880748551092 728.0723910220149 L978.4056887406296 712.2962791130667 L980.9834977243008 666.0817981616128 L979.6563208755651 655.7608047041831 L983.7379019925829 646.5091789813614 L995.4383943470857 638.0709106642244 L999.329517751019 630.3251293023859 L1014.9374067950739 618.9364468666008 L1019.1389280541953 610.6114945966965 L1007.4101081284425 612.9693077572283 L1000.8640283127424 619.3183639146791 L984.1164065616176 619.9092861165336 L961.5260725617663 616.8690585382337 L953.4551256128616 609.3515880271134 L933.4233137396695 603.0377857510248 L930.8792567557757 603.7646872095538 L927.8343442036312 615.6989654283079 L925.2975197911146 617.8695972663718 L911.0788871668374 619.2008509768093 L898.0946133918951 625.460093674601 L868.4778362936668 631.1896887738512 L855.7503188028095 638.4058225371537 L850.2107718378793 638.1540090988601 L844.3487727321299 632.9767248075968 L841.7070760345705 648.9022460232554 L845.9405411506232 658.3989701593418 L844.6718275872227 666.5736737444058 L838.5199229118844 676.3348019906989 L832.1010158096651 678.3904390252828 L829.3755418269247 687.2408420030952 L824.0758751461799 693.751898139175 L816.8306467634793 697.6457732732833 L812.5332939335422 703.2931093160296 L811.0548358000415 714.0606519373614 L817.0211044765565 726.9635725154003 L816.9885579053334 732.6386080363609 L794.5489024759627 734.0269394594707 L790.7331183572605 739.1412703911628 L788.1782125162899 751.2148853791041 L767.9987356440288 772.5317323085801 L772.8849403273889 780.7677104969589 L772.8674616132084 790.0436781854805 L778.2846575789154 793.8317916755041 L780.5333845646819 839.6828218976989 L800.1414882976969 836.0919622676665 L821.1611488789204 852.2835663497881 L817.2338626180644 861.0668190773849 L808.557187815848 868.4080201817014 L797.1827638878603 869.688071826351 L797.4244523148955 875.2170555530956 L786.1982961002504 885.275323656575 L786.8046266678393 892.2262139315426 L810.8468993727911 902.5497255233513 L811.1217370853301 906.5359322515014 L804.4804284130878 914.0433302250949 L805.7407039765421 917.9900861812403 L811.6473039391458 919.2785316071677 L815.5474680573134 914.9506979810703 L831.9937326674844 911.6460662925601 L834.698111650363 913.4994131983804 L835.5611985020478 920.6584692490032 L838.5717563401231 922.5269249611229 L837.7159020598338 934.6399907210598 L843.2542435962059 933.9080529937601 L846.2075435775077 926.6944373648439 L852.2021398252728 933.1307888475676 L862.2090050476363 937.0498453255077 L862.6459729020135 950.1894705355407 L865.1821946002383 960.6523188965384 L868.3621151515435 963.9603080975612 L884.6577011912377 969.6110016528146 L893.4470835641696 962.2169197264593 L893.4470835641696 962.2169197264593 Z M958.1225450118873 363.79739243369477 L943.6037606752252 364.1213923909618 L937.3861601431527 366.94422103420584 L933.7843395945274 367.0953090971816 L933.2858948834073 364.8625632776693 L926.8049082101425 366.88630394339634 L922.4834468089284 374.49610604856207 L915.8734792793475 373.8246035464508 L911.3000833082988 376.03720429090026 L907.1534090488276 380.98701710958085 L899.6839709532651 399.59267268679105 L887.2409346034619 409.14395640117436 L884.8987869039993 415.7481835094277 L886.4115997515619 428.6259227436385 L882.0587972076901 444.76380662559495 L890.8349198664255 457.13791898322415 L902.570369649271 457.48374277180847 L906.3554153395926 459.8877217293648 L906.0172926274536 474.6800824727179 L900.6422866614776 492.7393028888364 L905.4977529164498 509.2624613313801 L921.1182989604313 510.76159066733453 L927.3467483495697 516.4618075321214 L928.2508197724164 540.7139597739515 L939.208165417338 554.8599993590196 L937.3343267149139 564.2795007073655 L928.3520757717779 581.658824840104 L934.2713327343045 590.7853832219007 L936.3573268639557 603.2845629205476 L954.948048889124 610.150676004625 L961.5260725617663 616.8690585382337 L984.1164065616176 619.9092861165336 L1000.8640283127424 619.3183639146791 L1007.4101081284425 612.9693077572283 L1019.1389280541953 610.6114945966965 L1026.8018374342573 590.0425335789441 L1032.2166225428373 583.5675707023493 L1037.2565193680712 556.7653877087614 L1043.6868780416517 543.1800527129508 L1042.6725099052164 523.1382211593482 L1054.6171015438886 518.884252808486 L1070.4624600149982 520.0023044744976 L1073.189742140592 514.4976627134529 L1077.7974928257172 512.2170723406598 L1076.996485545078 497.207312662249 L1092.1583660205215 493.605541116558 L1102.5449412404814 477.080703917758 L1108.6070414878122 473.8088079762274 L1107.8506350640419 470.1247773740306 L1099.383704831922 465.8221250917577 L1087.5210823355847 450.54628254689123 L1087.3149540511731 446.21509140827766 L1097.5128797009056 425.0392600042451 L1089.0724688971932 421.4148252491068 L1074.679651845454 425.97516661655936 L1067.0884654649344 422.7536333626849 L1065.4261794754602 419.4607529679615 L1066.3995630407262 413.6455412996984 L1075.345048412666 404.93027820043426 L1076.344348692055 391.67649756504215 L1070.6408634424479 388.05542032241465 L1070.437146015167 385.7404154463911 L1072.8540302855763 384.28829128557663 L1080.556116093965 386.3279801357403 L1091.2476647405638 380.46996018295613 L1095.2539065723504 367.14735054109406 L1101.8313275307119 356.5795799141397 L1100.7235386805878 353.86419167123313 L1089.8795033206552 352.69409856130915 L1079.7080970993375 333.7761943206133 L1078.2579665370795 319.7820821766454 L1068.4313128850117 320.6970043357687 L1059.4074746564183 317.01717062420903 L1056.2016373909973 303.8750272797879 L1045.1255570325447 312.7455753326594 L1037.0136255124744 309.4728400130025 L1034.0717771025156 310.6790263824205 L1031.054589407333 316.21220699980404 L1035.7250223777664 326.12778082158184 L1033.705326819123 328.85659911453695 L1028.5020944234966 328.4822364696065 L1020.0562591912494 319.90966765204575 L1011.0034906771289 321.73027881089365 L1005.7743415673685 335.2056552719805 L1002.4045660172742 335.26609049717445 L993.7941897860692 346.55824444827704 L994.3143322113465 355.90052300888055 L992.1391363679722 359.1161806158598 L970.7186707892906 363.979537487392 L958.1225450118873 363.79739243369477 L958.1225450118873 363.79739243369477 Z M929.5575043355711 365.87317454334334 L970.7186707892906 363.979537487392 L992.1391363679722 359.1161806158598 L994.3143322113465 355.90052300888055 L993.7941897860692 346.55824444827704 L1002.4045660172742 335.26609049717445 L1005.7743415673685 335.2056552719805 L1011.0034906771289 321.73027881089365 L1020.0562591912494 319.90966765204575 L1028.5020944234966 328.4822364696065 L1035.1289379529735 327.520309135336 L1031.054589407333 316.21220699980404 L1035.4863475221318 309.46780374423906 L1045.1255570325447 312.7455753326594 L1056.2016373909973 303.8750272797879 L1058.3852712343105 316.0183106523218 L1066.0294964716413 320.1950562154434 L1072.89561757103 320.37132562224906 L1070.7222298705055 302.8937942485827 L1060.5074282208843 292.8615468670596 L1058.4003390913676 285.0889054051386 L1064.3364720537902 282.7537554540486 L1070.9247418692248 283.7156827883209 L1073.207220854776 277.1995903834759 L1064.171931054825 266.6939337379681 L1067.0625487508114 259.7799761006172 L1065.2815280478026 255.06183164516915 L1049.7785112887977 241.5293774713973 L1052.928296126007 237.49028992120475 L1050.8368775678173 226.8755141191068 L1062.7091434926588 213.39510138924743 L1065.9240214723104 204.92913359389604 L1066.4224661834378 197.34451283256385 L1063.6445560581706 195.81348712775434 L1061.918985069089 187.1771255724925 L1051.3726905644253 191.1171665036236 L1047.0771458773343 195.40974624835872 L1039.769837923588 195.56419182384707 L1034.54370238525 201.02938281289244 L1021.8173903229508 204.2635067386782 L1017.2494187804441 195.23851311032558 L994.9827423499737 188.16591300685104 L994.4173963535468 173.3064020132897 L986.5254555463689 172.35118970403528 L978.5515455968452 174.12563506585866 L973.3766407724615 179.2777380132975 L956.3746735943787 180.90361344653502 L952.6945001891072 187.85786123401158 L933.8042291658348 194.8062333745911 L933.6921243093966 201.53217031134773 L931.1185343256948 206.68259450253572 L924.3723533683988 209.4475060549703 L926.1268546430038 215.9367383597346 L938.1148417099757 234.50965818996337 L922.3080569528938 242.12785407639967 L917.2404352706944 258.9783699887248 L910.2254437436713 267.9345346106147 L903.9921726402754 269.56712506886834 L899.9991905226889 273.83200533539093 L899.3030555270998 278.3755591402969 L905.3103087747841 284.967195576628 L905.858778771315 291.8769563233418 L910.6563844552293 295.23698696827523 L911.6713553059453 299.9794733894214 L903.5298907860524 302.1349964211986 L901.9905585100823 309.05063281480034 L895.0382492683821 316.5252950414106 L898.7509692448875 324.4649727507367 L909.7354370324792 324.48595720392586 L913.4933605801234 340.7925560895346 L911.7328321626919 349.5271248857316 L900.4518289483967 371.44328779833995 L902.3967879360825 376.98486219700135 L906.5958983380733 382.2301361166119 L913.6386147220583 374.4188832608161 L922.4834468089284 374.49610604856207 L926.8049082101425 366.88630394339634 L929.5575043355711 365.87317454334334 L929.5575043355711 365.87317454334334 Z M882.7748217745866 0.8217511869606824 L876.1642515307285 0.8175542963181215 L872.1441472704573 10.086806959818205 L856.8575049386527 7.0272736845818145 L854.5503146675474 7.9245689030267386 L854.5521228103935 12.182734144527785 L850.3584368369447 17.368412217070727 L838.6742177680571 18.760101152698553 L825.9243998487655 24.285727366934225 L830.5918192477875 26.346400670281582 L840.0881854733816 40.50251279288932 L831.380169528511 52.56353710890471 L833.4848478009044 61.692613625091326 L825.7429828499153 71.09700616714144 L807.4487962514395 82.96581289192909 L804.3393932711224 88.99254784837103 L798.6431405928925 92.93846442639187 L801.5958378599207 98.16023575842883 L808.6258972439864 100.68088827572319 L811.0807525141645 107.7736334542551 L804.166414272222 127.77853237023919 L797.1839693164184 140.65962911695715 L797.6010475994917 152.91706791484467 L791.8119769218574 160.44628971975726 L784.4281242543111 164.40983323845649 L773.6654553224507 165.3532942539241 L768.5020020694246 171.6393970518002 L769.6676514906103 177.82981074312374 L778.2798358646651 189.72379881174493 L777.8290055818034 211.66178555567421 L775.8954981654715 218.42381575192485 L778.3184095787001 223.38286173000597 L777.818759439011 231.6440212622092 L807.3246371093737 227.36235343313638 L822.5419672987446 228.7490060999935 L834.1996669392393 234.74132655319227 L846.2171870060156 234.0538758666553 L848.7039861331323 230.4344773802859 L849.4676251282945 219.925463222271 L875.085392966128 220.74889316547888 L888.2980954539089 213.84584744379208 L897.2170613974486 204.53042898326748 L901.8567559395051 203.40818042661522 L921.7354783850969 205.12554807576453 L924.3723533683988 209.4475060549703 L927.4257039204967 209.13106050084934 L933.6921243093966 201.53217031134773 L934.4099570191465 194.18845107264679 L952.6945001891072 187.85786123401158 L956.3746735943787 180.90361344653502 L972.4894453495108 178.86140646199237 L971.7728180683262 169.95728328401492 L965.6504463928068 168.9240088088918 L965.0971546820219 165.675615454933 L972.3013984935569 152.89440470540285 L972.297782207861 143.29947332837946 L969.8453377948135 139.78583648609128 L966.4122772451228 139.5289867790343 L965.1049899676837 134.72102886392713 L953.7257443254384 122.36790095948527 L950.1444160623942 91.03727296729267 L936.9648628601135 80.34611375557506 L932.6126630305189 70.62107876877235 L931.6296360367378 59.34990927085528 L939.2871209882687 56.05367136362656 L940.2966674104464 52.25128844542451 L936.9311108603215 28.809975474900057 L912.7568437276459 24.24543721680857 L908.1683798995546 12.396775567078294 L887.1336514612813 7.718921261755895 L882.7748217745866 0.8217511869606824 L882.7748217745866 0.8217511869606824 Z M732.1077028712461 11.324889698082188 L729.6564638867603 13.0347029440818 L730.2591781686642 23.38087774534324 L718.452005386258 34.217249373139566 L713.3096471330973 31.45737408946661 L706.7671836030895 36.470979645844636 L702.1130239182639 36.65732159017898 L682.675488327026 27.495509327021864 L674.5961033781787 39.32234714542756 L661.8143416019484 41.52235721796387 L659.3866084744586 45.133361923062694 L659.7831944719474 59.830872937991444 L665.2582510087159 68.94316189162237 L649.484012822857 79.4605698309224 L647.8826009758559 97.60624619418559 L637.2917056143269 102.77093981353573 L627.6097033899059 102.62153050681627 L627.0298922507209 123.39362103145686 L638.3717696074964 130.03562015545322 L643.3833388614839 136.39558822855906 L640.0262203113052 144.1271001622281 L638.9877436035931 158.44185475095765 L638.9732784608241 178.75900233042012 L641.002617447979 188.4521409483732 L649.4852182514296 194.28497955732746 L652.2239519483737 211.0003555910971 L660.0634566130357 221.43634385201403 L661.5443256036524 229.4843013398022 L669.6912145520837 234.25616599542082 L680.7076261966286 231.97977251326483 L691.4745141284657 237.02107754785357 L704.6275479023461 232.19717144832248 L700.6942344986783 228.41745173957315 L706.1078141786929 213.89956764396084 L705.5219758966887 200.0003052284119 L698.4575617985465 187.8175710838841 L698.4316450844271 174.80133445860702 L693.9540806842015 167.8193871929234 L701.638085064129 165.29789529749723 L714.2993039839748 166.4696671636775 L721.1461382263442 164.49964669811925 L729.7607334575332 155.04657022466563 L728.6252197504291 147.80021884876805 L739.0799016842466 149.84158645518437 L743.2784093719492 162.9837297996055 L758.6150769891465 166.71224744256688 L764.24804466778 180.07766536893905 L772.7734381852388 182.50514691406715 L768.900998924033 175.62644315807847 L769.090853922833 170.38452675098415 L773.6654553224507 165.3532942539241 L788.4928293714365 162.47842416676758 L796.0960700375945 155.46458053222705 L798.6178265930575 149.93559680547878 L797.1839693164184 140.65962911695715 L804.166414272222 127.77853237023919 L811.0807525141645 107.7736334542551 L808.6258972439864 100.68088827572319 L801.5958378599207 98.16023575842883 L798.6431405928925 92.93846442639187 L804.3393932711224 88.99254784837103 L807.4487962514395 82.96581289192909 L829.3237083986751 67.59176310612565 L833.4848478009044 61.692613625091326 L831.380169528511 52.56353710890471 L839.9664371884428 41.708699162300036 L830.5918192477875 26.346400670281582 L825.0986812825613 23.96172740966722 L823.0446310098487 31.075457041391928 L814.8893040614821 35.056627500774994 L792.9197657719778 34.27348770769095 L786.9342102384508 27.24957153561627 L778.2659734361805 23.951654872131257 L776.5012260187832 36.43572576448241 L770.6392269130338 36.83191224073016 L765.5553319452156 29.447063473777234 L763.3680818161993 31.945892159748837 L763.0010288185294 40.3648547799512 L748.7769717657138 45.50017016483798 L738.9382638280003 31.66637924324823 L741.4045706695288 25.167913779079754 L739.5253075385699 11.848661649732094 L732.1077028712461 11.324889698082188 L732.1077028712461 11.324889698082188 Z M1147.8829176677536 730.2312715662974 L1147.4543878133263 722.5635523703295 L1142.86954027092 714.8463098648335 L1132.8409773344065 707.0266632277635 L1127.0284007997761 698.0713379839999 L1114.8957623051465 690.7435669297265 L1110.6454211891978 698.939254967976 L1099.8652735431606 703.8210781583166 L1095.1279392874312 714.0791182561697 L1083.0760645065857 724.1793552660329 L1061.7604712129432 722.2202467161223 L1051.8596837041987 705.9656892744242 L1046.3816135960224 705.6089535701776 L1034.678710384389 716.1582578783273 L1025.2769703010526 716.7861127178003 L1000.2908470306538 727.2044740380352 L982.8880748551092 728.0723910220149 L981.5313650065582 737.4952498828716 L970.7144517893139 748.7168960712534 L970.6963703608599 757.031775803629 L966.1253852469381 769.0575462382913 L966.3140348171692 788.0442794854443 L962.8086485536514 801.9636869760616 L942.4242488255477 829.9645019359123 L907.5976094745893 857.3290682750176 L904.7172379213989 863.8543938392704 L901.7850329399589 883.6167124763633 L903.3665552156599 893.8302655334555 L901.260068800424 903.4873108919237 L907.143765620327 925.0265930252262 L893.2463797083001 962.7558004844013 L884.3804526215717 970.4915093087038 L891.2821338635877 979.9647308572221 L886.8413350345581 995.4151640526416 L891.5852991473876 1005.8007896258987 L890.4365257260906 1021.4703005126321 L892.8787239963458 1029.3612942905493 L900.061872808008 1039.1996453245865 L904.7178406356761 1039.8703084485714 L907.5692819033429 1050.5413225852226 L925.2456863628686 1049.381302012829 L928.1338932017316 1051.55864887592 L935.4249278698626 1072.5019725386028 L935.1512955858707 1088.0220741186185 L944.8236543817984 1100 L952.451003619215 1088.6927372425998 L960.7576118523393 1063.821963320701 L963.9055885467023 1047.02684636481 L960.8299375661809 1029.9270351485793 L963.050939694971 1020.1239379959025 L972.9475082037534 1010.9612863546117 L979.575557161792 1000.1819924394931 L977.065854891971 986.8425952350808 L978.6757047389183 977.8268347661287 L994.2914290686313 961.098028682316 L998.8455381826643 959.7550236780935 L1003.9788557215979 962.0398109415255 L1014.6866776538045 948.6047246305607 L1014.2069170854193 939.9482180002378 L1016.9257612110596 934.2085503634516 L1018.7200416282722 919.948355353019 L1014.7873309388851 908.4715382138347 L1023.6984615967594 879.6464539326425 L1019.0153716264067 867.4880617538165 L1038.1684260765833 862.0144769834933 L1043.1842143305475 854.9116592674236 L1056.2866201047473 849.2189968057864 L1064.393729910571 849.3667273562496 L1068.761600311489 843.0999302553118 L1081.7097112295196 837.4685423969913 L1098.0752121259175 840.2846560152157 L1104.4055202287018 835.8468638543945 L1116.4248484383243 835.1375893365421 L1132.9717663335832 827.4413312842353 L1149.906229512082 841.4497128563762 L1171.5521102322018 845.2252356744848 L1180.2468664628723 840.887329510857 L1188.4154531254499 827.6142431785265 L1191.2102392506167 828.1430513989399 L1192.3951755288253 822.9800365358406 L1197.0089533567625 822.4537464498153 L1198.7676736313406 815.8176229727087 L1204.2776875964664 812.0865871953647 L1197.5393419248285 803.9261530384701 L1198.1969032063826 798.6095319780197 L1192.3855321003175 796.5429830277772 L1195.3611325100464 791.3556261989761 L1181.0340113150341 794.7811283378633 L1172.189781942452 793.0201130260848 L1172.3874722269065 787.3618650676763 L1180.495184747011 768.858613622042 L1171.6762693742749 761.810355484271 L1156.3582858998125 759.3207599576963 L1141.4465318513612 746.9088755843259 L1147.8829176677536 730.2312715662974 L1147.8829176677536 730.2312715662974 Z M1205.7736244441403 729.954276784174 L1205.5644825883137 727.8314894993837 L1212.6379374006792 721.8114695679633 L1204.0667375977937 721.7124229489018 L1203.4254496018511 714.9940404152931 L1200.4679306205799 712.3248179694037 L1208.1639892861458 709.273678475447 L1206.23229001266 703.5684253418967 L1208.6316955688999 693.8971105552591 L1207.449772862099 687.9652253272416 L1210.6833349844856 685.477308556925 L1210.0516904170545 681.0395163961111 L1214.6443732451153 679.7099414419299 L1214.7275478160227 673.2198697590356 L1219.123745788198 675.8395688953933 L1234.0891414077414 669.324315868671 L1234.0535812651106 666.7835182763156 L1226.350892742441 664.7043786541599 L1236.9128578184354 661.615467144451 L1232.6781872738138 656.6622968132633 L1234.8636292599804 647.1823602397253 L1232.4473477038482 642.3903505090475 L1233.7660865526414 639.7186099287774 L1239.4249709453907 638.9489001857346 L1240.1783637977642 635.4444965028451 L1248.1872311756342 636.914247604338 L1250.463080304089 631.2551602678086 L1257.1887689757896 634.1031702548808 L1259.5345329609445 631.6513467440564 L1259.146384963402 614.9426857353028 L1254.9135225616337 606.138448554515 L1257.1947961186088 600.466770546067 L1261.0973710939106 598.4228848052717 L1257.9361346853511 591.178212185634 L1261.6374030904917 587.5982644712622 L1260.0185125293137 583.9251457847204 L1265.849773206679 584.5571975148341 L1263.8095853624545 578.8158511217898 L1267.30472548318 566.3737491358243 L1272.5350800215056 566.0732517661309 L1275.4437791459386 555.5088386516854 L1282.4274295303076 545.9206222996854 L1283.317035810389 534.3682611290078 L1287.8813910672106 537.0475561124313 L1289.4237369145849 534.2096186628842 L1295.8468630167845 532.6995774112675 L1290.8612104769163 519.3224081911103 L1297.4952865777814 518.970708755629 L1299.6710851354328 512.5074971728209 L1306.5450415204868 512.922149967877 L1310.2408854970927 498.1776337777992 L1317.741062021043 495.6670537980335 L1319.8282615792596 478.433781459511 L1317.49696273687 474.331740549751 L1319.616708866306 469.94598983284413 L1318.219617160874 465.8674515106504 L1321.7503174242302 459.5469342095457 L1284.2681189472278 455.28373269927215 L1272.9172008762253 441.72106091291244 L1265.5586622085284 439.3926259868422 L1262.8578995113385 432.049746126273 L1236.6579096771893 418.77414165956 L1219.2334397874984 434.4789064276538 L1209.1446054227927 436.44556938070673 L1207.6583120036303 462.035690357985 L1205.0244505917362 467.35315079657084 L1181.9435071664157 468.51736825960324 L1179.1053256129526 466.4667674937864 L1177.6787009077052 458.4272037872761 L1167.502472972119 458.73609493824915 L1163.9030632806243 472.78644541676476 L1165.914320839318 485.2125992183119 L1159.914300163011 498.1835094246926 L1142.255374417662 497.84104314861725 L1127.2821435124497 505.3417260971819 L1090.5352564593632 494.08398664931156 L1079.9479773835337 494.97960311149836 L1076.6451031187207 498.39839022537126 L1077.7974928257172 512.2170723406598 L1073.189742140592 514.4976627134529 L1070.4624600149982 520.0023044744976 L1054.6171015438886 518.884252808486 L1042.6725099052164 523.1382211593482 L1043.6868780416517 543.1800527129508 L1037.2565193680712 556.7653877087614 L1034.8962902401581 575.0185044723621 L1031.3059212628832 585.5266792522543 L1026.8018374342573 590.0425335789441 L1017.0818642100712 615.8341053068561 L999.329517751019 630.3251293023859 L993.9177462138541 639.5792731595902 L983.7379019925829 646.5091789813614 L979.6563208755651 655.7608047041831 L980.9834977243008 666.0817981616128 L978.4056887406296 712.2962791130667 L982.8880748551092 728.0723910220149 L1000.2908470306538 727.2044740380352 L1025.2769703010526 716.7861127178003 L1034.678710384389 716.1582578783273 L1046.3816135960224 705.6089535701776 L1051.8596837041987 705.9656892744242 L1061.7604712129432 722.2202467161223 L1083.0760645065857 724.1793552660329 L1095.1279392874312 714.0791182561697 L1099.8652735431606 703.8210781583166 L1110.6454211891978 698.939254967976 L1114.8957623051465 690.7435669297265 L1127.8203673661883 698.773897476829 L1132.8409773344065 707.0266632277635 L1146.3032035348915 719.9967340560124 L1147.712952240261 732.770390402402 L1140.981236425734 746.1148238755814 L1156.3582858998125 759.3207599576963 L1171.6762693742749 761.810355484271 L1171.3508036620515 750.2521186667018 L1178.8316933289789 740.318917904242 L1194.9326026556191 751.8116832278502 L1200.0158949091528 752.271662441799 L1197.2331630696244 747.4989584080486 L1207.83671543108 742.2150730945759 L1208.5605752836345 733.3403281510655 L1205.7736244441403 729.954276784174 L1205.7736244441403 729.954276784174 Z M1334.7261531992299 425.92816144141034 L1341.7272822977684 426.07421323562085 L1338.056149606724 419.6412192654079 L1342.7151310057961 414.3052925080174 L1344.146577425312 401.49050663337584 L1349.9103341031077 395.75167837472145 L1350.4648312424579 390.3838552484758 L1353.3078345101712 389.7299796870502 L1353.9690120774176 383.0199909347157 L1362.1990755967454 369.20970260069953 L1362.8590477354192 363.0814028908226 L1366.8001964247596 356.363020357212 L1373.9598393794258 326.5810450105073 L1373.4155883828826 292.1262516272509 L1371.1343148258857 295.189981793128 L1343.3943900014929 294.83576422326587 L1336.0382621909266 299.70247860730706 L1326.0964901110056 296.8712561827815 L1320.3917994328294 299.50438536918045 L1315.9726983179498 297.1230696210732 L1309.682169357773 300.14315212431757 L1297.4934784349316 298.6591315946498 L1287.338948213499 301.5742918319338 L1274.3028410103143 300.27325573410053 L1253.1957868582103 290.1822518836416 L1250.402206161616 293.1981374962452 L1236.5476129636045 296.7755670762326 L1227.742560019342 306.4091098471272 L1227.8829924470301 312.0656790492794 L1220.720335920938 326.6616253107586 L1202.0988754673926 336.23892974710543 L1199.7247839109987 335.49104383537815 L1198.8164934881788 326.86979108641754 L1197.2868046407166 327.1216045247056 L1192.9207423826447 345.5241305950276 L1191.1927605364435 345.3000166349466 L1191.259059107444 340.08160281542587 L1188.8837621224884 338.2324528002446 L1175.619828920735 348.9991560434446 L1170.3177513828705 349.5674150358591 L1153.204884776922 335.71515779545916 L1141.7430672780465 337.48876377915803 L1136.4096485975278 349.64211968922064 L1138.9060911531524 358.32128952899075 L1137.9321048736056 363.00166196869213 L1131.736202055683 375.77112142444275 L1126.5028339459568 381.5074315487145 L1117.994316428394 381.1481777100871 L1107.8590730639771 384.1279700631985 L1103.7678485184479 380.0502711191348 L1093.6018667256649 383.6260219428732 L1090.3285254606708 381.2925507480413 L1080.556116093965 386.3279801357403 L1071.3460391522713 384.5367472113576 L1070.6408634424479 388.05542032241465 L1076.344348692055 391.67649756504215 L1075.345048412666 404.93027820043426 L1066.3995630407262 413.6455412996984 L1065.3653053329908 418.1135510731074 L1067.0884654649344 422.7536333626849 L1074.679651845454 425.97516661655936 L1089.0724688971932 421.4148252491068 L1097.5128797009056 425.0392600042451 L1087.3149540511731 446.21509140827766 L1087.5210823355847 450.54628254689123 L1099.383704831922 465.8221250917577 L1109.1295947702274 472.01673567372745 L1102.5449412404814 477.080703917758 L1097.2633559882051 487.6031481258233 L1090.5352564593632 494.08398664931156 L1127.2821435124497 505.3417260971819 L1142.255374417662 497.84104314861725 L1160.7581001576764 497.44905356301206 L1165.914320839318 485.2125992183119 L1164.03566042264 471.2537409557044 L1168.733215535758 458.0561986548619 L1177.6787009077052 458.4272037872761 L1179.1053256129526 466.4667674937864 L1181.9435071664157 468.51736825960324 L1205.870058729237 466.76222859471454 L1209.1446054227927 436.44556938070673 L1219.2334397874984 434.4789064276538 L1235.2535854003618 418.9117996724908 L1262.8578995113385 432.049746126273 L1265.5586622085284 439.3926259868422 L1272.9172008762253 441.72106091291244 L1284.2681189472278 455.28373269927215 L1321.7503174242302 459.5469342095457 L1323.096178415708 453.24152571473496 L1320.8378080014336 449.4173189652174 L1320.4159080041027 440.8707708696129 L1321.9449941372877 437.3957454211959 L1318.8259477284519 432.2352486924792 L1320.1211807202562 424.5406693964287 L1325.1116549743783 427.3744099553296 L1334.7261531992299 425.92816144141034 L1334.7261531992299 425.92816144141034 Z M732.1257842997002 561.3215321855714 L721.1732603690289 554.061750759638 L715.4450638338676 563.6961329086625 L703.4884179095534 563.9143712218465 L697.728880231738 555.4492428046196 L691.5775782706733 553.1149322316633 L691.1725542732383 544.6363737643969 L688.4585318618483 540.5754623828889 L670.3373242622765 534.8643336024415 L660.7981653226634 526.640106707855 L653.6071812253322 535.1060745032064 L656.7792664909684 536.6941779206954 L659.3438157604469 542.2038559505036 L657.2698759164268 546.25889168512 L631.3380939377348 557.7432632274576 L625.6068838311585 563.5593142738562 L623.8764911278304 568.8482358561014 L625.6912638306239 582.747498271643 L621.6560917133102 594.9763982131935 L611.4708230635042 596.498190758597 L606.8220878072207 614.7689344628834 L600.412824133502 615.6292970437116 L585.8367819400664 609.1056502357114 L579.4329426948898 609.9349558258164 L570.9081518917119 606.636199784205 L560.0930468173174 610.220344389214 L549.4430854561688 610.371432452188 L550.8787508756541 620.5589647873257 L547.2287131844714 625.8109537319506 L546.0401606205705 653.3442350747155 L551.8195878696934 668.3456009718466 L548.1864261784176 682.1088841307155 L563.9901973640772 674.5737866789204 L573.4190595901018 664.4257051157838 L579.8482128351243 663.7214668666966 L602.9713462601685 668.4446475909099 L618.5762217328156 683.7179720014028 L626.5995542534474 686.3544587003107 L644.3597359981577 709.1234297905976 L648.7860696844255 708.2739791254335 L646.898971267794 696.89117233654 L648.9168586835913 680.0003662740928 L651.4151093820692 681.5045318788216 L656.0505849241526 693.8551416488772 L676.5392542230111 700.4803532103142 L679.5968237750894 723.0461947937201 L700.5815269279628 727.1683807785466 L704.3159446186037 730.7978518024556 L681.1723189079712 741.052534387798 L683.0485684675223 747.2706475573359 L692.1013369816501 752.9230198688474 L690.4866654204379 755.5804910209463 L674.6611965206212 761.9026870783091 L664.3987804427306 759.6414024024562 L659.4673721882355 762.7126869714793 L646.7181569832283 762.8503449844102 L642.171280440587 766.6644791963972 L639.026317317639 773.4281881488987 L643.56837214603 777.0752861134824 L647.4781796926982 785.8232849597189 L661.8920917443138 788.4732017086717 L671.2022192568002 794.8113459504602 L678.7698997803273 806.3427226679396 L684.5125614582576 822.0139123109275 L713.891869129413 822.3689692589232 L721.687978365775 824.877031104299 L736.0910415603103 847.2112043244779 L748.2218719120901 855.133255093122 L746.5276420656701 866.8425799736578 L758.1298919922192 880.443863153896 L764.5060063804303 883.4035104319446 L779.4937024284154 883.040899080801 L785.4418896764691 869.1382791527467 L808.557187815848 868.4080201817014 L817.2338626180644 861.0668190773849 L821.1611488789204 852.2835663497881 L800.1414882976969 836.0919622676665 L780.5333845646819 839.6828218976989 L778.2846575789154 793.8317916755041 L772.8674616132084 790.0436781854805 L772.8849403273889 780.7677104969589 L767.9987356440288 772.5317323085801 L788.1782125162899 751.2148853791041 L790.7331183572605 739.1412703911628 L794.5489024759627 734.0269394594707 L816.9885579053334 732.6386080363609 L817.0211044765565 726.9635725154003 L811.0548358000415 714.0606519373614 L812.5332939335422 703.2931093160296 L816.8306467634793 697.6457732732833 L824.0758751461799 693.751898139175 L829.3755418269247 687.2408420030952 L832.1010158096651 678.3904390252828 L838.5199229118844 676.3348019906989 L844.6718275872227 666.5736737444058 L845.9405411506232 658.3989701593418 L841.7070760345705 648.9022460232554 L844.3487727321299 632.9767248075968 L836.540609210133 626.1164873704165 L824.7786399988727 634.4112220277257 L813.8315404967507 629.3061242554359 L778.0532152946726 628.766404119362 L760.193585693447 617.3810791960932 L752.756694169093 615.1147582514695 L753.282261022905 601.6645631342071 L751.1721583219805 591.1337251448676 L732.1257842997002 561.3215321855714 L732.1257842997002 561.3215321855714 Z M909.7354370324792 324.48595720392586 L898.7509692448875 324.4649727507367 L895.1949549816745 319.07112890253484 L895.8736112630904 314.1750362840303 L901.9905585100823 309.05063281480034 L903.5298907860524 302.1349964211986 L911.6713553059453 299.9794733894214 L910.6563844552293 295.23698696827523 L905.858778771315 291.8769563233418 L905.8437109142651 286.1079104520886 L899.190347956388 275.9304506544904 L903.9921726402754 269.56712506886834 L910.2254437436713 267.9345346106147 L917.2404352706944 258.9783699887248 L922.3080569528938 242.12785407639967 L938.1148417099757 234.50965818996337 L926.1268546430038 215.9367383597346 L922.698615807567 205.80460498102548 L901.8567559395051 203.40818042661522 L897.2170613974486 204.53042898326748 L888.2980954539089 213.84584744379208 L875.085392966128 220.74889316547888 L849.4676251282945 219.925463222271 L848.7039861331323 230.4344773802859 L843.8141651640908 234.60031102775247 L834.1996669392393 234.74132655319227 L822.5419672987446 228.7490060999935 L807.3246371093737 227.36235343313638 L777.818759439011 231.6440212622092 L778.3184095787001 223.38286173000597 L775.8954981654715 218.42381575192485 L778.766226290154 197.8892692374029 L777.6150420117301 187.84107367145225 L772.7734381852388 182.50514691406715 L764.24804466778 180.07766536893905 L758.6150769891465 166.71224744256688 L743.2784093719492 162.9837297996055 L739.0799016842466 149.84158645518437 L728.6252197504291 147.80021884876805 L729.7607334575332 155.04657022466563 L721.1461382263442 164.49964669811925 L694.5724655374288 167.30233026629867 L698.4316450844271 174.80133445860702 L698.4575617985465 187.8175710838841 L704.1700877623844 195.61455451150505 L705.7552263237849 201.9745225846109 L706.1078141786929 213.89956764396084 L700.6942344986783 228.41745173957315 L704.6275479023461 232.19717144832248 L715.6439595468983 234.05135773227448 L716.9253301102108 238.2440514798236 L722.1394113629176 242.48458978064627 L716.9825879669916 253.99582142306645 L709.8868327261916 256.61384180317145 L706.2639171777082 276.71526920382894 L707.8725615960902 281.8799628231791 L702.5204587728331 285.44312297500437 L699.5900619342356 297.01227170822676 L694.8153593930365 298.9915253331965 L695.7646343870292 303.8641153641329 L703.4058460529413 308.196145880871 L703.8627034786186 317.59550215414674 L699.0367702234544 324.0713044088734 L704.5913850454381 333.44883685084096 L704.9276996147382 344.6671255267138 L707.1854673147209 349.4918710043712 L698.2243113714576 360.5850923392263 L682.4404297570909 357.68252277385363 L679.7607620597664 359.3856209948299 L677.9911929281079 377.05620933785576 L664.810434297262 378.0651418472753 L662.7847115958066 392.07436279754074 L651.5254060956504 391.04864272557097 L649.3001849668763 411.2449198546474 L663.5953623049572 415.36626646134937 L667.344847852648 424.4592497180438 L664.8737192968692 429.99914536045435 L652.2733745194928 436.950875013541 L644.8702349949235 451.9488833981668 L640.4083411660285 482.7582575731012 L647.3425689792748 491.9888988427265 L650.1421768186883 499.87065946124494 L647.9265991184329 504.8683168331936 L638.1475598946308 514.1535176811194 L640.6319481646169 526.5813502389174 L653.6071812253322 535.1060745032064 L662.4194667409756 526.3429668506687 L670.3373242622765 534.8643336024415 L692.3454362658158 540.8675659713081 L700.2717317870665 550.9778755187017 L703.0267387696222 550.4180103075669 L706.0445291790966 544.6498038144418 L711.717878714604 548.2817929727262 L716.819252396599 548.4748499420839 L718.8479886694695 543.7852443429747 L717.603986391623 524.2890085723429 L699.0156752235889 520.7317240674147 L691.2894808439232 507.61308331056716 L692.8812492624238 502.7463689265296 L702.3300010597486 494.89398654248 L718.7702385271041 497.2744629124627 L730.236275025949 493.93205920820947 L741.8915638093131 500.635332935517 L774.9902213140558 505.9989591711219 L777.2353320141301 504.4108557536347 L777.9139882955533 494.7420591013815 L773.473792180801 476.3898957187175 L778.7499530045388 457.3553179182836 L782.18662983994 453.2935671586474 L789.6699303639834 452.6203859002817 L805.4013758358305 456.10632326435734 L809.3636195250365 459.45208448112317 L812.5658405047543 468.226104049314 L827.4106932679206 472.28030040580234 L842.544246172125 469.54560646595746 L850.6911351205563 458.0024784546913 L860.9619891983821 452.2636501960369 L888.374640167709 457.08084127054644 L881.843025494778 442.93312292921837 L886.4115997515619 428.6259227436385 L884.8987869039993 415.7481835094277 L888.4891558812778 407.4719151709196 L900.7477616608085 398.11117029151137 L906.4536577675499 385.3022600637614 L900.4518289483967 371.44328779833995 L912.9756290119767 346.2518714316884 L909.7354370324792 324.48595720392586 L909.7354370324792 324.48595720392586 Z"></path>
		</g>
		<g class="layer" fill="#52a3f5" stroke="#b1d9fc" stroke-width="1" font-size="11" font-family="SimSun">
			<g>
				<path autoSize="true" d="M807.4638641084894 457.66420906925305 L789.6699303639834 452.6203859002817 L780.2428762808158 454.6877742286524 L773.473792180801 476.3898957187175 L777.9139882955533 494.7420591013815 L777.2353320141301 504.4108557536347 L774.9902213140558 505.9989591711219 L741.8915638093131 500.635332935517 L730.236275025949 493.93205920820947 L718.7702385271041 497.2744629124627 L703.7759126220226 494.6245461635099 L698.4828757983923 497.48011055373354 L691.211127987277 505.3979644317369 L691.9850131252315 509.6955804452373 L699.0156752235889 520.7317240674147 L717.603986391623 524.2890085723429 L718.7147888131694 545.2675861163789 L717.4346236784113 548.0795028439697 L713.5248161317431 548.8668395276909 L706.0445291790966 544.6498038144418 L703.0267387696222 550.4180103075669 L700.2717317870665 550.9778755187017 L692.3454362658158 540.8675659713081 L688.4585318618483 540.5754623828889 L691.1725542732383 544.6363737643969 L691.5775782706733 553.1149322316633 L697.728880231738 555.4492428046196 L706.1686883211587 564.9098736812211 L717.4388426783917 562.2230242946571 L719.9895295193783 554.3807144481398 L728.6499310359904 557.5921751644837 L751.1721583219805 591.1337251448676 L753.282261022905 601.6645631342071 L752.756694169093 615.1147582514695 L760.193585693447 617.3810791960932 L778.0532152946726 628.766404119362 L813.8315404967507 629.3061242554359 L824.7786399988727 634.4112220277257 L836.540609210133 626.1164873704165 L847.7125211394086 636.7035636943001 L855.7503188028095 638.4058225371537 L868.4778362936668 631.1896887738512 L898.0946133918951 625.460093674601 L911.0788871668374 619.2008509768093 L927.2430814930776 616.4829445995183 L930.8792567557757 603.7646872095538 L936.3573268639557 603.2845629205476 L934.2713327343045 590.7853832219007 L928.3520757717779 581.658824840104 L937.3343267149139 564.2795007073655 L939.208165417338 554.8599993590196 L928.2508197724164 540.7139597739515 L926.9350944950274 515.4344087038917 L921.1182989604313 510.76159066733453 L908.7542181815552 510.764108801719 L904.8377807777797 507.91274130213424 L900.6422866614776 492.7393028888364 L906.6778674804154 470.27334730262373 L905.7394413435031 458.6773384693133 L860.9619891983821 452.2636501960369 L850.6911351205563 458.0024784546913 L842.544246172125 469.54560646595746 L827.4106932679206 472.28030040580234 L812.5658405047543 468.226104049314 L807.4638641084894 457.66420906925305 L807.4638641084894 457.66420906925305 Z" key="131102" id="mapid-131102-outline"></path>
				<text x="815.1903598452845" y="545.3347363665926" ox="815.1903598452845" oy="545.3347363665926" fill="#1a6bbc" stroke="none" stroke-width="0" text-anchor="middle" alignment-baseline="middle" font-family="Microsoft YaHei" key="131102">桃城区</text>
			</g>
			<g>
				<path autoSize="true" d="M893.4470835641696 962.2169197264593 L907.3607427618044 923.677712374114 L901.260068800424 905.2676319006441 L903.3665552156599 893.8302655334555 L901.7850329399589 883.6167124763633 L905.3639503458726 862.0161557397441 L910.3990254568562 853.5610998600532 L942.4242488255477 829.9645019359123 L962.8086485536514 801.9636869760616 L966.3140348171692 788.0442794854443 L966.1253852469381 769.0575462382913 L970.6963703608599 757.031775803629 L970.7144517893139 748.7168960712534 L982.4872698576473 735.8055817119348 L982.8880748551092 728.0723910220149 L978.4056887406296 712.2962791130667 L980.9834977243008 666.0817981616128 L979.6563208755651 655.7608047041831 L983.7379019925829 646.5091789813614 L995.4383943470857 638.0709106642244 L999.329517751019 630.3251293023859 L1014.9374067950739 618.9364468666008 L1019.1389280541953 610.6114945966965 L1007.4101081284425 612.9693077572283 L1000.8640283127424 619.3183639146791 L984.1164065616176 619.9092861165336 L961.5260725617663 616.8690585382337 L953.4551256128616 609.3515880271134 L933.4233137396695 603.0377857510248 L930.8792567557757 603.7646872095538 L927.8343442036312 615.6989654283079 L925.2975197911146 617.8695972663718 L911.0788871668374 619.2008509768093 L898.0946133918951 625.460093674601 L868.4778362936668 631.1896887738512 L855.7503188028095 638.4058225371537 L850.2107718378793 638.1540090988601 L844.3487727321299 632.9767248075968 L841.7070760345705 648.9022460232554 L845.9405411506232 658.3989701593418 L844.6718275872227 666.5736737444058 L838.5199229118844 676.3348019906989 L832.1010158096651 678.3904390252828 L829.3755418269247 687.2408420030952 L824.0758751461799 693.751898139175 L816.8306467634793 697.6457732732833 L812.5332939335422 703.2931093160296 L811.0548358000415 714.0606519373614 L817.0211044765565 726.9635725154003 L816.9885579053334 732.6386080363609 L794.5489024759627 734.0269394594707 L790.7331183572605 739.1412703911628 L788.1782125162899 751.2148853791041 L767.9987356440288 772.5317323085801 L772.8849403273889 780.7677104969589 L772.8674616132084 790.0436781854805 L778.2846575789154 793.8317916755041 L780.5333845646819 839.6828218976989 L800.1414882976969 836.0919622676665 L821.1611488789204 852.2835663497881 L817.2338626180644 861.0668190773849 L808.557187815848 868.4080201817014 L797.1827638878603 869.688071826351 L797.4244523148955 875.2170555530956 L786.1982961002504 885.275323656575 L786.8046266678393 892.2262139315426 L810.8468993727911 902.5497255233513 L811.1217370853301 906.5359322515014 L804.4804284130878 914.0433302250949 L805.7407039765421 917.9900861812403 L811.6473039391458 919.2785316071677 L815.5474680573134 914.9506979810703 L831.9937326674844 911.6460662925601 L834.698111650363 913.4994131983804 L835.5611985020478 920.6584692490032 L838.5717563401231 922.5269249611229 L837.7159020598338 934.6399907210598 L843.2542435962059 933.9080529937601 L846.2075435775077 926.6944373648439 L852.2021398252728 933.1307888475676 L862.2090050476363 937.0498453255077 L862.6459729020135 950.1894705355407 L865.1821946002383 960.6523188965384 L868.3621151515435 963.9603080975612 L884.6577011912377 969.6110016528146 L893.4470835641696 962.2169197264593 L893.4470835641696 962.2169197264593 Z" key="131121" id="mapid-131121-outline"></path>
				<text x="869.59948757229" y="786.3243937019233" ox="869.59948757229" oy="786.3243937019233" fill="#1a6bbc" stroke="none" stroke-width="0" text-anchor="middle" alignment-baseline="middle" font-family="Microsoft YaHei" key="131121">枣强县</text>
			</g>
			<g>
				<path autoSize="true" d="M958.1225450118873 363.79739243369477 L943.6037606752252 364.1213923909618 L937.3861601431527 366.94422103420584 L933.7843395945274 367.0953090971816 L933.2858948834073 364.8625632776693 L926.8049082101425 366.88630394339634 L922.4834468089284 374.49610604856207 L915.8734792793475 373.8246035464508 L911.3000833082988 376.03720429090026 L907.1534090488276 380.98701710958085 L899.6839709532651 399.59267268679105 L887.2409346034619 409.14395640117436 L884.8987869039993 415.7481835094277 L886.4115997515619 428.6259227436385 L882.0587972076901 444.76380662559495 L890.8349198664255 457.13791898322415 L902.570369649271 457.48374277180847 L906.3554153395926 459.8877217293648 L906.0172926274536 474.6800824727179 L900.6422866614776 492.7393028888364 L905.4977529164498 509.2624613313801 L921.1182989604313 510.76159066733453 L927.3467483495697 516.4618075321214 L928.2508197724164 540.7139597739515 L939.208165417338 554.8599993590196 L937.3343267149139 564.2795007073655 L928.3520757717779 581.658824840104 L934.2713327343045 590.7853832219007 L936.3573268639557 603.2845629205476 L954.948048889124 610.150676004625 L961.5260725617663 616.8690585382337 L984.1164065616176 619.9092861165336 L1000.8640283127424 619.3183639146791 L1007.4101081284425 612.9693077572283 L1019.1389280541953 610.6114945966965 L1026.8018374342573 590.0425335789441 L1032.2166225428373 583.5675707023493 L1037.2565193680712 556.7653877087614 L1043.6868780416517 543.1800527129508 L1042.6725099052164 523.1382211593482 L1054.6171015438886 518.884252808486 L1070.4624600149982 520.0023044744976 L1073.189742140592 514.4976627134529 L1077.7974928257172 512.2170723406598 L1076.996485545078 497.207312662249 L1092.1583660205215 493.605541116558 L1102.5449412404814 477.080703917758 L1108.6070414878122 473.8088079762274 L1107.8506350640419 470.1247773740306 L1099.383704831922 465.8221250917577 L1087.5210823355847 450.54628254689123 L1087.3149540511731 446.21509140827766 L1097.5128797009056 425.0392600042451 L1089.0724688971932 421.4148252491068 L1074.679651845454 425.97516661655936 L1067.0884654649344 422.7536333626849 L1065.4261794754602 419.4607529679615 L1066.3995630407262 413.6455412996984 L1075.345048412666 404.93027820043426 L1076.344348692055 391.67649756504215 L1070.6408634424479 388.05542032241465 L1070.437146015167 385.7404154463911 L1072.8540302855763 384.28829128557663 L1080.556116093965 386.3279801357403 L1091.2476647405638 380.46996018295613 L1095.2539065723504 367.14735054109406 L1101.8313275307119 356.5795799141397 L1100.7235386805878 353.86419167123313 L1089.8795033206552 352.69409856130915 L1079.7080970993375 333.7761943206133 L1078.2579665370795 319.7820821766454 L1068.4313128850117 320.6970043357687 L1059.4074746564183 317.01717062420903 L1056.2016373909973 303.8750272797879 L1045.1255570325447 312.7455753326594 L1037.0136255124744 309.4728400130025 L1034.0717771025156 310.6790263824205 L1031.054589407333 316.21220699980404 L1035.7250223777664 326.12778082158184 L1033.705326819123 328.85659911453695 L1028.5020944234966 328.4822364696065 L1020.0562591912494 319.90966765204575 L1011.0034906771289 321.73027881089365 L1005.7743415673685 335.2056552719805 L1002.4045660172742 335.26609049717445 L993.7941897860692 346.55824444827704 L994.3143322113465 355.90052300888055 L992.1391363679722 359.1161806158598 L970.7186707892906 363.979537487392 L958.1225450118873 363.79739243369477 L958.1225450118873 363.79739243369477 Z" key="131122" id="mapid-131122-outline"></path>
				<text x="1002.8695600857573" y="461.8921566981626" ox="1002.8695600857573" oy="461.8921566981626" fill="#1a6bbc" stroke="none" stroke-width="0" text-anchor="middle" alignment-baseline="middle" font-family="Microsoft YaHei" key="131122">武邑县</text>
			</g>
			<g>
				<path autoSize="true" d="M929.5575043355711 365.87317454334334 L970.7186707892906 363.979537487392 L992.1391363679722 359.1161806158598 L994.3143322113465 355.90052300888055 L993.7941897860692 346.55824444827704 L1002.4045660172742 335.26609049717445 L1005.7743415673685 335.2056552719805 L1011.0034906771289 321.73027881089365 L1020.0562591912494 319.90966765204575 L1028.5020944234966 328.4822364696065 L1035.1289379529735 327.520309135336 L1031.054589407333 316.21220699980404 L1035.4863475221318 309.46780374423906 L1045.1255570325447 312.7455753326594 L1056.2016373909973 303.8750272797879 L1058.3852712343105 316.0183106523218 L1066.0294964716413 320.1950562154434 L1072.89561757103 320.37132562224906 L1070.7222298705055 302.8937942485827 L1060.5074282208843 292.8615468670596 L1058.4003390913676 285.0889054051386 L1064.3364720537902 282.7537554540486 L1070.9247418692248 283.7156827883209 L1073.207220854776 277.1995903834759 L1064.171931054825 266.6939337379681 L1067.0625487508114 259.7799761006172 L1065.2815280478026 255.06183164516915 L1049.7785112887977 241.5293774713973 L1052.928296126007 237.49028992120475 L1050.8368775678173 226.8755141191068 L1062.7091434926588 213.39510138924743 L1065.9240214723104 204.92913359389604 L1066.4224661834378 197.34451283256385 L1063.6445560581706 195.81348712775434 L1061.918985069089 187.1771255724925 L1051.3726905644253 191.1171665036236 L1047.0771458773343 195.40974624835872 L1039.769837923588 195.56419182384707 L1034.54370238525 201.02938281289244 L1021.8173903229508 204.2635067386782 L1017.2494187804441 195.23851311032558 L994.9827423499737 188.16591300685104 L994.4173963535468 173.3064020132897 L986.5254555463689 172.35118970403528 L978.5515455968452 174.12563506585866 L973.3766407724615 179.2777380132975 L956.3746735943787 180.90361344653502 L952.6945001891072 187.85786123401158 L933.8042291658348 194.8062333745911 L933.6921243093966 201.53217031134773 L931.1185343256948 206.68259450253572 L924.3723533683988 209.4475060549703 L926.1268546430038 215.9367383597346 L938.1148417099757 234.50965818996337 L922.3080569528938 242.12785407639967 L917.2404352706944 258.9783699887248 L910.2254437436713 267.9345346106147 L903.9921726402754 269.56712506886834 L899.9991905226889 273.83200533539093 L899.3030555270998 278.3755591402969 L905.3103087747841 284.967195576628 L905.858778771315 291.8769563233418 L910.6563844552293 295.23698696827523 L911.6713553059453 299.9794733894214 L903.5298907860524 302.1349964211986 L901.9905585100823 309.05063281480034 L895.0382492683821 316.5252950414106 L898.7509692448875 324.4649727507367 L909.7354370324792 324.48595720392586 L913.4933605801234 340.7925560895346 L911.7328321626919 349.5271248857316 L900.4518289483967 371.44328779833995 L902.3967879360825 376.98486219700135 L906.5958983380733 382.2301361166119 L913.6386147220583 374.4188832608161 L922.4834468089284 374.49610604856207 L926.8049082101425 366.88630394339634 L929.5575043355711 365.87317454334334 L929.5575043355711 365.87317454334334 Z" key="131123" id="mapid-131123-outline"></path>
				<text x="985.4619661959478" y="277.2906629103254" ox="985.4619661959478" oy="277.2906629103254" fill="#1a6bbc" stroke="none" stroke-width="0" text-anchor="middle" alignment-baseline="middle" font-family="Microsoft YaHei" key="131123">武强县</text>
			</g>
			<g>
				<path autoSize="true" d="M882.7748217745866 0.8217511869606824 L876.1642515307285 0.8175542963181215 L872.1441472704573 10.086806959818205 L856.8575049386527 7.0272736845818145 L854.5503146675474 7.9245689030267386 L854.5521228103935 12.182734144527785 L850.3584368369447 17.368412217070727 L838.6742177680571 18.760101152698553 L825.9243998487655 24.285727366934225 L830.5918192477875 26.346400670281582 L840.0881854733816 40.50251279288932 L831.380169528511 52.56353710890471 L833.4848478009044 61.692613625091326 L825.7429828499153 71.09700616714144 L807.4487962514395 82.96581289192909 L804.3393932711224 88.99254784837103 L798.6431405928925 92.93846442639187 L801.5958378599207 98.16023575842883 L808.6258972439864 100.68088827572319 L811.0807525141645 107.7736334542551 L804.166414272222 127.77853237023919 L797.1839693164184 140.65962911695715 L797.6010475994917 152.91706791484467 L791.8119769218574 160.44628971975726 L784.4281242543111 164.40983323845649 L773.6654553224507 165.3532942539241 L768.5020020694246 171.6393970518002 L769.6676514906103 177.82981074312374 L778.2798358646651 189.72379881174493 L777.8290055818034 211.66178555567421 L775.8954981654715 218.42381575192485 L778.3184095787001 223.38286173000597 L777.818759439011 231.6440212622092 L807.3246371093737 227.36235343313638 L822.5419672987446 228.7490060999935 L834.1996669392393 234.74132655319227 L846.2171870060156 234.0538758666553 L848.7039861331323 230.4344773802859 L849.4676251282945 219.925463222271 L875.085392966128 220.74889316547888 L888.2980954539089 213.84584744379208 L897.2170613974486 204.53042898326748 L901.8567559395051 203.40818042661522 L921.7354783850969 205.12554807576453 L924.3723533683988 209.4475060549703 L927.4257039204967 209.13106050084934 L933.6921243093966 201.53217031134773 L934.4099570191465 194.18845107264679 L952.6945001891072 187.85786123401158 L956.3746735943787 180.90361344653502 L972.4894453495108 178.86140646199237 L971.7728180683262 169.95728328401492 L965.6504463928068 168.9240088088918 L965.0971546820219 165.675615454933 L972.3013984935569 152.89440470540285 L972.297782207861 143.29947332837946 L969.8453377948135 139.78583648609128 L966.4122772451228 139.5289867790343 L965.1049899676837 134.72102886392713 L953.7257443254384 122.36790095948527 L950.1444160623942 91.03727296729267 L936.9648628601135 80.34611375557506 L932.6126630305189 70.62107876877235 L931.6296360367378 59.34990927085528 L939.2871209882687 56.05367136362656 L940.2966674104464 52.25128844542451 L936.9311108603215 28.809975474900057 L912.7568437276459 24.24543721680857 L908.1683798995546 12.396775567078294 L887.1336514612813 7.718921261755895 L882.7748217745866 0.8217511869606824 L882.7748217745866 0.8217511869606824 Z" key="131124" id="mapid-131124-outline"></path>
				<text x="882.4032484197996" y="117.77944042475065" ox="882.4032484197996" oy="117.77944042475065" fill="#1a6bbc" stroke="none" stroke-width="0" text-anchor="middle" alignment-baseline="middle" font-family="Microsoft YaHei" key="131124">饶阳县</text>
			</g>
			<g>
				<path autoSize="true" d="M732.1077028712461 11.324889698082188 L729.6564638867603 13.0347029440818 L730.2591781686642 23.38087774534324 L718.452005386258 34.217249373139566 L713.3096471330973 31.45737408946661 L706.7671836030895 36.470979645844636 L702.1130239182639 36.65732159017898 L682.675488327026 27.495509327021864 L674.5961033781787 39.32234714542756 L661.8143416019484 41.52235721796387 L659.3866084744586 45.133361923062694 L659.7831944719474 59.830872937991444 L665.2582510087159 68.94316189162237 L649.484012822857 79.4605698309224 L647.8826009758559 97.60624619418559 L637.2917056143269 102.77093981353573 L627.6097033899059 102.62153050681627 L627.0298922507209 123.39362103145686 L638.3717696074964 130.03562015545322 L643.3833388614839 136.39558822855906 L640.0262203113052 144.1271001622281 L638.9877436035931 158.44185475095765 L638.9732784608241 178.75900233042012 L641.002617447979 188.4521409483732 L649.4852182514296 194.28497955732746 L652.2239519483737 211.0003555910971 L660.0634566130357 221.43634385201403 L661.5443256036524 229.4843013398022 L669.6912145520837 234.25616599542082 L680.7076261966286 231.97977251326483 L691.4745141284657 237.02107754785357 L704.6275479023461 232.19717144832248 L700.6942344986783 228.41745173957315 L706.1078141786929 213.89956764396084 L705.5219758966887 200.0003052284119 L698.4575617985465 187.8175710838841 L698.4316450844271 174.80133445860702 L693.9540806842015 167.8193871929234 L701.638085064129 165.29789529749723 L714.2993039839748 166.4696671636775 L721.1461382263442 164.49964669811925 L729.7607334575332 155.04657022466563 L728.6252197504291 147.80021884876805 L739.0799016842466 149.84158645518437 L743.2784093719492 162.9837297996055 L758.6150769891465 166.71224744256688 L764.24804466778 180.07766536893905 L772.7734381852388 182.50514691406715 L768.900998924033 175.62644315807847 L769.090853922833 170.38452675098415 L773.6654553224507 165.3532942539241 L788.4928293714365 162.47842416676758 L796.0960700375945 155.46458053222705 L798.6178265930575 149.93559680547878 L797.1839693164184 140.65962911695715 L804.166414272222 127.77853237023919 L811.0807525141645 107.7736334542551 L808.6258972439864 100.68088827572319 L801.5958378599207 98.16023575842883 L798.6431405928925 92.93846442639187 L804.3393932711224 88.99254784837103 L807.4487962514395 82.96581289192909 L829.3237083986751 67.59176310612565 L833.4848478009044 61.692613625091326 L831.380169528511 52.56353710890471 L839.9664371884428 41.708699162300036 L830.5918192477875 26.346400670281582 L825.0986812825613 23.96172740966722 L823.0446310098487 31.075457041391928 L814.8893040614821 35.056627500774994 L792.9197657719778 34.27348770769095 L786.9342102384508 27.24957153561627 L778.2659734361805 23.951654872131257 L776.5012260187832 36.43572576448241 L770.6392269130338 36.83191224073016 L765.5553319452156 29.447063473777234 L763.3680818161993 31.945892159748837 L763.0010288185294 40.3648547799512 L748.7769717657138 45.50017016483798 L738.9382638280003 31.66637924324823 L741.4045706695288 25.167913779079754 L739.5253075385699 11.848661649732094 L732.1077028712461 11.324889698082188 L732.1077028712461 11.324889698082188 Z" key="131125" id="mapid-131125-outline"></path>
				<text x="715.5981532614715" y="124.17298362296788" ox="715.5981532614715" oy="124.17298362296788" fill="#1a6bbc" stroke="none" stroke-width="0" text-anchor="middle" alignment-baseline="middle" font-family="Microsoft YaHei" key="131125">安平县</text>
			</g>
			<g>
				<path autoSize="true" d="M1147.8829176677536 730.2312715662974 L1147.4543878133263 722.5635523703295 L1142.86954027092 714.8463098648335 L1132.8409773344065 707.0266632277635 L1127.0284007997761 698.0713379839999 L1114.8957623051465 690.7435669297265 L1110.6454211891978 698.939254967976 L1099.8652735431606 703.8210781583166 L1095.1279392874312 714.0791182561697 L1083.0760645065857 724.1793552660329 L1061.7604712129432 722.2202467161223 L1051.8596837041987 705.9656892744242 L1046.3816135960224 705.6089535701776 L1034.678710384389 716.1582578783273 L1025.2769703010526 716.7861127178003 L1000.2908470306538 727.2044740380352 L982.8880748551092 728.0723910220149 L981.5313650065582 737.4952498828716 L970.7144517893139 748.7168960712534 L970.6963703608599 757.031775803629 L966.1253852469381 769.0575462382913 L966.3140348171692 788.0442794854443 L962.8086485536514 801.9636869760616 L942.4242488255477 829.9645019359123 L907.5976094745893 857.3290682750176 L904.7172379213989 863.8543938392704 L901.7850329399589 883.6167124763633 L903.3665552156599 893.8302655334555 L901.260068800424 903.4873108919237 L907.143765620327 925.0265930252262 L893.2463797083001 962.7558004844013 L884.3804526215717 970.4915093087038 L891.2821338635877 979.9647308572221 L886.8413350345581 995.4151640526416 L891.5852991473876 1005.8007896258987 L890.4365257260906 1021.4703005126321 L892.8787239963458 1029.3612942905493 L900.061872808008 1039.1996453245865 L904.7178406356761 1039.8703084485714 L907.5692819033429 1050.5413225852226 L925.2456863628686 1049.381302012829 L928.1338932017316 1051.55864887592 L935.4249278698626 1072.5019725386028 L935.1512955858707 1088.0220741186185 L944.8236543817984 1100 L952.451003619215 1088.6927372425998 L960.7576118523393 1063.821963320701 L963.9055885467023 1047.02684636481 L960.8299375661809 1029.9270351485793 L963.050939694971 1020.1239379959025 L972.9475082037534 1010.9612863546117 L979.575557161792 1000.1819924394931 L977.065854891971 986.8425952350808 L978.6757047389183 977.8268347661287 L994.2914290686313 961.098028682316 L998.8455381826643 959.7550236780935 L1003.9788557215979 962.0398109415255 L1014.6866776538045 948.6047246305607 L1014.2069170854193 939.9482180002378 L1016.9257612110596 934.2085503634516 L1018.7200416282722 919.948355353019 L1014.7873309388851 908.4715382138347 L1023.6984615967594 879.6464539326425 L1019.0153716264067 867.4880617538165 L1038.1684260765833 862.0144769834933 L1043.1842143305475 854.9116592674236 L1056.2866201047473 849.2189968057864 L1064.393729910571 849.3667273562496 L1068.761600311489 843.0999302553118 L1081.7097112295196 837.4685423969913 L1098.0752121259175 840.2846560152157 L1104.4055202287018 835.8468638543945 L1116.4248484383243 835.1375893365421 L1132.9717663335832 827.4413312842353 L1149.906229512082 841.4497128563762 L1171.5521102322018 845.2252356744848 L1180.2468664628723 840.887329510857 L1188.4154531254499 827.6142431785265 L1191.2102392506167 828.1430513989399 L1192.3951755288253 822.9800365358406 L1197.0089533567625 822.4537464498153 L1198.7676736313406 815.8176229727087 L1204.2776875964664 812.0865871953647 L1197.5393419248285 803.9261530384701 L1198.1969032063826 798.6095319780197 L1192.3855321003175 796.5429830277772 L1195.3611325100464 791.3556261989761 L1181.0340113150341 794.7811283378633 L1172.189781942452 793.0201130260848 L1172.3874722269065 787.3618650676763 L1180.495184747011 768.858613622042 L1171.6762693742749 761.810355484271 L1156.3582858998125 759.3207599576963 L1141.4465318513612 746.9088755843259 L1147.8829176677536 730.2312715662974 L1147.8829176677536 730.2312715662974 Z" key="131126" id="mapid-131126-outline"></path>
				<text x="959.0769430772743" y="895.3717834648651" ox="959.0769430772743" oy="895.3717834648651" fill="#1a6bbc" stroke="none" stroke-width="0" text-anchor="middle" alignment-baseline="middle" font-family="Microsoft YaHei" key="131126">故城县</text>
			</g>
			<g>
				<path autoSize="true" d="M1205.7736244441403 729.954276784174 L1205.5644825883137 727.8314894993837 L1212.6379374006792 721.8114695679633 L1204.0667375977937 721.7124229489018 L1203.4254496018511 714.9940404152931 L1200.4679306205799 712.3248179694037 L1208.1639892861458 709.273678475447 L1206.23229001266 703.5684253418967 L1208.6316955688999 693.8971105552591 L1207.449772862099 687.9652253272416 L1210.6833349844856 685.477308556925 L1210.0516904170545 681.0395163961111 L1214.6443732451153 679.7099414419299 L1214.7275478160227 673.2198697590356 L1219.123745788198 675.8395688953933 L1234.0891414077414 669.324315868671 L1234.0535812651106 666.7835182763156 L1226.350892742441 664.7043786541599 L1236.9128578184354 661.615467144451 L1232.6781872738138 656.6622968132633 L1234.8636292599804 647.1823602397253 L1232.4473477038482 642.3903505090475 L1233.7660865526414 639.7186099287774 L1239.4249709453907 638.9489001857346 L1240.1783637977642 635.4444965028451 L1248.1872311756342 636.914247604338 L1250.463080304089 631.2551602678086 L1257.1887689757896 634.1031702548808 L1259.5345329609445 631.6513467440564 L1259.146384963402 614.9426857353028 L1254.9135225616337 606.138448554515 L1257.1947961186088 600.466770546067 L1261.0973710939106 598.4228848052717 L1257.9361346853511 591.178212185634 L1261.6374030904917 587.5982644712622 L1260.0185125293137 583.9251457847204 L1265.849773206679 584.5571975148341 L1263.8095853624545 578.8158511217898 L1267.30472548318 566.3737491358243 L1272.5350800215056 566.0732517661309 L1275.4437791459386 555.5088386516854 L1282.4274295303076 545.9206222996854 L1283.317035810389 534.3682611290078 L1287.8813910672106 537.0475561124313 L1289.4237369145849 534.2096186628842 L1295.8468630167845 532.6995774112675 L1290.8612104769163 519.3224081911103 L1297.4952865777814 518.970708755629 L1299.6710851354328 512.5074971728209 L1306.5450415204868 512.922149967877 L1310.2408854970927 498.1776337777992 L1317.741062021043 495.6670537980335 L1319.8282615792596 478.433781459511 L1317.49696273687 474.331740549751 L1319.616708866306 469.94598983284413 L1318.219617160874 465.8674515106504 L1321.7503174242302 459.5469342095457 L1284.2681189472278 455.28373269927215 L1272.9172008762253 441.72106091291244 L1265.5586622085284 439.3926259868422 L1262.8578995113385 432.049746126273 L1236.6579096771893 418.77414165956 L1219.2334397874984 434.4789064276538 L1209.1446054227927 436.44556938070673 L1207.6583120036303 462.035690357985 L1205.0244505917362 467.35315079657084 L1181.9435071664157 468.51736825960324 L1179.1053256129526 466.4667674937864 L1177.6787009077052 458.4272037872761 L1167.502472972119 458.73609493824915 L1163.9030632806243 472.78644541676476 L1165.914320839318 485.2125992183119 L1159.914300163011 498.1835094246926 L1142.255374417662 497.84104314861725 L1127.2821435124497 505.3417260971819 L1090.5352564593632 494.08398664931156 L1079.9479773835337 494.97960311149836 L1076.6451031187207 498.39839022537126 L1077.7974928257172 512.2170723406598 L1073.189742140592 514.4976627134529 L1070.4624600149982 520.0023044744976 L1054.6171015438886 518.884252808486 L1042.6725099052164 523.1382211593482 L1043.6868780416517 543.1800527129508 L1037.2565193680712 556.7653877087614 L1034.8962902401581 575.0185044723621 L1031.3059212628832 585.5266792522543 L1026.8018374342573 590.0425335789441 L1017.0818642100712 615.8341053068561 L999.329517751019 630.3251293023859 L993.9177462138541 639.5792731595902 L983.7379019925829 646.5091789813614 L979.6563208755651 655.7608047041831 L980.9834977243008 666.0817981616128 L978.4056887406296 712.2962791130667 L982.8880748551092 728.0723910220149 L1000.2908470306538 727.2044740380352 L1025.2769703010526 716.7861127178003 L1034.678710384389 716.1582578783273 L1046.3816135960224 705.6089535701776 L1051.8596837041987 705.9656892744242 L1061.7604712129432 722.2202467161223 L1083.0760645065857 724.1793552660329 L1095.1279392874312 714.0791182561697 L1099.8652735431606 703.8210781583166 L1110.6454211891978 698.939254967976 L1114.8957623051465 690.7435669297265 L1127.8203673661883 698.773897476829 L1132.8409773344065 707.0266632277635 L1146.3032035348915 719.9967340560124 L1147.712952240261 732.770390402402 L1140.981236425734 746.1148238755814 L1156.3582858998125 759.3207599576963 L1171.6762693742749 761.810355484271 L1171.3508036620515 750.2521186667018 L1178.8316933289789 740.318917904242 L1194.9326026556191 751.8116832278502 L1200.0158949091528 752.271662441799 L1197.2331630696244 747.4989584080486 L1207.83671543108 742.2150730945759 L1208.5605752836345 733.3403281510655 L1205.7736244441403 729.954276784174 L1205.7736244441403 729.954276784174 Z" key="131127" id="mapid-131127-outline"></path>
				<text x="1142.368986059806" y="590.2922485719118" ox="1142.368986059806" oy="590.2922485719118" fill="#1a6bbc" stroke="none" stroke-width="0" text-anchor="middle" alignment-baseline="middle" font-family="Microsoft YaHei" key="131127">景县</text>
			</g>
			<g>
				<path autoSize="true" d="M1334.7261531992299 425.92816144141034 L1341.7272822977684 426.07421323562085 L1338.056149606724 419.6412192654079 L1342.7151310057961 414.3052925080174 L1344.146577425312 401.49050663337584 L1349.9103341031077 395.75167837472145 L1350.4648312424579 390.3838552484758 L1353.3078345101712 389.7299796870502 L1353.9690120774176 383.0199909347157 L1362.1990755967454 369.20970260069953 L1362.8590477354192 363.0814028908226 L1366.8001964247596 356.363020357212 L1373.9598393794258 326.5810450105073 L1373.4155883828826 292.1262516272509 L1371.1343148258857 295.189981793128 L1343.3943900014929 294.83576422326587 L1336.0382621909266 299.70247860730706 L1326.0964901110056 296.8712561827815 L1320.3917994328294 299.50438536918045 L1315.9726983179498 297.1230696210732 L1309.682169357773 300.14315212431757 L1297.4934784349316 298.6591315946498 L1287.338948213499 301.5742918319338 L1274.3028410103143 300.27325573410053 L1253.1957868582103 290.1822518836416 L1250.402206161616 293.1981374962452 L1236.5476129636045 296.7755670762326 L1227.742560019342 306.4091098471272 L1227.8829924470301 312.0656790492794 L1220.720335920938 326.6616253107586 L1202.0988754673926 336.23892974710543 L1199.7247839109987 335.49104383537815 L1198.8164934881788 326.86979108641754 L1197.2868046407166 327.1216045247056 L1192.9207423826447 345.5241305950276 L1191.1927605364435 345.3000166349466 L1191.259059107444 340.08160281542587 L1188.8837621224884 338.2324528002446 L1175.619828920735 348.9991560434446 L1170.3177513828705 349.5674150358591 L1153.204884776922 335.71515779545916 L1141.7430672780465 337.48876377915803 L1136.4096485975278 349.64211968922064 L1138.9060911531524 358.32128952899075 L1137.9321048736056 363.00166196869213 L1131.736202055683 375.77112142444275 L1126.5028339459568 381.5074315487145 L1117.994316428394 381.1481777100871 L1107.8590730639771 384.1279700631985 L1103.7678485184479 380.0502711191348 L1093.6018667256649 383.6260219428732 L1090.3285254606708 381.2925507480413 L1080.556116093965 386.3279801357403 L1071.3460391522713 384.5367472113576 L1070.6408634424479 388.05542032241465 L1076.344348692055 391.67649756504215 L1075.345048412666 404.93027820043426 L1066.3995630407262 413.6455412996984 L1065.3653053329908 418.1135510731074 L1067.0884654649344 422.7536333626849 L1074.679651845454 425.97516661655936 L1089.0724688971932 421.4148252491068 L1097.5128797009056 425.0392600042451 L1087.3149540511731 446.21509140827766 L1087.5210823355847 450.54628254689123 L1099.383704831922 465.8221250917577 L1109.1295947702274 472.01673567372745 L1102.5449412404814 477.080703917758 L1097.2633559882051 487.6031481258233 L1090.5352564593632 494.08398664931156 L1127.2821435124497 505.3417260971819 L1142.255374417662 497.84104314861725 L1160.7581001576764 497.44905356301206 L1165.914320839318 485.2125992183119 L1164.03566042264 471.2537409557044 L1168.733215535758 458.0561986548619 L1177.6787009077052 458.4272037872761 L1179.1053256129526 466.4667674937864 L1181.9435071664157 468.51736825960324 L1205.870058729237 466.76222859471454 L1209.1446054227927 436.44556938070673 L1219.2334397874984 434.4789064276538 L1235.2535854003618 418.9117996724908 L1262.8578995113385 432.049746126273 L1265.5586622085284 439.3926259868422 L1272.9172008762253 441.72106091291244 L1284.2681189472278 455.28373269927215 L1321.7503174242302 459.5469342095457 L1323.096178415708 453.24152571473496 L1320.8378080014336 449.4173189652174 L1320.4159080041027 440.8707708696129 L1321.9449941372877 437.3957454211959 L1318.8259477284519 432.2352486924792 L1320.1211807202562 424.5406693964287 L1325.1116549743783 427.3744099553296 L1334.7261531992299 425.92816144141034 L1334.7261531992299 425.92816144141034 Z" key="131128" id="mapid-131128-outline"></path>
				<text x="1210.2454630586763" y="397.76198899041447" ox="1210.2454630586763" oy="397.76198899041447" fill="#1a6bbc" stroke="none" stroke-width="0" text-anchor="middle" alignment-baseline="middle" font-family="Microsoft YaHei" key="131128">阜城县</text>
			</g>
			<g>
				<path autoSize="true" d="M732.1257842997002 561.3215321855714 L721.1732603690289 554.061750759638 L715.4450638338676 563.6961329086625 L703.4884179095534 563.9143712218465 L697.728880231738 555.4492428046196 L691.5775782706733 553.1149322316633 L691.1725542732383 544.6363737643969 L688.4585318618483 540.5754623828889 L670.3373242622765 534.8643336024415 L660.7981653226634 526.640106707855 L653.6071812253322 535.1060745032064 L656.7792664909684 536.6941779206954 L659.3438157604469 542.2038559505036 L657.2698759164268 546.25889168512 L631.3380939377348 557.7432632274576 L625.6068838311585 563.5593142738562 L623.8764911278304 568.8482358561014 L625.6912638306239 582.747498271643 L621.6560917133102 594.9763982131935 L611.4708230635042 596.498190758597 L606.8220878072207 614.7689344628834 L600.412824133502 615.6292970437116 L585.8367819400664 609.1056502357114 L579.4329426948898 609.9349558258164 L570.9081518917119 606.636199784205 L560.0930468173174 610.220344389214 L549.4430854561688 610.371432452188 L550.8787508756541 620.5589647873257 L547.2287131844714 625.8109537319506 L546.0401606205705 653.3442350747155 L551.8195878696934 668.3456009718466 L548.1864261784176 682.1088841307155 L563.9901973640772 674.5737866789204 L573.4190595901018 664.4257051157838 L579.8482128351243 663.7214668666966 L602.9713462601685 668.4446475909099 L618.5762217328156 683.7179720014028 L626.5995542534474 686.3544587003107 L644.3597359981577 709.1234297905976 L648.7860696844255 708.2739791254335 L646.898971267794 696.89117233654 L648.9168586835913 680.0003662740928 L651.4151093820692 681.5045318788216 L656.0505849241526 693.8551416488772 L676.5392542230111 700.4803532103142 L679.5968237750894 723.0461947937201 L700.5815269279628 727.1683807785466 L704.3159446186037 730.7978518024556 L681.1723189079712 741.052534387798 L683.0485684675223 747.2706475573359 L692.1013369816501 752.9230198688474 L690.4866654204379 755.5804910209463 L674.6611965206212 761.9026870783091 L664.3987804427306 759.6414024024562 L659.4673721882355 762.7126869714793 L646.7181569832283 762.8503449844102 L642.171280440587 766.6644791963972 L639.026317317639 773.4281881488987 L643.56837214603 777.0752861134824 L647.4781796926982 785.8232849597189 L661.8920917443138 788.4732017086717 L671.2022192568002 794.8113459504602 L678.7698997803273 806.3427226679396 L684.5125614582576 822.0139123109275 L713.891869129413 822.3689692589232 L721.687978365775 824.877031104299 L736.0910415603103 847.2112043244779 L748.2218719120901 855.133255093122 L746.5276420656701 866.8425799736578 L758.1298919922192 880.443863153896 L764.5060063804303 883.4035104319446 L779.4937024284154 883.040899080801 L785.4418896764691 869.1382791527467 L808.557187815848 868.4080201817014 L817.2338626180644 861.0668190773849 L821.1611488789204 852.2835663497881 L800.1414882976969 836.0919622676665 L780.5333845646819 839.6828218976989 L778.2846575789154 793.8317916755041 L772.8674616132084 790.0436781854805 L772.8849403273889 780.7677104969589 L767.9987356440288 772.5317323085801 L788.1782125162899 751.2148853791041 L790.7331183572605 739.1412703911628 L794.5489024759627 734.0269394594707 L816.9885579053334 732.6386080363609 L817.0211044765565 726.9635725154003 L811.0548358000415 714.0606519373614 L812.5332939335422 703.2931093160296 L816.8306467634793 697.6457732732833 L824.0758751461799 693.751898139175 L829.3755418269247 687.2408420030952 L832.1010158096651 678.3904390252828 L838.5199229118844 676.3348019906989 L844.6718275872227 666.5736737444058 L845.9405411506232 658.3989701593418 L841.7070760345705 648.9022460232554 L844.3487727321299 632.9767248075968 L836.540609210133 626.1164873704165 L824.7786399988727 634.4112220277257 L813.8315404967507 629.3061242554359 L778.0532152946726 628.766404119362 L760.193585693447 617.3810791960932 L752.756694169093 615.1147582514695 L753.282261022905 601.6645631342071 L751.1721583219805 591.1337251448676 L732.1257842997002 561.3215321855714 L732.1257842997002 561.3215321855714 Z" key="131181" id="mapid-131181-outline"></path>
				<text x="718.8271950267481" y="705.0218085698998" ox="718.8271950267481" oy="705.0218085698998" fill="#1a6bbc" stroke="none" stroke-width="0" text-anchor="middle" alignment-baseline="middle" font-family="Microsoft YaHei" key="131181">冀州市</text>
			</g>
			<g>
				<path autoSize="true" d="M909.7354370324792 324.48595720392586 L898.7509692448875 324.4649727507367 L895.1949549816745 319.07112890253484 L895.8736112630904 314.1750362840303 L901.9905585100823 309.05063281480034 L903.5298907860524 302.1349964211986 L911.6713553059453 299.9794733894214 L910.6563844552293 295.23698696827523 L905.858778771315 291.8769563233418 L905.8437109142651 286.1079104520886 L899.190347956388 275.9304506544904 L903.9921726402754 269.56712506886834 L910.2254437436713 267.9345346106147 L917.2404352706944 258.9783699887248 L922.3080569528938 242.12785407639967 L938.1148417099757 234.50965818996337 L926.1268546430038 215.9367383597346 L922.698615807567 205.80460498102548 L901.8567559395051 203.40818042661522 L897.2170613974486 204.53042898326748 L888.2980954539089 213.84584744379208 L875.085392966128 220.74889316547888 L849.4676251282945 219.925463222271 L848.7039861331323 230.4344773802859 L843.8141651640908 234.60031102775247 L834.1996669392393 234.74132655319227 L822.5419672987446 228.7490060999935 L807.3246371093737 227.36235343313638 L777.818759439011 231.6440212622092 L778.3184095787001 223.38286173000597 L775.8954981654715 218.42381575192485 L778.766226290154 197.8892692374029 L777.6150420117301 187.84107367145225 L772.7734381852388 182.50514691406715 L764.24804466778 180.07766536893905 L758.6150769891465 166.71224744256688 L743.2784093719492 162.9837297996055 L739.0799016842466 149.84158645518437 L728.6252197504291 147.80021884876805 L729.7607334575332 155.04657022466563 L721.1461382263442 164.49964669811925 L694.5724655374288 167.30233026629867 L698.4316450844271 174.80133445860702 L698.4575617985465 187.8175710838841 L704.1700877623844 195.61455451150505 L705.7552263237849 201.9745225846109 L706.1078141786929 213.89956764396084 L700.6942344986783 228.41745173957315 L704.6275479023461 232.19717144832248 L715.6439595468983 234.05135773227448 L716.9253301102108 238.2440514798236 L722.1394113629176 242.48458978064627 L716.9825879669916 253.99582142306645 L709.8868327261916 256.61384180317145 L706.2639171777082 276.71526920382894 L707.8725615960902 281.8799628231791 L702.5204587728331 285.44312297500437 L699.5900619342356 297.01227170822676 L694.8153593930365 298.9915253331965 L695.7646343870292 303.8641153641329 L703.4058460529413 308.196145880871 L703.8627034786186 317.59550215414674 L699.0367702234544 324.0713044088734 L704.5913850454381 333.44883685084096 L704.9276996147382 344.6671255267138 L707.1854673147209 349.4918710043712 L698.2243113714576 360.5850923392263 L682.4404297570909 357.68252277385363 L679.7607620597664 359.3856209948299 L677.9911929281079 377.05620933785576 L664.810434297262 378.0651418472753 L662.7847115958066 392.07436279754074 L651.5254060956504 391.04864272557097 L649.3001849668763 411.2449198546474 L663.5953623049572 415.36626646134937 L667.344847852648 424.4592497180438 L664.8737192968692 429.99914536045435 L652.2733745194928 436.950875013541 L644.8702349949235 451.9488833981668 L640.4083411660285 482.7582575731012 L647.3425689792748 491.9888988427265 L650.1421768186883 499.87065946124494 L647.9265991184329 504.8683168331936 L638.1475598946308 514.1535176811194 L640.6319481646169 526.5813502389174 L653.6071812253322 535.1060745032064 L662.4194667409756 526.3429668506687 L670.3373242622765 534.8643336024415 L692.3454362658158 540.8675659713081 L700.2717317870665 550.9778755187017 L703.0267387696222 550.4180103075669 L706.0445291790966 544.6498038144418 L711.717878714604 548.2817929727262 L716.819252396599 548.4748499420839 L718.8479886694695 543.7852443429747 L717.603986391623 524.2890085723429 L699.0156752235889 520.7317240674147 L691.2894808439232 507.61308331056716 L692.8812492624238 502.7463689265296 L702.3300010597486 494.89398654248 L718.7702385271041 497.2744629124627 L730.236275025949 493.93205920820947 L741.8915638093131 500.635332935517 L774.9902213140558 505.9989591711219 L777.2353320141301 504.4108557536347 L777.9139882955533 494.7420591013815 L773.473792180801 476.3898957187175 L778.7499530045388 457.3553179182836 L782.18662983994 453.2935671586474 L789.6699303639834 452.6203859002817 L805.4013758358305 456.10632326435734 L809.3636195250365 459.45208448112317 L812.5658405047543 468.226104049314 L827.4106932679206 472.28030040580234 L842.544246172125 469.54560646595746 L850.6911351205563 458.0024784546913 L860.9619891983821 452.2636501960369 L888.374640167709 457.08084127054644 L881.843025494778 442.93312292921837 L886.4115997515619 428.6259227436385 L884.8987869039993 415.7481835094277 L888.4891558812778 407.4719151709196 L900.7477616608085 398.11117029151137 L906.4536577675499 385.3022600637614 L900.4518289483967 371.44328779833995 L912.9756290119767 346.2518714316884 L909.7354370324792 324.48595720392586 L909.7354370324792 324.48595720392586 Z" key="131182" id="mapid-131182-outline"></path>
				<text x="802.6897642815675" y="349.38904718373124" ox="802.6897642815675" oy="349.38904718373124" fill="#1a6bbc" stroke="none" stroke-width="0" text-anchor="middle" alignment-baseline="middle" font-family="Microsoft YaHei" key="131182">深州市</text>
			</g>
		</g>
		<g class="layer" fill="#52a3f5" stroke="#b1d9fc" stroke-width="1" font-size="11" font-family="SimSun">
			<circle id="mapid-131100-circle" r="4" cx="835.2773556836291" cy="535.3664801635096" fill="#ffcd7a" data-courtname="衡水市中级人民法院"></circle>
			<circle id="mapid-131125-circle" r="4" cx="732.4839786450502" cy="114.80287323184712" fill="#ffcd7a" data-courtname="安平县人民法院"></circle>
			<circle id="mapid-131126-circle" r="4" cx="1018.6570006074144" cy="849.981386249081" fill="#ffcd7a" data-courtname="故城县人民法院"></circle>
			<circle id="mapid-131127-circle" r="4" cx="1190.4569919055248" cy="565.8133525412595" fill="#ffcd7a" data-courtname="景县人民法院"></circle>
			<circle id="mapid-131121-circle" r="4" cx="869.1899989627746" cy="733.4282649635206" fill="#ffcd7a" data-courtname="枣强县人民法院"></circle>
			<circle id="mapid-131123-circle" r="4" cx="1013.5513952925539" cy="277.3431450319531" fill="#ffcd7a" data-courtname="武强县人民法院"></circle>
			<circle id="mapid-131122-circle" r="4" cx="960.0589451252818" cy="475.7986957380981" fill="#ffcd7a" data-courtname="武邑县人民法院"></circle>
			<circle id="mapid-131182-circle" r="4" cx="769.0181851259586" cy="307.3191442268344" fill="#ffcd7a" data-courtname="深州市人民法院"></circle>
			<circle id="mapid-131128-circle" r="4" cx="1138.5111665737422" cy="422.8969844275525" fill="#ffcd7a" data-courtname="阜城县人民法院"></circle>
			<circle id="mapid-131102-circle" r="4" cx="821.0476059462053" cy="529.4186994489137" fill="#ffcd7a" data-courtname="衡水市桃城区人民法院"></circle>
			<circle id="mapid-131124-circle" r="4" cx="859.7176121949924" cy="117.47531060928122" fill="#ffcd7a" data-courtname="饶阳县人民法院"></circle>
			<circle id="mapid-131181-circle" r="4" cx="788.6096867143642" cy="693.9239260499489" fill="#ffcd7a" data-courtname="河北省冀州市人民法院"></circle>
		</g>
	</g>
</svg>