<?xml version="1.0" encoding="utf-8"?>
<!-- Generator: Adobe Illustrator 16.0.0, SVG Export Plug-In . SVG Version: 6.00 Build 0)  -->
<!DOCTYPE svg PUBLIC "-//W3C//DTD SVG 1.1//EN" "http://www.w3.org/Graphics/SVG/1.1/DTD/svg11.dtd">
<svg version="1.1" id="svgMap" xmlns="http://www.w3.org/2000/svg" xmlns:xlink="http://www.w3.org/1999/xlink" x="0px" y="0px"
     width="1133.859px" height="566.93px" viewBox="0 0 1100 500" enable-background="new 0 0 1133.859 566.93"
     xml:space="preserve">
<g id="perspective">
    <g id="svgMapBj">
        <g id="mapid-110011121122-outline">
            <path id="mapid-110011121122-outline" fill="rgba(16,52,84,.2)" stroke="#3c66ac" stroke-width="2" stroke-miterlimit="10" d="M1013.26,138.541
                c-5.229,1.208-8.945,5.36-14.546,5.979c-2.83,0.313-5.578,1.097-8.472,0.529c-1.906-0.376-3.688-0.179-5.223,1.058
                c-0.78,0.631-1.771,0.846-2.799,0.8c-10.521-0.47-21.22,1.088-31.521-1.713c-6.756-1.835-13.44-4.045-19.851-6.708
                c-3.344-1.39-6.837-1.342-10.199-2.243c-15.961-4.27-31.52-9.836-47.981-12.547c-6.9-1.135-13.929-1.044-20.811-2.101
                c-15.353-2.354-30.175-6.563-44.438-12.039c-9.54-3.664-19.657-5.06-29.354-7.937c-6.375-1.891-12.743-3.718-19.403-4.684
                c-4.646-0.673-8.044-3.938-12.638-5.242c-4.563-1.296-9.401-3.277-12.989-6.807c-2.021-1.986-3.861-4.215-6.742-5.444
                c-2.954-1.263-5.232-3.166-9.144-3.199c-4.885-0.043-10.854,0.336-13.562-5.229c-0.206-0.432-0.792-0.731-1.236-1.053
                c-1.523-1.106-4.346-1.904-3.979-3.654c0.473-2.233,3.604-2.139,5.704-2.591c15.712-3.392,31.632-5.684,47.665-7.383
                c0.824-0.086,1.615-0.432,2.422-0.659c1.719,0.007,3.436,0.015,5.15,0.021c5.891,1.563,11.813,3.037,17.656,4.726
                c4.313,1.247,8.563,2.732,12.359,5.023c1.119,0.675,2.521,0.933,2.223,3.076c-0.29,2.113,2.824,2.187,4.562,2.663
                c6.575,1.806,13.396,2.595,20.215,3.253c3.301,0.319,6.467,0.675,9.289,2.52c2.091,1.362,4.821,0.758,7.255,1.346
                c5.221,1.265,10.436,2.433,15.548,4.091c3.86,1.254,7.943,1.342,12.146,1.346c6.467,0.007,12.429,2.771,18.479,4.747
                c2.045,0.667,3.013,1.53,0.619,3.12c-2.398,1.596-0.701,2.128,1.01,2.677c7.188,2.301,14.953,2.517,22.076,4.69
                c11.056,3.368,22.694,2.789,33.943,5.023c7.1,1.41,15.007,0.584,22.499,1.467c1.568,0.186,4.026-0.386,3.65,2.536
                c-0.12,0.933,1.353,0.615,2.106,0.816c5.912,1.572,12.075,1.26,18.104,1.973c6.582,0.777,12.686,3.052,18.993,4.655
                c4.496,2.364,9.143,4.462,13.953,6.237c4.996,1.843,6.353,7.142,2.697,10.971C1016.862,134.588,1014.729,136.311,1013.26,138.541
                z"/>
            <pathid="mapid-110011121122-outline"  fill="rgba(16,52,84,.2)" stroke="#212121" stroke-width="0.25" stroke-miterlimit="10" d="M924.087,181.761
                c-4.354,1.458-8.063-0.348-11.83-1.854c-5.799-5.374-11.56-10.792-19.354-14.063c-1.021-0.427-1.949-1.324-3.283-0.765
                c-8.636-3.755-17.542-7.034-26.248-10.631c-9.895-4.084-19.771-8.351-29.94-11.934c-3.611-1.276-7.683-1.823-11.439-3.009
                c-0.791-1.637-5.283-0.855-3.758-3.571c1.011-1.799,3.809-0.865,5.86-0.399c9.036-0.224,17.063,3.262,25.487,5.308
                c5.073,1.232,10.374,1.752,15.574,2.594c4.67,1.868,9.114,4.349,14.563,4.044c5.129,1.401,10.063,3.399,15.477,3.928
                c4.415-0.404,7.806,1.949,11.558,3.33c3.941,1.451,7.78,3.11,11.698,4.608c2.954,1.132,4.802,3.096,6.938,5.117
                c3.995,3.775,2.994,8.046,3.172,12.285c0.037,0.921-0.099,2.036-1.363,2.131C925.034,179.038,924.932,180.654,924.087,181.761z"
                />
            <path id="mapid-110011121122-outline"  fill="rgba(16,52,84,.2)" stroke="#212121" stroke-width="0.25" stroke-miterlimit="10" d="M955.054,189.052
                c-5.369-2.379-10.013-5.817-15.827-7.532c-5.242-3.902-7.93-8.753-7.756-14.654c0.029-0.965-0.019-1.864-0.764-2.701
                c-0.83-0.932-2.248-1.931-0.938-3.178c1.077-1.024,2.729-0.675,4.156-0.512c4.63,0.525,9.279,0.734,13.736,2.243
                c4.22,1.428,8.998,0.658,13.359,1.796l-0.119-0.016c6.19,0.882,11.749,3.675,18.188,4.006c3.274,0.169,8.631,6.604,8.692,9.382
                c0.021,1.069-0.379,2.003-1.328,2.485c-6.029,3.06-11.099,7.37-17.766,9.604c-2.512,0.839-4.871,1.366-7.202-0.545
                C959.614,187.887,957.258,188.586,955.054,189.052z"/>
            <path id="mapid-110011121122-outline"  fill="rgba(16,52,84,.2)" stroke="#212121" stroke-width="0.25" stroke-miterlimit="10" d="M835.6,129.834
                c3.003,0.587,5.806,1.347,6.71,4.316c0.399,1.29-0.854,1.833-2.009,1.88c-3.493,0.151-6.505-1.535-8.016-3.923
                C831.182,130.359,834.048,130.095,835.6,129.834z"/>
            <path id="mapid-110011121122-outline" fill="rgba(16,52,84,.2)" stroke="#212121" stroke-width="0.25" stroke-miterlimit="10" d="M726.037,81.512
                c-4.297,1.555-7.396,0.71-10.432-0.57c-0.776-0.33-1.452-0.904-1.196-1.767c0.242-0.812,1.122-1.31,1.932-1.115
                C719.417,78.801,722.706,79.13,726.037,81.512z"/>
        </g>
        <g>
            <path id="mapid-110011011111-outline" fill="rgba(16,52,84,.2)" stroke="#212121" stroke-width="0.25" stroke-miterlimit="10" d="
                M239.558,366.921c-1.851,1.063-3.852,1.782-5.998,2.155c-4.314,0.134-7.879,2.296-11.735,3.658
                c-1.68,0.597-3.302,1.338-5.003,1.896c-1.053,0.354-2.194,0.736-2.924-0.479c-0.581-0.967,0.056-1.684,0.752-2.354
                c1.335-1.294,2.823-2.452,4.055-3.837c3.322-3.966,7.668-5.024,12.35-6.884c9.438-3.751,15.875-8.174,25.537-11.473
                c8.525-2.914,20.543-6.438,28.349-11.146c3.984-2.403,3.312-1.642,1.311-5.896c-0.347-0.731,1.209-1.09,1.604-1.799
                c0.444-0.771-1.118-0.975-1.604-1.646c-2.576-3.568-8.958-0.256-5.12-3.043c3.479-2.01,12.889-10.036,17.22-9.083
                c1.935,0.426,5.453,0.594,4.45-0.491c-2.875-3.111,4.61-5.682,7.048-7.21c4.604-2.892,7.151-7.337,12.229-9.675
                c1.351-0.623,2.563-2.955,3.171-4.254c1.063-2.273,2-1.684,4.098-2.939c1.867-0.439,1.867-0.439,1.867-0.439
                c1.563,0.666,4.5,3.377,4.746,3.765c0.249,0.392,0.096,1.999,1.333,2.08c1.251,0.082,2.314-1.177,5.115-0.521
                c1.546,0.354,2.229-0.096,2.429,0.438c0.492,1.334-0.393,3.188-1.228,4.012c-4.827,4.746-10.129,7.539-16.576,10.143
                c-2.464,0.988-4.567,2.334-6.618,3.914c-2.298,1.771,0.19,5.254,0.391,7.267c0.124,1.246,1.575,1.688,2.995,1.354
                c3.861-0.92,7.644-0.967,11.375-0.395c1.123,0.172,10.748-0.753,15.979,0.286c1.296,0.254,2.088,0.392,3.175,0.937
                c0.78,0.338,3.492,1.451,5.991-0.281c0.83-0.572-0.105-1.274-0.914-2.722c-0.976-1.729,0.457-3.014,2.777-3.524
                c3.146-0.692,9.354-2.61,12.211-4.02c1.582-0.775,4.438-0.822,2.514,0.594c-0.408,0.303-0.813,1.377-0.94,1.934
                c-0.248,1.035,3.659,0.146,4.791,0.584c3.669,1.436,6.817,2.027,3.396,3.979c-1.582,0.899-3.345,2.274-5.368,3.371
                c-2.148,1.161-4.628,1.756-7.31,2.926c-0.855,0.409-2.359,1.215-4.229,2.145c3.479-0.297,3.845-0.778,7.274-0.387
                c5.009-2.44,9.761,6.078,12.688,0.184c1.874-3.771,7.404-11.482,10.316-8.479c1.652,1.709,1.023,5.924,2.471,5.844
                c1.854-0.107,2.961-0.234,7.021-2.684c3.646-1.728,5.521-3.005,6.792,0.135c0.324,0.807,1.226,2.307,2.134,2.271
                c12.153-0.452,28.166,1.427,39.699-3.845c5.073-2.317,6.184-0.494,10.627,0.89c2.772,0.86,3.496,3.242,2.179,5.88
                c-0.527,1.053-1.979,2.577-2.45,3.014c-1.3,1.193-2.198,2.979,0.576,3.647c1.583,0.382,3.142,0.675,4.717,1.162
                c1.702,0.528,3.37,2.399,3.501,4.021c0.601,7.41,4.479,8.905,10.2,6.392c4.027-1.699,6.851-4.197,8.495-8.093
                c0.376-0.905,3.068-3.688,5.056-4.295c2.281-0.692,4.165,0.056,3.905,1.604c-0.113,0.679-1.073,2.042-0.744,2.149
                c0,0-0.966,1.688-0.027,2.156c0.423,0.215,2.839-1.479,3.341-1.377c0.556,0.11,2.651,0.877,3.257,0.926
                c6.112,0.496,10.68,1.229,15.445,3.586c3.244,1.6,6.271,0.814,9.189,0c1.922-0.537,4.979-3.194,5.604-2.308
                c1.385,1.979,1.354,8.152,0.235,10.331c-1.471,2.854-1.643,5.379-3.981,7.918c-1.3,1.411-1.836,3.217-0.188,5.195
                c1.706,2.053,5.061,3.324,7.143,5.107c1.688,1.442,2.258,1.354,1.022,3.098c-1.371,1.935-5.733,6.039-7.042,7.979
                c-3.692,5.481-6.318,10.646-9.756,16.271c-1.004,1.644-2.017,2.661-4.363,2.938c-4.004,0.465-6.271,4.223-5.127,7.615
                c2.157,6.405,2.158,6.407,8.528,2.803c1.591-0.9,5.59-3.183,6.735-1.568c1.103,1.541,0.228,2.418-3.354,4.267
                c-1.771,0.912-3.802,2.729-3.568,5.05c0.25,2.492,2.747,2.563,4.4,2.599c1.839,0.042,3.772-1.021,3.347,1.191
                c-0.539,2.771-0.643,5.816,2.365,4.61c3.955-1.589,11.354,0.344,12.663,3.453c0.771,1.82,0.33,4.023-0.292,6.133
                c-0.633,2.141-0.745,4.007,0.814,6.1c1.937,2.588,0.82,5.77,0.696,8.692c-0.146,3.502,1.919,4.765,1.354,8.206
                c-0.199,0.897-0.188,1.857-0.084,2.72c0.435,3.53-1.508,5.126-4.955,6.105c-10.592,2.988-21.524,4.674-32.224,7.232
                c-10.212,2.448-20.218,5.6-29.971,9.378c-10.888,4.229-21.31,9.354-32.083,13.785c-1.002,0.413-2.119,1.304-3.125,0.701
                c-3.329-2.008-5.652-0.053-8.343,1.303c-6.438,3.249-12.024,7.67-18.458,10.919c-1.784,0.904-3.562,1.854-5.607,1.937
                c-4.146,0.149-7.225,2.604-10.766,4.041c-1.229,0.497-2.217,1.511-1.976,2.887c0.493,2.823-1.406,4.146-3.682,5.337
                c-6.945,3.636-14.021,7.051-21.146,10.377c-3.354,1.564-5.88,1.106-8.083-1.651c-0.992-1.238-1.879-2.937-4.061-2.479
                c-2.104,0.438-2.078,2.32-2.694,3.75c-1.895,4.372-6.229,5.604-10.574,6.231c-4.875,0.705-9.863,0.933-14.754-0.449
                c-1.909-0.539-3.563-1.334-5.151-2.438c-4.516-3.134-9.571-3.403-15.18-3.271c-8.34,0.195-16.582,2.021-24.964,1.13
                c-1.548-0.165-3.117-0.197-3.816-1.813c0.005-3.054,2.897-4.563,4.556-6.646c1.981-2.487,3.879-4.944,5.19-7.774
                c2.021-4.365,5.884-7.35,9.932-9.905c7.744-4.896,13.667-10.877,16.859-19.14c1.688-4.373,4.467-8.396,7.368-12.183
                c3.959-5.155,3-10.071,0.313-15.146c-0.728-1.366-1.675-2.648-2.582-3.937c-2.188-3.104-1.984-5.271,1.229-7.438
                c2.152-1.451,4.165-3.02,5.912-4.83c1.754-1.813,3.578-3.761,0.753-6.171c-0.796-0.677-0.665-1.606-0.104-2.469
                c0.499-0.768,0.925-1.569,1.45-2.321c4.783-6.821,3.907-8.727-4.775-10.489c-4.69,0.116-8.481,1.563-10.13,5.945
                c-0.568,1.521-1.479,2.49-3.299,2.229c-1.604-0.229-1.948-1.43-2.215-2.741c-0.771-3.819-2.087-4.53-5.946-2.578
                c-3.604,1.826-6.896,4.063-11.227,4.45c-2.255,0.201-3.813,0.127-5.275-1.896c-1.952-2.688-4.871-4.274-8.521-5.164
                c-6.42-1.562-12.785-3.355-19.144-5.142c-0.764-2.319,1.188-3.458,2.565-4.819c13.802-13.616,29.908-24.377,48.203-32.438
                c4.99-2.199,6.495-5.148,4.992-9.054c-1.716-0.646-3.195,0.675-4.875,0.466c-0.946-0.117-2.045,0.063-2.393-1.059
                c-0.27-0.871,0.342-1.562,1.089-1.854c3.229-1.271,5.396-3.943,8.614-5.236c4.604-1.852,4.734-3.973,0.589-6.92
                c-1.75-0.072-3.218,0.662-4.716,1.336c-2.125,0.955-5.092,1.129-5.346-1.521c-0.152-1.602,0.057-2.805-1.438-2.273
                c-7.507,2.658-15.549,1.211-23.183,2.723c-0.542,0.105-1.061,0.304-1.593,0.459c-5.352-0.104-9.917,1.566-14.116,4.609
                c-3.646,2.643-4.887,3.086-9.429,3.801c-2.313,0.807-4.745,2.598-5.957,4.446c-0.573,0.241-3.369,0.96-3.942,1.2
                c-1.97-1.215-3.127,0.375-4.741,1.912c-0.805,0.766-2.876,2.021-4.262,1.477c-1.404-0.553-0.814-3.391-0.462-4.451
                c1.11-3.326-0.905-5.904-2.548-8.42C244.266,364.907,241.836,365.188,239.558,366.921z"/>
            <path id="mapid-110011121121-outline" fill="rgba(16,52,84,.2)" stroke="#212121" stroke-width="0.25" stroke-miterlimit="10" d="
                M497.007,201.762c-0.207-0.926-0.306-1.817,0.884-2.292c1.689,0.457,2.563-0.756,3.381-1.619
                c5.505-5.815,9.409-11.759,15.277-17.259c0.189-0.179,0.375-0.358,0.48-0.604c0.877-3.825,3.985-6.027,8.633-6.362
                c0.125,0.056,1.431-1.322,1.454-1.349c4.041-4.152,7.107-3.395,13.022-3.318c3.834,0.05,6.276-3.558,9.979-4.497
                c1.2-0.303,2.341-1.122,3.475-0.268c1.089,0.819-0.921,2.849-1.689,3.535c-4.06,3.605,0.286,2.294,3.769,1.311
                c2.023-0.458,6.456-1.797,8.604-1.925c2.243-0.131,2.315,0.276,4.056,2.13c1.317,1.408,7.076,1.48,9.142,1.271
                c1.286-0.131,0.747,0.329,0.199,1.475c-0.188,0.388-4.737,1.967-4.979,2.417c-0.362,0.659,5.189,0.513,4.897,1.188
                c-0.462,1.069-0.688,2.074-0.204,2.744c1.974,2.731,11.407,1.207,14.624,1.352c4.896,0.22,4.67,1.475,10.216,0.243
                c0.438-0.096,6.866-3.848,9.258-0.992c1.327,1.59,6.712,2.079,6.712,2.079c-0.726,0.271-7.495,2.936-8.198,3.299
                c-0.023,0.039-1.021,0.729-1.021,0.729c1.135,0.702,3.347,2.92,3.354,2.958c1.206,4.64-2.938,5.144-2.663,9.668
                c0.178,2.943-0.486,3.727,2.83,5.243c0.887,0.405,2.651,0.628,3.604,0.41c2.337-0.164,5.821-1.563,8.729-2.117
                c1.146-0.218,1.719,0.028,1.801,2.649c2.416,2.757,0.435,6.876,1.437,8.685c0.957,1.723,4.09,2.547,2.254,3.108
                c-2.313,0.71,0.019,1.786-2.752,1.502c-0.61-0.063-0.981-0.09-1.599-0.104c-0.286-0.005-0.237,0.363-0.524,0.367
                c-0.313,0.004-1.078,0.11-1.396,0.123c-0.204,0.009-1.219-0.406-1.422-0.394c-3.13,0.187-5.596,0.703-8.739,0.866
                c-1.264,0.065-8.723,0.772-9.989,0.836c-4.674,0.236-7.906,0.152-8.454,1.436c-0.188,2.539,6.038,2.826,1.813,4.549
                c-3.807,0.625-4.602-0.627-9.122-1.258c-2.169-0.302-2.468-0.08-2.675-0.17c-0.701-0.306-3.923,2.818-4.673,3.001
                c-0.865,0.211-1.802,0.637-2.491-1.335c-1.013-2.876-4.718-1.92-10.338,0.474c-2.548,1.453-4.313,4.909-7.155,4.481
                c-1.025-0.155-4.859,0.854-6.519,0.909c-2.479,0.082-2.608-0.83-1.477-1.802c2.141-1.83,11.308-6.227,12.25-7.947
                c0.24-0.444-3.484-1.036-5.816-0.987c-2.73,0.057-7.25,0.824-9.166-0.155c-1.8-0.92-7.003-2.725-9.108-2.004
                c-2.49,0.853-3.378,2.032-5.064,4.719c-1.49,2.366-0.914,3.57-3.855,3.548c-2.686-0.02-3.825,0.71-5.813,1.925
                c-3.047,1.861-5.24,2.316-8.646,2.949c-0.681,0.126-7.754,1.295-9.094,2.29c-1.899,1.411-2.885,2.194-3.799,2.507
                c-2.437,0.833-2.87-1.582-7.537-3.713c-2.662-1.215-3.801-6.432-6.157-5.917c-15.935,3.482-18.345,6.491-19.894,8.424
                c-1.461,1.822-1.859,2.621-0.688,3.151c2.382,1.076,5.719,1.294,4.875,3.812c-1.883,5.625,1.161,6.528-5.038,6.547
                c-3.181,0.01-6.651,0.847-8.671,0.716c-1.09-0.257-3.931,0.02-4.506-0.776c0,0-1.31,1.342-1.571,1.315
                c-0.358-0.037-1.499-0.627-1.642-0.841c-0.477-0.719,1.385-2.651,1.671-2.924c0.396-0.376,0.188-1.318,0.188-1.318
                s-2.896,1.109-4.013,1.262c-2.084,0.287-6.796,0.222-6.468,2.293c0.152,0.966,0.883,1.45,0.975,1.688
                c0.695,1.803,0.438,3.188-0.13,3.971c-1.693,2.354-2.409,4.877-10.662,6.692c-1.126,0.248-3.688,0.229-4.812,0.098
                c-2.34-0.274-2.095,0.75-0.968,4.21c1.771,5.443,2.48,8.687-2.854,10.93c-3.038,1.276-5.886,2.992-9.295,3.634
                c-1.108,0.209-1.877,1.105-2.438,2.006c-1.234,1.986-2.746,3.85-4.878,4.8c-2.521,1.121-4.912,2.265-6.979,4.101
                c-2.354,2.104-5.722,2.047-8.705,2.18c-3.708,0.164-8.489,1.81-11.823,3.238c-2.398,1.033-4.813,1.104-7.258,0.065
                c-1.857-0.791-3.058-1.808-2.077-3.865c0.646-1.356,2.055-3.921,0.748-4.854c-1.229-0.885-2.313,0.386-3.352,0.932
                c-3.718,1.954-7.214,4.176-11.848,4.297c-2.628,0.069-4.981,1.635-7.107,3.084c-2.84,1.938-5.822,2.934-9.381,2.102
                c-1.24-0.293-2.491-0.031-3.729,0.209c-0.809,0.152-2.196,0.332-2.271-0.354c-0.338-3.165-3.904-3.489-5.521-5.542
                c-1.74-2.214-1.781-3.74,1.198-4.382c3.34-0.722,5.755-2.144,7.786-4.614c1.51-1.832,4.043-2.013,6.433-2.315
                c6.234-0.787,10.374-4.203,13.25-9.107c-0.854-1.688-4.483,0.77-4.335-2.424c5.094-1.079,9.204-3.667,12.986-6.846
                c1.472-1.235,1.971-2.118-0.297-2.908c-3.668-0.275-7.424,0.539-11.014-0.739c0.353-0.865,1.117-1.489,1.933-1.825
                c3.354-1.39,3.16-3.5,1.656-5.965c-2.447-0.35-3.717,1.011-5.09,2.59c-2.273,2.618-5.091,4.354-9.075,3.185
                c-1.917-0.563-3.523-0.146-4.733,1.466c-1.221,1.63-3.014,2.244-5.117,1.838c-3.928-0.753-7.813-1.688-11.691-1.611
                c-0.479-1.236,0.279-1.483,0.852-1.779c1.955-1.014,3.438-1.96-0.046-2.923c-0.784-0.216-0.996-0.816-0.573-1.519
                c6.617-3.693,13.233-7.365,18.214-13.002c1.479-1.675,3.436-2.954,5.617-3.861c3.299-1.371,4.167-2.8,7.146-4.649
                c1.854-1.151,3.541-2.243,5.935-2.458c2.449-0.222,3.899-1.859,4.048-4.156c0.095-1.418-0.317-2.635-2.411-1.938
                c-3.805-0.92-6.971-3.405-11.01-3.749c0.158-2.758,3.004-2.473,4.729-3.391c1.864-0.995,4.346-0.663,6.041-2.146
                c1.496-0.425,2.987-0.851,4.48-1.275c3.146,0.221,7.624-2.015,10.119-3.22c5.195-2.505,10.437-3.134,16.188-1.911
                c4.346,0.925,8.858,0.921,13.316,0.279c8.283-1.867,15.918,0.542,23.406,3.24c3.036,1.095,5.813,2.082,9.196,1.543
                c3.865-0.615,7.664,1.032,11.603,0.759c2.083-0.145,4.164-0.142,6.15-0.782c1.779-1.066,0.894-2.433,2.928-2.799
                c1.055-0.188,2.524-0.466,3.127,0.493c2.431,3.871,4.568,1.023,6.709-0.165c0.926-0.517,1.51-1.471,2.372-2.131
                c1.461-1.12,2.369-1.665,4.557-0.347c5.253,3.162,11.316,2.088,15.716-2.303C494.315,202.642,496.23,203.18,497.007,201.762z"/>
            <path id="mapid-110011121120-outline" fill="rgba(16,52,84,.2)"  stroke="#212121" stroke-width="0.25" stroke-miterlimit="10" d="
                M616.93,134.667c-1.547-1.975,0.026-2.796,1.656-3.338c1.28-0.426,2.714-0.475,4.08-0.691c1.257-0.488,0.642-1.403,0.593-2.192
                c0.921-2.295,3.979-0.701,5.229-2.399c1.709-0.604,9.595,1.783,13.409-0.059c0.718-0.326-0.438-0.173,2.499-2.827
                c0.908-0.192,2.209-0.006,3.125-0.2c1.354,0.93,2.128,0.019,5.764-0.292c0.683-0.058,2.778-1.346,3.479-1.434
                c1.604-0.202,6.034,0.991,7.538,0.737c4.938-0.833,4.104-1.607,5.771-2.908c1.993-0.353,4.553-0.805,5.822,2.826
                c0.159,0.458,8.611-0.421,10.854-0.778c0.075-0.011,3.76-0.577,7.128-0.614c1.164,0.005,3.055-0.743,4.22-0.737
                c0.521,0.247,1.05-0.934,1.602-1.146c1.369-0.526,1.604-1.352,2.2-0.417c1.055,1.645,2.719,3.795,1.629,5.783
                c-1.284,2.339-3.227,3.33-1.818,5.578c1.036,1.659,3.231,4.468,2.372,4.868c0,0-2.266,3.086-3.156,3.956
                c-1.206,0.898-6.986,0.679-7.3,0.859c-1.557,0.058-2.688,0.223-4.633,1.396c-0.975,0.589-1.316,0.855-1.737,1.13
                c-1.133,0.739-0.483,2.454,1.353,3.847c1.479,1.122,1.705,4.716,1.599,5.215c-0.315,1.463-0.653,1.882-1.324,2.584
                c-2.765,1.787-3.104,0.86-4.508,2.703c-0.53,0.79,1.586,1.046,2.08,2.766c0.219,0.755-1.422,2.092-1.422,2.092
                c1.973,5.773-9.813,8.177-11.277,8.558c-4.004,1.038-2.982,0.75-3.924,1.802c-0.041,0.535,0.188,0.972,0.188,0.972
                c1.014,0.914-4.89,0.505-3.484,4.548c0.65,1.878,9.354,2.996,10.697,3.386c0.299,0.087,1.93,0.766,3.062,0.746
                c1.662-0.029,2.882,0.656,2.618,1.41c-0.104,0.308-6.063-0.082-5.9,0.94c4.186,3.197,6.767,1.436,5.388,4.273
                c-1.002,0.37-1.109,1.234-1.2,1.551c-0.087,0.304-5.04-0.25-7.867,0.487c-4.196,1.095-9.394,0.201-12.525,0.36
                c-1.804,0.091-1.341,0.903-1.979,1.018c-12.308,2.207-22.254,3.083-24.779-1.418c-2.457-4.38-2.889-6.206-7.927-6.513
                c-1.845-0.112,1.16-1.125-0.186-1.997c-2.416-0.83-3.153-1.199-8.027,0c0,0-2.461-0.536-3.548-0.805
                c-0.962-0.238-2.229-0.707-2.872-1.348c-2.475-2.454-7.16,0.529-9.721,1.118c-4.745,1.092-4.206,0.379-8.726-0.302
                c-0.979-0.146-4.649,0.192-7.995,0.214c-2.388,0.016-4.646-0.264-5.455-0.395c-3.703-0.593-2.303-3.161-1.996-3.982
                c0.145-0.381-5.053-0.83-4.898-1.188c-0.588-0.082,3.119-1.485,4.979-2.417c0,0,0.529-1.041,0.572-1.368
                c0.096-0.708,3.829-1.449,2.827-1.787c-2.05-0.69-2.611-0.524-2.335-1.843c0.229-1.105,2.061-2.826,2.008-3.176
                c-0.343-2.355-3.95,0.182-5.488-0.018c-2.098-0.437-2.278-0.702-1.021-2.583c1.144-1.706,2.289-3.36,4.139-4.241
                c2.053-0.822,6.045-1.306,6.229-3.747c-0.352-0.612-3.028-1.282-3.456-1.827c-0.208-1.331-3.406-1.063-2.402-2.761
                c0.956-1.619,3.157-3.262,5.3-2.986c1.614,0.209,2.694-0.088,3.026-1.672l0.07,0.021c2.732-1.264,11.837-0.516,14.625-1.262
                c1.594-0.443,1.729-2.686,3.354-2.744c1.829-0.066,7.104-0.808,7.333-2.171c0.322-0.199,1.358-0.745,1.683-0.942
                C614.616,136.638,613.784,137.762,616.93,134.667z"/>
            <path id="mapid-110011121119-outline" fill="rgba(16,52,84,.2)"  stroke="#212121" stroke-width="0.25" stroke-miterlimit="10" d="
                M704.081,117.406c0.767-0.62,1.042-0.512,2.082-0.537c2.105,1.037,12.622,2.748,17.17,5.145c4.611,2.43,4.688-0.461,9.787,1.246
                c1.646,0.549,4.021,3.685,5.47,3.151c0.809-0.148,1.676-0.603,2.431-0.128c4.217,2.649,8.688,3.584,13.201,5.563
                c6.939,3.042,5.243,4.574,12.207,7.374c0.982,0.396,1.878,2.25,3.093,1.782c1.391,0.773,4.203-0.219,5.596,0.553
                c1.318,1.505,1.679,2.452,3.257,3.687c-0.312,1.167,3.135-0.609,3.935,5.065c-2.052,0.587-5.99,2.536-6.227,2.676
                c-4.622,2.775-3.024,5.807-3.024,5.807c0.795,0.654,1.604,1.394,4.022,2.38c1.189,0.486,5.498,0.906,4.396,1.119
                c-1.515,0.292-6.194,0.683-7.591,0.649c-5.573-0.132-4.271,0.815-10.322,3.154c-6.705,5.178-3.713,6.125-9.094,5.734
                c-1.412-0.128-1.771-0.08-1.938-0.235c-1.301-1.198-7.112-3.984-20.229-4.103c-2.324,0.208-5.199,0.528-6.261,1.905
                c-1.227,1.59-1.461,3.252-2.19,3.416c-3.349,0.75-4.842,0.924-7.188,1.274c-2.568,0.382-2.543,2.863-0.729,4.994
                c0.153,0.18-1.138,4.09-2.188,3.973c-0.924,0.167-3.276,1.744-4.594,1.412c-1.628-0.409-6.731-4.044-6.794-4.628
                c-0.084-0.798,4.83-3.707,1.157-4.376c-1.067-0.195-6.854,0.086-8.08,0.124c-3.193,0.099-9.323-0.019-9.666-1.275
                c-0.657-2.439-1.725-2.931-3.222-2.325c-3.372,1.365-5.043-0.625-7.499-0.25c-1.045,0.159-2.282,0.525-3.536,0.767
                c-1.088,0.209-1.646,0.211-1.73-0.631c-0.109-1.111,0.813-1.644,1.65-1.805c3.317-0.627,8.413-2.071,11.229-3.898
                c3.839-2.49,2.126-5.023,2.354-5.191c2.222-1.6,1.488-2.801-0.178-4.117c-0.914-0.722-0.479-1.411,0.833-1.852
                c4.696-1.578,5.271-3.49,3.847-7.988c-0.604-1.817-4.861-3.825-1.854-5.524l2.271-1.475c1.714-0.827,6.591-1.026,8.355-1.044
                c4.031-0.044,3.271-2.155,5.772-4.547c0.86-0.823-1.323-2.869-1.726-3.682c-1.183-2.389-1.963-2.402,0.947-6.382
                c1.638-1.857-0.22-4.483-1.188-5.644C701.533,118.018,703.177,118.727,704.081,117.406z"/>
            <path id="mapid-110011011109-outline" fill="rgba(16,52,84,.2)"  stroke="#212121" stroke-width="0.25" stroke-miterlimit="10" d="
                M550.108,458.095c-1.521-3.659-1.385-5.38-1.31-6.669c0.217-3.723,0.902-3.761,0.128-6.096c-0.229-0.7-1.295-1.845-1.663-3.057
                c-0.65-2.157-0.379-2.287,0.021-4.657c0.771-4.566,2.104-6.623-4.021-9.329c-1.804-0.771-5.707-1.229-8.353-0.257
                c-1.047,0.803-2.521,0.071-2.604-1.229c-0.156-1.856,0.869-4.178,0.041-4.616c-0.729-0.385-3.031,0.16-4.854-0.012
                c-1.378-0.132-2.375-1.012-2.694-2.546c-0.364-1.729,1.775-4.163,3.208-4.854c0.122-0.063,0.261-0.108,0.36-0.195
                c1.5-1.26,4.995-2.123,3.354-4.264c-1.371-1.787-4.458,0.521-7.146,1.802c-1.837,0.872-4.22,2.624-5.615,2.047
                c-1.349-0.487-1.631-2.792-2.335-4.584c-1.354-3.443,0.433-7.501,4.542-7.929c2.093-0.224,3.374-0.988,4.354-2.467
                c4.966-7.488,8.272-16.108,15.913-23.354c2.047-2.479,3.203-2.897-0.462-5.229c-3.799-2.39-6.616-4.285-7.109-5.654
                c-1.212-3.338,2.229-4.191,3.738-9.264c0.843-2.812,1.313-2.226,1.845-5.427c0.335-2.038-0.122-3.687-0.342-5.155
                c-0.244-1.675-0.146-0.979,0.722-1.132c3.058-0.521,6.836-0.097,6.896-7.487c0.034-4.035,7.146-3.545,10.313-4.576
                c2.665-0.86,3.244-2.646,5.318-4.082c7.038-5.984,11.595-15.389,16.938-22.168c0,0,7.494-0.938,11.063-1.601
                c10.525-1.463,18.646-1.928,29.311-1.375c5.89,0.271,13.484-1.87,23.188-6.088c6.313-2.737,10.146-2.491,19.106-0.642
                c6.231,1.285,9.268-1.854,15.421-2.703c1.104-0.152,3.756-0.305,4.896-0.161c1.854,0.11,2.282,1.298,1.015,4
                c-0.375,0.799-0.478,1.729-0.577,2.612c-0.47,3.83,0.286,4.396,4.272,3.516c3.771-0.833,6.214-2.215,10.014-2.951
                c1.85-0.357,5.854,1.415,3.438,4.159c-0.678,1.901,3.494,2.295,4.875,3.032c3.709,1.974,4.146,2.785,8.438,3.316
                c1.011,0.127,2.875-0.26,3.231,0.61c1.728,4.144,3.438,2.444,7.725-0.588c0,0,0.681,0.286,2.646,0.826
                c1.967,0.538,8.698-3.188,8.479-2.901c-0.685,0.889,9.323,1.694,10.441,1.686c1.578-0.994,5.454-0.108,7.291-0.205
                c8.273-0.441,8.954,0.098,17.068,1.289c0.702,0.191,1.509,0.65,1.486,1.209c-1.806,6.391,3.853,5.242,6.557,6.063
                c1.206,0.137,2.574-0.367,3.849-0.213c1.471,0.182,3.459,0.996,6.479,1.063c12.214,0.271,15.646,1.381,26.176,3.445
                c15.201,2.984,26.757,6.034,42.61,21.867c3.095,2.938,4.213,7.479,8.059,9.912c1.03,0.654,3.154,1.604,4.417,1.801
                c6.313,0.984,7.918,4.635,9.977,9.438c0.807,1.885-1.124,3.438,1.188,4.44c0.855,0.372,2.165-0.207,3.111,0.288
                c1.051,0.549,3.256,2.028,4.242,2.721c2.411,1.688,5.813,2.896,5.348,6.407c0.063,0.917,0.009,1.938,0.404,2.761
                c1.672,3.463,0.125,9.701-2.023,12.474c-1.954,2.512-1.232,2.132-0.955,5.079c0.354,3.736,0.846,4.994-0.313,8.429
                c-2.396,7.091-9.236,12.211-12.248,19.016c-1.111,2.521-1.911,4.608-2.858,8.748c-0.006,1.041,1.101,8.063,0.983,8.78
                c-0.677,4.362-4.104,1.39-9.095,0.859c-6.925-0.732-14.521-1.173-20.341-3.779c-5.604-2.519-10.469-0.232-15.55-1.528
                c-5.146-1.313-10.621-2.224-16.142-1.078c-1.902,0.396-3.896,0.17-5.813-0.297c-9.119-2.222-18.604-3.493-27.999-3.189
                c-3.936,0.123-8.148,0.048-11.608-2.411c-0.664-0.479-1.735-1.146-2.229-0.5c-3.479,4.505-8.466,1.621-12.702,2.229
                c-3.675,0.533-7.533-0.646-11.178,0.756c-3.493-0.007-6.991,0.063-10.479-0.03c-3.479-0.101-6.618,0.179-8.864,3.157
                c-1.274,1.696-3.685,1.799-5.729,1.979c-15.14,1.313-30.31,2.335-45.422,3.854c-10.39,1.049-25.388,2.147-35.822,2.996
                c-4.729,0.388-5.391-0.133-3.606-4.239c1.064-2.471,2.354-4.601,2.23-7.154c-0.043-0.903-0.142-1.896-1.237-2.242
                c-1.056-0.332-1.12,0.426-1.854,1.042c-0.204,0.17-0.475,0.352-0.544,0.571c-3.059,9.395-9.548,5.464-16.449,6.764
                c-4.229,0.798-5.878,1.576-5.354,5.479c0.543,4.074-1.438,5.487-5.35,6.168c-3.554,0.608-7.03,1.61-10.521,2.521
                c-3.45,0.896-4.396-0.464-3.729-3.33c0.508-2.205,1.063-4.396,1.823-7.497c-4.731,2.467-9.193,3.627-10.14,8.864
                c-1.053,5.824-1.959,6.063-8.275,7.389c-5.694,1.195-11.259,2.938-16.866,4.479c-1.748,0.479-8.909-0.067-8.52-0.762
                c0.395-0.695,0.271-1.951,0.271-3.584C550.018,460.88,550.496,459.474,550.108,458.095z"/>
            <path id="mapid-110011011110-outline" fill="rgba(16,52,84,.2)"  stroke="#212121" stroke-width="0.25" stroke-miterlimit="10" d="
                M457.069,248.223c4.07,1.74,11.429-0.164,16.507-0.168c0.935-0.111,0.795-0.897,1.104-3.519c0.104-0.897,0.514-2.055,0.692-3.413
                c0.44-3.256-7.979-1.871-4.948-5.444c4.261-6.576,18.229-8.798,21.188-9.333c0.49-0.089,2.301,2.086,2.49,2.461
                c2.01,3.933,3.729,3.237,7.146,6.151c1.729,1.474,3.543,1.446,5.063,0.076c2.021-1.824,3.549-2.259,6.106-2.862
                c4.646-1.095,7.92-1.315,12.328-3.113c2.426-1.399,4.913-2.793,6.669-2.739c3.65,0.112,3.196-1.642,4.477-3.559
                c3.621-5.427,5.952-6.062,12.229-3.407c2.513,1.063,5.014,1.495,7.729,0.99c2.332-0.433,9.137,0.084,9.202,0.845
                c0.082,0.901-5.354,3.587-8.021,5.276c-1.034,0.751-5.541,2.793-4.902,3.812c0.503,0.806,1.457,0.716,2.714,0.617
                c0.854-0.067,4.704-0.885,5.455-0.872c0.498,0.008,0.924,0.175,1.557-0.01c0.935-0.275,2.204-1.059,2.813-1.68
                c2.808-2.883,4.199-3.579,8.078-4.486c2.371-0.601,4.443-1.425,5.756,1.676c0.82,1.938,2.756,0.895,3.729-0.158
                c2.214-2.39,4.912-2.203,7.604-1.357c2.743,0.862,6.867,2.09,8.579-0.014c0.852-1.044-1.114-0.921-2.592-2.642
                c-1.283-1.495,1.152-2.295,2.408-2.269c5.154,0.108,14.551-1.206,24.217-1.943c0.448-0.035,1.146,0.434,1.6,0.402
                c0.09-0.006,1.288-0.122,1.396-0.123c0.277-0.003,0.408-0.386,0.774-0.366c1.426,0.079,2.146,0.271,2.904,0
                c0,0,0.198,0.958,1.163,5.777c0.68,3.389,0.994,8.396,1.174,11.834c0.146,2.727-0.686,5.241-3.974,5.407
                c-0.814,0.04-2.212-0.286-2.938,0.045c-1.178,0.535-2.156,1.438-1.938,2.705c0.271,1.56,1.817,1.489,3.031,1.306
                c4.342-0.657,6.274-0.186,4.911,3.447c-0.649,1.741-1.827,4.754-3.236,5.758c-2.308,1.637-3.322,1.701-6.021,1.938
                c-1.395,0.123-6.327,3.802-8.23,4.219c-4.417,1.988-7.382,1.771-12.289,0.287c-1.569-0.473-3.121-0.258-4.077,1.156
                c-4.93,5.945-7.002,8.138-12.354,14c-2.841,3.144-7.496,7.046-8.457,11.106c-0.986,3.314-6.531,6.223-9.815,7.07
                c-3.232,0.836-5.072,2.102-5.418,2.813c-0.646,1.345-5.435,2.728-3.063,4.896c0.775,0.709,2.282,0.158,3.73,0.865
                c0.853,0.418,2.318,2.808,3.227,3.039c2.709,0.698,10.703,0.867,14.748,0.934c-5.221,9.076-12.703,18.896-20.521,25.396
                c-0.979,0.813-2.223,0.989-3.477,1.197c-7.203,1.303-8.405,0.921-8.728,6.101c-0.319,5.197-4.788,5.928-7.285,5.565
                c-0.507-0.072-0.287-2.276-2.171-1.146c-2.292,1.371-6.079,3.812-11.101,2.789c-1.63-0.328-4.119-1.633-6.835-2.414
                c-6.892-1.988-8.243-0.701-13.604-2.604c-1.511-0.604-2.418,1.327-3.897,1.269c-0.86-0.793-0.016-1.459,0.027-2.156
                c0.073-1.188,1.628-2.506,0.141-3.521c-1.521-1.038-3.301-0.396-4.716,0.452c-2.595,1.563-3.315,2.94-4.747,5.565
                c-2.076,3.813-7.428,6.971-12.084,7.291c-3.237,0.229-5.284-3.938-5.407-6.596c-0.215-4.57-3.279-5.031-7.209-5.896
                c-3.866-0.854-3.336-2.269-1.273-4.313c1.044-1.031,1.979-2.072,2.407-3.518c0.716-2.396-0.103-4.145-2.54-4.958
                c-4.635-1.55-5.66-3.054-10.628-0.89c-10.765,4.688-28.322,4.024-39.7,3.844c-1.386-0.021-1.852-1.836-2.581-3.193
                c-2.146-3.992-10.159,4.955-13.687,3.357c-0.863-0.396-0.951-4.188-1.471-4.985c-0.606-0.94-1.688-2.433-4.555-0.506
                c-1.334,0.896-3.293,2.797-4.913,5.589c-3.359,5.925-2.705,5.885-10.154,2.415c-1.403-0.608-2.72-0.33-4.067,0.054
                c-2.403-0.305-4.684,0.344-7.273,0.387c2.706-1.271,5.284-2.922,8.146-3.713c3.643-1.006,6.344-3.201,9.289-5.064
                c2.851-1.807-0.777-2.555-3.928-3.635c-1.995-0.688-7.454,1.519-3.273-3.192c0.6-0.673-2.229-0.312-3.085,0.087
                c-4.483,2.081-7.366,2.917-12.211,4.021c-2.173,0.492-4.228,1.799-2.204,4.476c1.253,1.653,0.077,2.354-1.563,2.536
                c-1.094,0.121-2.41,0.275-3.313-0.146c-7.06-3.289-15.586-0.82-22.882-1.914c-2.979-0.438-5.679,0.271-8.738,0.813
                c-3.271,0.579-2.615-2.457-3.413-3.904c-0.107-0.19-1.659-3.381,0.64-4.995c5.069-3.563,12.896-5.719,18.335-9.98
                c7.63-5.235,5.795-7.858,5.795-7.858s0.104-0.206,1.391-0.229c5.28-0.994,8.147-4.973,12.041-5.344
                c3.577-0.416,5.896-0.607,9.255-2.629c1.524-0.416,4.631-3.121,5.604-2.94c0.665,0.122,1.316,0.593,1.432,0.952
                c0.549,1.754-1.867,4.541-1.464,6.146c0.203,0.813,2.707,2.668,4.792,2.657c4.424-0.021,7.095-2.156,10.128-2.771
                c3.44-0.633,5.276-1.17,10.505-1.539c2.844-0.199,5.448-2.602,7.042-3.66c1.82-1.215,5.352-2.42,6.3-3.361
                c3.595-3.583,3.795-5.26,5.643-5.795c3.23-0.938,5.094-1.769,9.6-3.766c4.984-2.216,4.535-5.493,1.854-13.108
                c-0.499-1.416-0.078-2.129,1.859-1.879c6.391,0.82,14.688-2.856,15.854-8.488c0.054-0.249-0.347-2.095-0.45-2.294
                c-4.425-5.202,7.043-2.729,9.504-5.243c0.528,2.313-3.896,3.853-0.812,4.98C455.719,249.732,456.141,249.425,457.069,248.223z"/>
            <path id="mapid-110011011107-outline" fill="rgba(16,52,84,.2)"  stroke="#212121" stroke-width="0.25" stroke-miterlimit="10" d="
                M783.071,189.389c2.604-0.89,5.376-1.506,7.771-2.735c3.172-1.625,5.65-3.856,3.755-7.741c-0.981-2.014,0.191-3.65,1.271-5.33
                c2.957-4.593,1.604-7.755-4.001-9.257c-4.527-1.212-12.604-1.927-16.881-3.971c-5.34-2.555-0.123-8.356,7.313-10.05
                c6.991-2.466,21.685,2.24,28.571,4.09c5.584,1.497,13.449,5.612,19.971,7.681c5.606,1.671,8.026,3.182,13.832,4.608
                c5.056,1.243,6.634,4.063,11.611,5.562c1.583,0.475,3.335,0.785,4.663,1.627c14.729,9.347,26.521,13.815,39.365,25.714
                c2.433,2.255,5.109,4.359,5.674,7.754c0.695,2.466,2.621,4.166,4.438,5.939c20.646,20.167,44.707,36.775,65.426,56.878
                c3.475,3.369,6.785,5.75,8.836,10.051c0.511,1.064,1.104,2.21,2.286,2.669c9.337,3.597,15.778,14.075,21.874,20.584
                c12.271,13.104,24.34,26.218,35.7,39.938c9.047,10.927,18.719,21.856,25.254,34.35c3.92,7.484,8.862,14.479,12.561,22.087
                c4.812,9.918,9.593,19.229,9.314,29.958c-0.146,5.682-3.646,14.171-8.172,17.146c-7.643,1.934-15.201,4.219-22.942,5.724
                c-15.55,3.021-35.339,8.75-51.1,11.054c-3.116,0.454-6.063,1.864-9.083,2.837c-5.808-1.229-11.464-2.977-17.237-4.329
                c-12.061-2.825-22.554-1.095-34.446,0.269c-1.358,0.149-2.813,0.204-4.144-0.046c-9.288-1.748-18.978-2.173-27.85-5.188
                c-11.523-3.914-24.43-6.677-36.399-8.289c-3.679-0.496-3.521-2.375-3.191-3.748c-0.296-2.67-1.131-8.262-0.804-9.793
                c1.783-8.212,5.847-13.538,11.737-20.743c0.301-0.271,2.241-3.535,2.373-3.845c1.97-4.604,1.649-7.003,1.099-10.813
                c-0.543-2.718-0.799-2.856,1.021-4.929c2.328-2.648,3.593-9.056,1.993-12.398c-0.481-1.206-0.338-2.471-0.313-3.546
                c0.064-2.783-3.263-4.33-5.438-5.621c-2.482-1.478-3.063-3.202-6.849-2.938c-0.98,0.068-1.939-1.037-1.688-1.863
                c0.707-2.305-0.771-4.678-2.028-6.729c-1.776-3.999-5.438-4.684-7.77-5.317c-6.881-1.892-7.715-5.416-11.813-10.621
                c-5.483-6.976-20.108-16.768-24.015-17.586c-7.134-2.604-12.127-3.853-17.377-4.981c-27.839-6.235-25.39-2.069-33.89-4.771
                c-1.616-0.52-3.392,0.256-5.26,0.01c-3.417-0.449-7.821-1.104-5.97-5.854c0.021-0.447-0.354-0.953-0.85-1.271
                c-2.396-0.416-9.54-1.771-12.271-1.547c-4.264,0.354-7.803-0.063-9.584-0.104c-3.188-0.081-3.158,0.459-3.158,0.459
                c-10.524-0.858-9.999-1.254-10.441-1.683c0,0,0.896-0.395,0.938-0.688c0.159-1.099,3.775-3.543,2.539-4.638
                c-1.563-1.386-1.959-1.249-2.417-1.601c-1.516-1.271,9.185-3.6,8.451-6.508c-0.209-0.832-2.455,0.537-2.198,0.051
                c-4.815,0.396-8.178-0.264-9.982,1.584c-0.314,0.317-2.239,1.063-3.023-0.646c-0.827-1.792,0.409-2.842,2.314-3.229
                c-0.723-0.146,0.554,0.226,3.479-1.729c2.563-2.433,1.497-3.413,4.056-5.813c0.949-0.592,2.291-2.585,1.552-3.398
                c-1.404-1.547-1.011-2.124-2.065-2.086c-0.298,0.152-2.949-0.053-5.893-0.085c-3.193-0.034-6.353,0.538-3.936-1.694
                c0.204-1.229,9.414-5.413,12.125-6.391c4.623-1.662,4.508-5.448,10.979-4.851c2.009,0.509,5.606-0.352,4.669-2.277
                c-0.753-1.538-4.104-1.244-2.87-1.237c0.737,0.004-8.188-0.195-10.318-2.367c-0.775-0.533-1.763-0.819,1.437-1.762
                c-0.445-0.912,13.846-2.137,13.229-2.867c-1.063-1.27-1.6,0.041-2.408-4.042c-0.464-2.327,3.354-3.741,2.65-3.809
                c-3.068,0.559-7.646-0.165-10.074-0.626c-1.578-0.3-4.604-2.566-6.23-2.736c-5.83-0.608-12.565-2.019-12.483-3.658
                c1.188-6.063-4.966-5.569-7.472-4.593c-4.531,1.767-4.419,4.289-5.331,4.78c-1.372,0.469-2.604-1.441-4.482-1.126
                c-2.944,0.492-13.563,3.07-12.13-0.576c0.127-0.538-0.752-5.133-1.021-5.714c-2.021-4.338,0.876-5.644,5.528-7.742
                c2.004-0.902,4.785-3.446,6.884-4.117c2.495-0.799,1.309-3.613,1.779-6.145c0.341-1.796,4.979-4.26,19.416-4.854
                c1.164-0.048,2.104,0.773,4.384,0.066c1.747-0.543,3.175-2.192,3.804-2.324c2.551-1.219,3.432-1.675,4.547-2.751
                c0.175-1.443,1.317-1.698,1.771-2.119c2.069-1.922,0.223-1.918-3.317-4.977c-2.299-1.984,0.137-4.701,2.458-5.776
                c2.591-1.198,15.489-0.729,18.277-0.512C775.607,193.937,773.65,193.338,783.071,189.389z"/>
            <path id="mapid-110011011106-outline" fill="rgba(16,52,84,.2)"  stroke="#212121" stroke-width="0.25" stroke-miterlimit="10" d="
                M584.344,274.931c2.92-2.813,8.448-9.501,11.879-13.333c1.288-1.439,1.396-2.355,4.139-1.928c0.769,0.12,4.387,1.293,6.396,1.26
                c2.426-0.041,4.248-0.854,6.31-1.441c2.008-0.574,0,0,7.046-3.501c0.438-0.31,0.941-0.749,1.437-0.759
                c5.937-0.133,7.733-3.621,8.879-7.326c1.441-4.677-0.521-3.81-4.596-3.802c-0.979,0.001-3.13,0.204-3.22-1.279
                c-0.124-2.054,2.566-3.351,4.271-2.766c1.711,0.589,4.781-1.417,4.597-4.531c-0.197-3.263-0.265-8.971-2.369-18.734
                c-0.227-1.028,2.229-1.297,1.714-1.72c-2.188-1.782-3.052-2.165-3.059-3.758c0.706-6.593-1.1-7.232-1.138-7.453
                c-0.333-1.874-0.075-2.412-1.438-2.615c-0.808-0.12-1.182,0.05-2.003,0.198c-2.531,0.459-7.169,3.277-11.657,1.119
                c-0.57-0.724-1.396-0.911-1.657-1.838c-0.599-2.142-0.271-5.586,0.904-7.146c2.375-3.143,3.107-5.917-1.602-8.356
                c-0.682-0.353,0.521-0.415,0.818-0.902c1.208-0.287,9.646-4.163,11.959-4.027c6.476,0.381,3.67,1.819,3.563,2.629
                c-0.066,0.525,5.765-0.446,7.544,5.099c2.741,5.284,8.354,5.27,15.979,4.554c3.347-0.314,6.242-0.894,9.784-1.552
                c0,0,0.15,0.674,0.539,1.325c0.439,0.756,0.745,1.031,0.262,1.469c-1.087,0.982-3.021,1.72-4.094,2.715
                c-2.77,2.043-7.104,6.755-8.992,8.679c-2.048,2.089-6.695,1.762-6.695,4.179c0,2.295,3.459,1.693,7.729,1.104
                c2.528-0.35,3.847-0.102,6.384-0.135c1.461-0.019,3.679-0.334,4.75-0.359c1.176-0.38,2.346-0.797,5.084-0.733
                c7.869,0.184,11.021-0.655,16.102-0.348c1.592,0.097,6.271-0.144,5.95,1.857c-0.307,1.934-1.73,2.065-3.288,2.166
                c-3.657,0.236-8.563-0.644-11.75,3.091c-1.272,1.496-4.229,3.104-3.787,4.527c0.313,1.018,5.338,1.201,4.972,2.43
                c-1.625,2.391-1.736,4.352-2.054,7.085c-0.232,2.32,0.818,3.812,2.106,4.045c3.104,0.562,7.729-0.291,7.188,2.552
                c-0.366,1.961-0.214,5.053,1.746,5.037c2.184-0.018,4.188,0.438,4.496,0.588c2.926,1.417,1.56,5.834,5.063,5.187
                c2.457-0.454,2.335-3.889,8.464-5.81c1.065-0.334,1.001-0.926,1.64-1.157c0.365,0.09,0.021,1.275,1.948,1.452
                c3.918,0.357,7.792-0.779,9.096-1.111c2.611-0.668,1.704-0.406,4.6,0.797c1.754,0.733,1.906-1.444,3.016-2.361
                c5.139-4.254,12.493-4.014,11.063,2.335c0.745,1.854,9.608,3.345,11.625,3.533c2.166,0.239,1.644,0.238,5.661,2.411
                c2.011,1.084,9.49,1.498,11.51,1.076c1.044,0.272-2.674,0.965-2.7,3.14c-0.014,0.898,0.475,2.807,1.021,3.599
                c0.632,0.908,1.158,0.859,1.438,1.112c-2.499,1.27-6.033,1.038-9.528,1.824c-0.944,0.213-2.311,0.101-3.704,1.043
                c-0.937,0.634-2.416,0.697-2.155,1.225c0.559,1.895,10.208,3.137,12.195,2.88c0.561-0.071,1.381,0.823,1.722,1.262
                c0.469,0.605,0.099,1.573-1.836,2.201c-1.058,0.343-3.813-0.126-5.334,0.093c-5.633,0.811-3.028,3.4-10.332,5.573
                c-1.948,0.938-9.044,4.054-10.271,5.651c-1.053,1.368-1.059,1.654-0.077,1.656c1.792,0.004,7.783,0.076,9.069,0.144
                c2.396,0.131,0.647-0.857,2.479,1.396c1.994,2.464-1.472,3.711-2.313,5.556c-1.29,2.84-2.919,5.52-6.813,6.148
                c-1.448,0.229-2.604,1.277-2,2.822c0.641,1.635,2.27,1.625,3.449,0.778c3.311-2.347,7.38-0.302,10.806-1.761
                c0.271-0.115,0.899,0.045,1.104,0.303c0.144,0.188-0.204,1.336-0.204,1.336c-0.472,0.359-1.808,1.276-3.313,2.063
                c-1.928,0.996-4.097,1.885-4.703,2.33c-1.741,1.146,1.899,0.982,2.383,2.957c-0.191,1.104-2.938,3.52-2.73,4.061
                c0.259,0.671-5.976,2.873-7.558,3.52c-1.821,0.744-3.188-0.838-4.338-0.701c-1.42,0.166-3.188,2.897-5.08,2.945
                c-2.771,0.068-2.058-2.682-3.384-2.873c-0.864-0.127-3.316-0.259-3.813-0.313c-2.052-0.246-5.508-2.316-8.734-3.676
                c-2.885-1.209-4.614-1.363-2.799-3.528c1.048-1.246-1.593-3.646-4.067-3.146c-3.397,0.683-7.069,2.332-10.461,3.049
                c-2.331,0.488-3.979,0.557-3.899-1.842c0.049-1.553-0.063-2.896,0.651-4.386c1.845-3.856,0.063-4.502-4.623-4.032
                c-3.315,0.387-7.396,2.017-10.612,2.838c-3.094,0.791-3.533,0.563-7.605-0.151c-5.376-0.951-10.771-2.121-15.724,0.045
                c-9.936,4.343-17.938,7.541-28.962,6.8c-10.979-0.74-25.338,1.723-35.762,3.031c-3.729,0.469-9.875-0.458-15.168-0.82
                c-1.179-0.08-2.114-1.828-3.141-2.832c-1.429-1.396-5.02,0.08-4.638-2.603c0.196-1.384,2.664-2.433,3.938-3.765
                c1.175-1.227,2.606-1.75,4.254-2.242c5.162-1.522,9.727-3.426,11.229-9.002C577.008,282.387,583.006,276.714,584.344,274.931z"/>
            <path fill="rgba(16,52,84,.2)" stroke="#212121" stroke-width="0.25" stroke-miterlimit="10" d="M745.126,207.607
                c1.875-1.323,0.972-1.923,2.89-3.195c2.442-1.618-1.149-3.477-3.314-4.977c-0.619-0.723-0.987-1.95-0.819-2.486
                c2.541-5.256,9.553-3.821,10.036-3.965c1.513-0.447,9.782,0.264,10.578,0.1c0.938,0.064,4.4,0.306,6.258,0.364
                c4.854,0.151,7.178-2,11.163-3.564c1.516-0.997,7.396-2.306,8.933-3.229c6.444-3.871,4.405-4.965,3.407-8.922
                c-0.5-1.976,1.646-3.638,2.408-5.557c2.539-6.352-3.042-7.255-9.052-8.751c-8.379-2.086-4.374-0.758-10.842-0.571
                c-2.888,0.083-5.355,0.306-6.629,0.309c-1.813,0.003-5.054,2.725-6.979,3.245c-0.805,0.696-4.626,4.287-5.188,5.119
                c-0.105,0.162-2.604,0.709-5.44,0.064c-4.45-3.288-14.357-3.772-15.187-3.861c-14.42-1.557-11.38,4.524-13.848,5.244
                c-3.933,1.147-8.229,0.415-8.849,2.54c-0.313,1.067,0.665,3.206,1.282,3.564c-0.195,1.529-0.893,3.529-2.188,3.973
                c-4.651,1.593-3.53,2.101-6.555,0.465c-0.615-0.332-5.287-3.318-4.833-3.906c2.232-2.896,3.69-3.426,1.158-4.152
                c-5.634-0.354-9.191,0.485-12.672,0.145c-1.475-0.144-4.96-0.246-5.219-1.625c-0.554-2.949-2.521-2.309-4.283-1.789
                c-1.683,0.497-4.475-0.525-6.294-0.458c-1.448,0.054-1.35,0.492-2.925,0.68c-1.689,0.201-4.298,0.857-5.146,1.65
                c-4.313,5.208,10.188,5.466,10.237,6.177c1.217,1.05,6.063,0.351,5.684,2.156c-2.621,0.328-11.556-0.123-0.573,3.318
                c0.69,0.217,0.655,1.721-0.448,2.294c-1.405,0.729,0.109,1.473-2.05,1.25c-4.589-0.472-8.379,1.049-9.261,1.017
                c-1.469-0.054-4.354,0.039-5.854-0.103c-1.846-0.176-4.832-0.177-5.278,0.015c-1.895,0.811,2.059,3.666-0.947,4.457
                c-2.563,0.718-10.401,8.758-11.962,10.568c-1.637,1.9-6.259,1.856-6.64,3.564c-0.57,2.581,3.216,2.704,7.063,1.802
                c1.615-0.378,10.039,0.089,12.2-0.731c2.104-0.797,4.34-0.497,6.544-0.61c3.024-0.158,14.198-0.642,18.063-0.063
                c2.499,0.38,2.354,1.231,1.643,2.715c-0.574,1.188-2.101,1-4.632,1.106c-3.946,0.166-6.674-0.17-9.587,2.658
                c-1.311,1.271-1.854,1.531-2.823,2.545c-1.085,1.13-2.115,2.358-0.751,2.867c1.609,0.603,4.948,0.93,4.354,1.926
                c-2.866,4.792-2.854,10.873,0.481,11.172c2.269,0.203,7.382-0.03,6.769,2.51c-0.635,2.62,0.123,4.998,1.347,5.023
                c1.346,0.028,2.558-0.01,4.875,0.465c1.468,0.3,2.479,5.319,4.021,5.409c1.998,0.115,2.775-1.359,4.771-3.302
                c1.446-1.408,5.104-2.53,5.775-3.137c0.88-0.794,1.032-0.972,0.831-2.179c-0.327-1.949-0.505-3.841-1.335-5.563
                c-1.69-3.501,2.783-5.092,6.465-7.002c2.541-1.321,4.246-2.981,6.907-4.098c1.327-0.554,1.058-3.375,1.104-4.868
                c0.097-2.751,2.171-3.045,6.015-4.304c3.995-1.309,13.229-1.255,13.521-1.576c0.146,0.036,1.671,0.325,1.833,0.34
                c3.231,0.302,5.231-2.409,7.311-2.992L745.126,207.607z M750.719,188.696c0.021,0.061,0.049,0.12,0.065,0.184
                C750.761,188.819,750.741,188.757,750.719,188.696z"/>
        </g>
        <path id="mapid-110011121118-outline" fill="rgba(16,52,84,.2)"  stroke="#212121" stroke-width="0.25" stroke-miterlimit="10" d="
            M376.68,70.273c3.771-2.445,7.25-2.235,11.668-2.312c1.657-0.322,2.996-0.806,0.79-2.357c-1.161-0.816-2.17-1.763-0.767-2.942
            c4.321-2.048,11.033-3.517,15.591-3.382c4.658,0.137,8.665,0.088,13.146,2.468c2.053,1.091,6.546,0.795,8.708,0.172
            c5.777-1.667,10.055-0.359,15.328,1.983c1.964,0.87,4.229,0.107,6.373,0.513c6.01,1.138,11.725,2.728,17.249,4.388
            c4.158,1.249,7.87,3.712,11.311,6.136c0.953,0.671,1.6,1.775,2.386,2.681c0.689,2.646,0.854,3.306,0.107,5.997
            c-1.299,4.681,0.634,9.05,4.502,11.574c0.197,0.203,0.396,0.406,0.602,0.61c2.084,1.519,3.295,1.926,4.938,3.981
            c2.736,5.101,1.781,9.7-4.124,12.02c-4.69,1.842-9.701,2.401-14.572,3.521c-7.885,1.975-15.527,4.902-23.604,6.092
            c-8.309,1.223-16.613,1.947-25.062,1.116c-2.634-0.259-5.45-0.719-8.165-0.005c-1.607-0.219-4.929-1.283-6.457-1.832
            c-4.348-1.563-3.035-3.173-5.36-7.448c-1.422-2.611-6.447-7.229-7.606-8.525c-0.683-0.795-0.776-2.193-0.886-3.091
            c-0.776-2.845-3.729-4.38-7.052-5.569c-1.146-0.409-2.47-0.47-3.652-0.674c-1.34-0.229-3.563-0.063-3.8-2.732
            c-0.2-2.287,0.672-3.14,2.915-3.934c0.83-0.295,3.234-0.093,4.021-0.472c0.72-0.191,2.033-0.633,3.708-0.415
            c0.21,0.027,1.546-0.274,1.783-0.648c3.06-2.759,0.228-3.305-0.918-3.675c-0.043-0.014-1.684-0.729-1.931-0.308
            c-2.488,0.167-3.331,0.123-5.803,0.563c-2.377,0.069-5.229,0.497-7.313-0.564c-2.998-1.582-2.354-4.679-1.966-4.879
            c0.44-0.229,3.194-0.553,3.428-0.804c0.742-0.741,1.677-1.33,0.143-4.45C376.26,72.906,376.68,70.273,376.68,70.273z"/>
        <path id="mapid-110011011104-outline" fill="rgba(16,52,84,.2)" stroke="#212121" stroke-width="0.25" stroke-miterlimit="10" d="
            M106.127,178.641c9.02-8.344,18.58-15.873,30.522-18.94c3.993-1.025,8.127-1.61,12.251-2.13
            c6.167-0.077,15.395-0.615,21.503,0.492c2.964,0.537,4.335,1.107,7.187,0.129c2.02-0.692,6.167-1.604,1.908-3.571
            c-0.771-2.437,3.031-3.195,3.198-5.272c4.099,0.188,11.976-2.32,15.645,0.685c1.29,1.056,3.185,0.374,3.185,0.374
            c6.621-5.625,10.929-5.755,14.924-6.029c2.489,0.05,6.05-0.726,11.134-1.132c5.681-0.454,11.368-0.022,14.526-1.233
            c4.079-1.564,3.098-1.22,3.268-3.705c0.126-1.838-0.173-3.697,2.587-4.46c1.437-0.397,2.76-0.114,3.857-0.538
            c1.504-0.58,3.738-1.872,3.56-4.493c0,0,1.625,3.002,4.602,3.089c5.17,0.15,20.8-0.49,26.215,0.201
            c3.012-0.053,3.598,1.774,3.556,4.532c-0.061,3.88-0.509,6.858-3.439,9.893c-1.803,1.865-0.57,2.506,1.142,2.553
            c1.739,0.049,4.5,0.793,6.244,0.603c1.287-0.141,2.261,0.323,2.691,1.023c0.74,1.208-0.448,1.761-1.291,2.643
            c-3.301,3.447-1.902,7.816-0.396,11.868c0.627,1.686,1.72,3.044,3.063,4.241c0.603,0.535,1.883,0.773,1.494,1.867
            c-0.308,0.876-1.458,0.849-2.268,1.158c-1.976,0.757-4.208,0.042-6.136,1.071c-7.792,0.917-13.996,5.03-19.587,10.109
            c-5.854,5.318-9.047,11.822-7.656,20.013c0.594,3.492-0.996,6.169-4.246,6.845c-13.209,2.743-24.377,10.649-37.179,14.369
            c-15.32,4.451-24.762,21.797-24.599,33.529c0.063,4.442,1.875,8.334,3.356,12.345c1.109,3.01,2.172,6.009,1.925,9.29
            c-1.341,4.12-2.781,8.195-5.478,11.681c-3.554,3.271-6.37,7.229-10.112,10.354c-5.008,4.182-10.525,7.527-16.16,10.703
            c-5.944,3.354-11.253,6.381-16.062,11.309c-5.467,10.76-10.613,13.322-16.609,18.134c-1.471,1.181-6.298,0.144-7.533,1.594
            c-1.803-1.214-1.838-3.146-1.979-5.004c-0.243-3.222,0.426-6.36,0.917-9.513c0.925-5.943,0.166-8.646-5.163-11.577
            c-1.589-0.873-1.09-1.651-0.3-2.55c1.816-2.063,3.715-4.063,5.534-6.119c1.376-1.563,3.135-3.172,2.432-5.45
            c-0.711-2.312-3.076-1.599-5.121-2.063c-4.869-1.101-8.895,0.449-13.8-0.252c-0.867-0.125-1.762-0.037-2.64-0.115
            c-8.151-0.723-12.413-4.782-9.597-12.607c2.105-5.85,6.455-12.011,10.216-16.937c1.802-2.357,3.76-4.62,4.936-7.389
            c1.597-3.76,0.702-5.331-2.923-7.24c-2.669-1.406-5.638-1.835-8.551-2.415c-3.348-0.665-6.735-1.168-10.031-2.029
            c-5.327-1.391-7.062-4.238-5.87-9.57c1.9-8.515,6.146-16,10.647-23.333c2.598-4.229,5.212-8.421,7.016-13.077
            c1.646-4.261,4.594-7.416,8.48-9.811c2.432-1.498,4.729-3.22,7.003-4.952c1.057-0.804,1.956-1.888,1.637-3.388
            c-0.343-1.596-1.757-1.807-3.041-2.119c-3.479-0.842-7.021-0.389-10.533-0.517c-0.771-0.028-1.543,0-2.313-0.044
            c-4.644-0.267-5.25-1.458-2.775-5.419C105.45,179.776,105.785,179.207,106.127,178.641z"/>
        <g>
            <path id="mapid-110011121113-outline" fill="rgba(16,52,84,.2)"  stroke="#212121" stroke-width="0.25" stroke-miterlimit="10" d="
                M374.762,138.805c-3.819-2.396-7.776-4.594-11.479-7.168c-4.133-2.876-4.395-5.388-1.38-9.325c0.62-0.811,1.565-1.677,0.01-2.283
                c-3.045-1.183-5.964-2.855-9.479-2.381c-1.988,0.268-5.768,0.31-6.427-2.099c-0.104-0.387-1.732-0.743-2.364-0.485
                c-5.402,2.749-10.811,6.291-17.799,8.684c-2.694,0.923-5.632,1.922-8.997,3.365c-0.498,0.213-2.595,1.17-3.812,1.352
                c-0.497,0.075-1.87,1.358-1.782,1.598c0,0-1.438,1.378-2.665,1.845c-5.363,2.324-17.072,0.514-20.75,0.332
                c0.66,0.264,1.591,0.854,1.666,1.964c0.266,3.88,0.151,7.985-2.318,11.325c-1.021,1.38-2.716,3.058-1.094,3.328
                c1.358,0.226,5.807,0.932,7.339,0.849c1.461-0.08,2.146-0.451,2.955,1.003c0.878,1.582-0.872,2.214-1.836,3.275
                c-2.07,2.276-1.605,6.372-0.458,9.532c0.881,5.398,5.796,6.487,5.163,7.811c9.111,2.609,23.146,1.47,30.015,1.505
                c6.228-0.081,11.584,0.397,16.479-2.267c0.911-0.497,1.782-0.992,0.244-2.098c1.603,1.385,3.947,1.323,5.924,0.667
                c4.021-1.334,6.71-4.559,10.188-6.645c4.529-2.714,9.33-5.012,13.497-8.292C382.445,148.81,382.119,143.418,374.762,138.805z"/>
            <path fill="none" stroke="#212121" stroke-width="0.25" stroke-miterlimit="10" d="M287.792,132.237
                c0.015,0,0.035,0.002,0.049,0.003C287.185,131.978,286.798,132.039,287.792,132.237z"/>
        </g>
        <g>
            <path id="mapid-110011231125-outline" fill="rgba(16,52,84,.2)"  stroke="#212121" stroke-width="0.25" stroke-miterlimit="10" d="M90.104,111.953
                c1.208-0.933,2.591-1.261,4.092-1.175c2.729-0.433,4.644-2.564,7.162-3.438c3.644-0.837,7.289-1.668,10.759-3.106
                c1.849,0.17,3.534-0.545,4.205-2.116c0.656-1.538,1.877-1.487,2.969-1.963c1.961,0.335,3.407-1.457,5.328-1.287
                c3.498-1.021,3.754-1.409,2.398-4.449c-1.362-3.052,1.433-3.211,2.864-4.334c1.789-0.754,3.577-0.866,5.36,0.019
                c4.484,1.6,9.176,1.024,13.86,1.616l2.827,0.884c-1.963,1.672-1.363,2.467-0.935,5.312c0.182,1.188-1.163,3.241-1.679,4.277
                c-0.997,2.005-0.39,3.179,1.5,4.427c2.218,1.465,5.306,0.554,7.433,2.734c1.111,1.139,3.555,2.729,4.051,2.867
                c7.76,1.353,13.706,2.643,21.363,4.531c2.909,0.717,3.604,1.55,7.897,1.7c2.273,0.079,3.544-1.136,5.96-0.959
                c3.563,0.26,10.073,0.41,17.328,0.174c3.457-0.112,6.387,0.614,9.092-0.027c3.922-0.929,4.091-3.126,7.867-2.817
                c3.104,0.255,8.899,2.693,11.432,4.109c1.788,1.002,3.413,1.75,5.445,1.905c2.589,0.199,3.588,0.487,4.453,1.377
                c0,0,1.313,0.07,1.654,0.856c0.233,0.534-0.021,3.288,0.229,4.768c0.534,3.162,0.305,3.473-2.427,5.166
                c-1.312,0.812-4.831,0.424-6.04,1.358c-1.243,0.96-1.482,1.391-1.045,5.284c0.19,1.709-4.069,2.619-5.961,2.888
                c-3.371,0.479-7.146,0.692-10.568,0.676c-4.516-0.023-8.649,1.215-13.088,1.167c-6.235-0.067-9.557,2.539-14.37,6.026
                c-0.849,0.614-2.789-0.133-3.664-0.717c-4.034-2.689-9.016-0.118-13.473-0.237c-2.088-0.056-3.939-0.29-5.927-1.363
                c-3.181-1.717-6.941-1.958-10.477-2.763c-15.01-2.188-30.085-3.252-45.262-3.616c-15.601-0.374-31.163-1.076-46.69,1.08
                c-2.448,0.34-4.781-0.429-7.094-1.175c-4.573-1.472-9.153-1.689-13.718,0.065c-2.011,0.269-4.02,0.539-6.026,0.807
                c-0.906,0.577-1.917,0.313-2.877,0.316c-3.76,0.011-4.146-0.408-3.536-4.052c0.408-2.447-0.701-5.196,1.417-7.3
                c2.854-1.968,6.11-1.928,9.375-1.854c0.083,0.001,0.207-0.095,0.239-0.176c0.023-0.063-0.062-0.172-0.097-0.26
                c1.538-0.654,3.16-0.541,4.771-0.518c0.634,0.516,1.332,0.252,1.839-0.078c5.938-3.865,13.159-5.115,18.906-9.361
                C82.738,116.615,86.74,114.761,90.104,111.953z"/>
            <path id="mapid-110011231126-outline" fill="rgba(16,52,84,.2)"  stroke="#212121" stroke-width="0.25" stroke-miterlimit="10" d="M252.303,74.444
                c-0.928,0.394-1.854,0.789-2.78,1.184c-1.285,0.082-2.172,0.973-1.003,1.762c2.309,1.556,4.104,4.397,7.539,3.717
                c0.519,0.132,1.037,0.265,1.555,0.397c1.447,1.864,2.179,4.331,4.564,5.401c4.721,0.309,9.282-1.219,13.979-1.199
                c1.438-0.023,2.663-0.684,3.898-1.313c0.232-0.221,0.493-0.4,0.783-0.542c2.197-0.31,3.097,0.202,5.103,1.172
                c2.649,1.283,1.086,2.169,3.91,2.891c0.339,0.118,4.947,1.166,5.23,1.381c2.542,1.403,5.354,3.615,7.287,6.273
                c1.348,1.854,1.048,1.881-0.771,3.701c-1.342,1.338-5.146,2.222-5.063,3.997c0.083,1.773,3.021,3.403,2.797,3.588
                c0,0-0.296-0.435-1.718-0.096c-1.173,0.28-3.046,2.079-4.759,2.475c-4.745,1.097-11.072,1.659-14.354,2.156
                c-9.303,1.308-15.105,2.883-17.007,1.32c-3.985,0.096-7.173,1.116-10.808,2.423c-5.379,1.935-8.384,1.365-13.669,1.043
                c-2.013-0.123-5.629-3.531-10.786,0.563c-1.263,1.002-2.86,1.024-4.427,0.947c-7.889-0.382-15.784,0.839-23.678-0.161
                c-1.048-0.133-2.18,0.124-3.246,0.431c-2.939,0.849-5.741,0.556-8.686-0.416c-5.854-1.931-11.506-3.006-17.542-4.188
                c-5.971-1.17-7.063-0.841-10.403-3.997c-1.69-1.597-2.935-1.367-4.528-1.772c-5.157-1.309-5.785-2.573-3.628-7.298
                c0.538-1.177,1.229-2.377,0.838-3.663c-0.585-1.914-0.325-2.603,0.728-3.687c2.556-1.25,5.173-0.06,7.741-0.055
                c5.708,0.012,11.441,0.791,16.329-3.275c0.594-0.495,1.63-0.707,2.507-0.173c2.23,0.552,4.479,0.984,6.557,2.102
                c3.151,1.696,5.976,0.912,8.458-1.493c2.101-1.457,4.578-1.984,6.946-2.75c0.853-0.276,1.965-0.295,1.794-1.384
                c-0.17-1.075-1.389-0.88-2.201-0.845c-1.729,0.074-3.457,0.298-5.184,0.461c-1.604-0.224-3.013-0.664-4.343-1.813
                c-1.239-1.072-2.857-1.997-4.753-1.488c-0.509-0.139-1.018-0.278-1.525-0.417c-0.253-3.972-0.192-4.043,4.034-4.744
                c1.687-1.426,3.366,0.282,5.052,0.013c1.28-0.206,2.641,0.235,4.386-0.721c-9.216-1.47-17.666-4.442-26.626-4.742
                c-2.729-1.622-3.952-3.871-2.645-6.968c0.554-1.309,0.156-1.717-1.081-1.986c-0.766-0.166-1.402-0.676-0.895-1.661
                c6.064-1.709,12.328-1.754,18.54-2.075c1.664-0.086,3.266,0.029,4.78-0.786c0.379-0.204,0.865-0.444,1.247-0.374
                c5.71,1.058,11.467-0.031,17.136,0.37c3.063,0.216,6.127-0.837,9.125,0.206c0.47,0.163,0.964,0.258,1.475,0.391
                c-0.424,1.479-1.762,1.515-2.523,2.232c-0.806,0.756-2.861,0.519-2.375,2.175c0.358,1.223,1.975,2.083,3.14,2.109
                c5.964,0.134,11.847,1.667,17.882,0.784c3.192-0.466,6.482-0.265,9.729-0.364c2.371,0.616,4.875,0.644,7.148,1.713
                c0.813,0.382,1.703,0.542,1.447,1.745v-0.053c-0.396,0.301-0.629,0.917-0.289,1.104
                C255.826,71.918,253.632,73.132,252.303,74.444z"/>
            <path id="mapid-110011231128-outline" fill="rgba(16,52,84,.2)"  stroke="#212121" stroke-width="0.25" stroke-miterlimit="10" d="M338.392,79.647
                c2.941-1.537,2.112-3.749,4.106-4.745c1.661-0.877,2.829-0.417,5.717-3.022c1.328-1.346,2.629-2.752,3.653-4.17
                c1.383-1.916,2.979-2.496,4.864-0.624c3.185,0.733,6.473-0.317,9.666,0.635c3.383,1.009,7.021,1.009,10.276,2.552
                c0.047,0.943-0.47,1.937-0.35,2.795c2.3,5.335-1.584,4.705-3.565,5.254c-0.012,0.003-0.669,1.351-0.159,2.631
                c0.729,1.826,2.438,2.511,3.712,2.772c1.335,0.273,4.214,0.128,6.244-0.111c2.409-0.284,2.939-0.218,5.281-0.414
                c0.104-0.008,0.044-0.213,0.521-0.122c0.834,0.16,0.851,0.303,1.405,0.43c3.298,0.749,2.81,2.608,0.918,3.675
                c-0.476,0.268-1.194,0.515-1.779,0.648c-1.312-0.095-2.395-0.177-3.708,0.415c-1.545,0.49-3.205,0.038-4.767,0.71
                c-1.733,0.751-2.364,2.073-2.198,3.758c0.157,1.632,1.294,2.25,2.909,2.523c3.191,0.539,6.556,0.74,9.139,3.108
                c1.053,0.965,2.474,1.935,2.486,3.37c0.028,2.685,1.701,4.066,3.469,5.553c1.988,1.819,4.766,4.531,5.879,7.559
                c1.805,4.913-0.608,5.861-4.529,5.629c-2.826-0.167-5.354-2.249-8.333-1.22c-3.543-1.001-7.282-0.02-10.819-1.076
                c0.038-0.103,0.082-0.204,0.11-0.309c0.025-0.084,0.034-0.172,0.051-0.258c-3.015,0.493-6.074,0.681-9.053,1.408
                c-0.09,0.022-0.2,0.105-0.229,0.187c-0.021,0.065,0.063,0.169,0.104,0.256c-1.914,1.133-4.956-0.363-6.825,0.99
                c-6.081-3.051-8.006-3.133-11.899-2.615c-0.755,0.1-1.102-0.138-2.044-0.131c-0.45-0.038-2.563-1.33-2.575-1.749
                c-0.146-4.565-3.066-6.279-1.01-9.918c2.308-3.426,0.521-6.467-2.287-8.196c-2.864-1.764-5.063-3.429-7.312-5.222
                c-1.371-1.038-2.047-3.272-2.231-3.979l-0.39-0.417c-0.688-0.45-1.76-2.664-0.949-4.467
                C333.255,81.244,334.796,81.524,338.392,79.647z"/>
            <path id="mapid-110011231127-outline" fill="rgba(16,52,84,.2)" stroke="#212121" stroke-width="0.25" stroke-miterlimit="10" d="M351.436,64.389
                c-3.063-2.267-6.687-1.075-10.025-1.524c-4.886-0.656-10.001,1.056-14.759-1.442c-0.702-0.369-1.72-0.24-2.577-0.189
                c-2.743,0.16-5.437,0.015-8.045-0.933c-2.145-0.778-4.272-0.913-6.345,0.255c-1.586,0.207-2.86,0.563-1.675,2.611
                c0.204,0.351-0.223,0.789-0.774,0.733c-6.444,1.912-12.336,5.465-19.25,6.1c-1.915,0.176-3.458-1.32-5.375-0.466
                c-0.982,0.438-2.331,0.367-2.403,1.759c-0.075,1.449,1.113,1.679,2.271,1.755c1.069,0.447,1.416,1.197,0.438,1.955
                c-2.725,2.117-2.881,5.922-5.478,8.151c-0.487,0.42-1.529,1.69-0.737,2.324c0.356,0.284,1.512-0.133,2.436-0.624l1.7-1.003
                c1.723-0.733,6.173,1.83,6.173,1.83c0.525,1.862,4.229,2.714,6.905,3.238l-0.039-0.017c2.986,0.743,5.713,3.159,7.409,5.217
                c3.824,3.808,1.322,4.135-2.797,7.201c-0.268,0.197-0.58,0.312-0.869,0.469c-1.237,0.675-1.423,1.663-0.594,2.725
                c0.898,1.151,1.887,1.97,2.994,2.602c-2.831-1.216-3.204,0.338-5.5,1.492c-0.963,0.485-2.073,0.773-3.149,0.931
                c-8.898,1.297-17.805,2.554-26.714,3.789c-1.093,0.152-2.202,0.051-3.165-0.619c-4.1,0.023-9.48,1.954-14.002,3.352
                c-3.467,1.073-7.043,0.261-10.041,0.272c0.989,0.932,5.4,1.799,5.792,2.599c4.415,1.996,4.415,1.996,7.023,2.062
                c0.879,0.022,2.245,0.994,3.116,1.092c1.187,0.131,1.607,0.691,1.454,2.011c-0.63,5.434,2.021,8.07,7.438,7.947
                c9.223-0.208,18.452-0.644,27.666,0.412c4.464,0.513,8.937,0.88,13.462,0.443c7.849-0.758,6.259-2.284,9.638-4.435l0,0
                c0.549,0.414,2.688-1.013,3.87-1.494c1.516-0.62,3.363-1.374,4.917-1.885c7.273-2.397,13.966-5.756,20.664-9.423
                c1.945-1.269,3.519-0.114,3.519-0.114c0.082-0.868-0.315-2.233-1.188-4.204c-0.906-2.051-0.602-4.008,0.569-5.932
                c1.41-2.323,0.691-4.409-1.021-6.273c-0.901-0.98-2.095-1.574-3.132-2.362c-3.057-2.317-7.061-3.76-8.02-8.152
                c-0.215-0.249-0.438-0.482-0.688-0.696c-1.493-2.31-1.109-4.685,1.039-6.025c1.286-0.801,2.764-1.233,4.118-1.905
                c0.6-0.283,1.188-0.592,1.713-1.007c1.673-1.317,1.75-4.057,4.319-4.625c3.82-0.844,6.227-4.258,8.586-7.21
                C353.085,66.189,353.901,65.621,351.436,64.389z"/>
        </g>
        <g id="diandian">
            <circle id="mapid-110011121121-circle" fill="#040000" cx="500.208" cy="217.052" r="1.976"/>
            <circle id="mapid-110011011109-circle" fill="#040000" cx="611.146" cy="334.965" r="1.977"/>
            <circle id="mapid-110011011106-circle" fill="#040000" cx="648.407" cy="226.786" r="1.976"/>
            <circle id="mapid-110011011111-circle" fill="#040000" cx="381.963" cy="356.55" r="1.976"/>
            <circle id="mapid-110011011110-circle" fill="#040000" cx="502.183" cy="268.014" r="1.976"/>
            <circle id="mapid-110011011107-circle" fill="#040000" cx="911.43" cy="313.802" r="1.977"/>
            <circle id="mapid-110011290001-circle" fill="#040000" cx="900.43" cy="240.802" r="1.977"/>
            <circle id="mapid-110011310001-circle" fill="#040000" cx="930.43" cy="340.802" r="1.977"/>
            <circle id="mapid-110011121122-circle" fill="#040000"  cx="815.938" cy="91.079" r="1.976"/>
            <circle id="mapid-110011121120-circle" fill="#040000" cx="650.385" cy="142.282" r="1.976"/>
            <circle id="_x31_90105_3_" fill="#040000" cx="650.385" cy="142.282" r="1.976"/>
            <circle id="mapid-110011121119-circle" fill="#040000" cx="737.454" cy="160.283" r="1.976"/>
            <circle id="mapid-110011011104-circle" fill="#040000" cx="153.976" cy="267.076" r="1.976"/>
            <circle id="mapid-110011010001-circle" display="none" fill="#040000" cx="90.976" cy="130.076" r="1.976"/>
            <circle id="mapid-110011300001-circle" fill="#040000" cx="212.09" cy="183.509" r="1.976"/>
            <circle id="mapid-110011231125-circle" fill="#040000" cx="190.976" cy="130.076" r="1.976"/>
            <circle id="mapid-110011231126-circle" fill="#040000" cx="222.09" cy="90.509" r="1.976"/>
            <circle id="mapid-110011231127-circle" fill="#040000" cx="310.231" cy="90.298"  r="1.976"/>
            <circle id="mapid-110011231128-circle" fill="#040000" cx="355.09" cy="95.509" r="1.976"/>
            <circle id="mapid-110000010000-circle" fill="#040000" cx="256.09" cy="155.509" r="1.976"/>
            <circle id="mapid-110011121113-circle" fill="#040000" cx="340.089" cy="132.54" r="1.976"/>
            <circle id="mapid-110011121118-circle" fill="#040000" cx="439.231" cy="101.298" r="1.976"/>
            <circle id="mapid-110011120001-circle" fill="#040000" cx="320.231" cy="103.298" r="1.976"/>
            <circle id="mapid-110011130001-circle" fill="#040000" cx="420.231" cy="203.298" r="1.976"/>
            <circle id="_x31_90109_6_" fill="#040000" cx="372.425" cy="103.274" r="1.976"/>
        </g>
        
            <text id="" transform="matrix(1 0 0 1 855.9082 101.2979)" fill="#040000" font-family="'MicrosoftYaHei'" font-size="12"></text>
        
            <text id="" transform="matrix(1 0 0 1 718.3555 140.5566)" fill="#040000" font-family="'MicrosoftYaHei'" font-size="12"></text>
        
            <text id="" transform="matrix(1 0 0 1 619.8418 162.2646)" fill="#040000" font-family="'MicrosoftYaHei'" font-size="12"></text>
        
            <text id="" transform="matrix(1 0 0 1 498.2324 197.7109)" fill="#040000" font-family="'MicrosoftYaHei'" font-size="12"></text>
        
            <text id="" transform="matrix(1 0 0 1 899.8809 289.6348)" fill="#040000" font-family="'MicrosoftYaHei'" font-size="12"></text>
        
            <text id="" transform="matrix(1 0 0 1 630.0996 355.4541)" fill="#040000" font-family="'MicrosoftYaHei'" font-size="12"></text>
        
            <text id="" transform="matrix(1 0 0 1 733.4297 200.0137)" fill="#040000" font-family="'MicrosoftYaHei'" font-size="12"></text>
        
            <text id="" transform="matrix(1 0 0 1 655.4297 255.0137)" fill="#040000" font-family="'MicrosoftYaHei'" font-size="12"></text>
        
            <text id="" transform="matrix(1 0 0 1 490.0693 287.6582)" fill="#040000" font-family="'MicrosoftYaHei'" font-size="12"></text>
        
            <text id="" transform="matrix(1 0 0 1 430.2314 356.5498)" fill="#040000" font-family="'MicrosoftYaHei'" font-size="12"></text>
        
            <text id="" transform="matrix(1 0 0 1 319.4546 151.5566)" fill="#040000" font-family="'MicrosoftYaHei'" font-size="12"></text>
        
            <text id="" transform="matrix(1 0 0 1 422.2466 80.1045)" fill="#040000" font-family="'MicrosoftYaHei'" font-size="12"></text>
        
            <text id="" transform="matrix(1 0 0 1 346.8345 83.1191)" fill="#040000" font-family="'MicrosoftYaHei'" font-size="12"></text>
        
            <text id="" transform="matrix(1 0 0 1 317.2686 92.8857)" fill="#040000" font-family="'MicrosoftYaHei'" font-size="12"></text>
        
            <text id="" transform="matrix(1 0 0 1 204.6064 93.2148)" fill="#040000" font-family="'MicrosoftYaHei'" font-size="12"></text>
        
            <text id="" transform="matrix(1 0 0 1 128.5449 128.54)" fill="#040000" font-family="'MicrosoftYaHei'" font-size="12"></text>
        
            <text id="" transform="matrix(1 0 0 1 138.6064 239.833)" fill="#040000" font-family="'MicrosoftYaHei'" font-size="12"></text>
    </g>
</g>
</svg>